SplineFontDB: 3.2
FontName: Pali
FullName: Pali
FamilyName: Pali
Weight: Regular
Copyright: https://github.com/dhammena/pali-font.git
Version: 1.0.0
ItalicAngle: 0
UnderlinePosition: -100
UnderlineWidth: 50
Ascent: 800
Descent: 200
InvalidEm: 0
sfntRevision: 0x00010000
LayerCount: 2
Layer: 0 1 "Back" 1
Layer: 1 1 "Fore" 0
XUID: [1021 640 1853485852 16089]
StyleMap: 0x0040
FSType: 0
OS2Version: 4
OS2_WeightWidthSlopeOnly: 1
OS2_UseTypoMetrics: 1
CreationTime: 1609585222
ModificationTime: 1648032971
PfmFamily: 17
TTFWeight: 400
TTFWidth: 5
LineGap: 0
VLineGap: 0
Panose: 2 11 3 3 2 2 2 2 2 4
OS2TypoAscent: 950
OS2TypoAOffset: 0
OS2TypoDescent: -250
OS2TypoDOffset: 0
OS2TypoLinegap: 0
OS2WinAscent: 990
OS2WinAOffset: 0
OS2WinDescent: 266
OS2WinDOffset: 0
HheadAscent: 950
HheadAOffset: 0
HheadDescent: -250
HheadDOffset: 0
OS2SubXSize: 650
OS2SubYSize: 600
OS2SubXOff: 0
OS2SubYOff: 75
OS2SupXSize: 650
OS2SupYSize: 600
OS2SupXOff: 0
OS2SupYOff: 350
OS2StrikeYSize: 50
OS2StrikeYPos: 250
OS2CapHeight: 700
OS2XHeight: 500
OS2FamilyClass: 2063
OS2Vendor: 'PARA'
OS2CodePages: 20000097.00000000
OS2UnicodeRanges: a00002ff.5000e0ff.00000020.00000000
Lookup: 1 0 0 "'aalt' Access All Alternates lookup 0" { "'aalt' Access All Alternates lookup 0 subtable"  } ['aalt' ('DFLT' <'dflt' > 'cyrl' <'BGR ' 'BSH ' 'SRB ' 'dflt' > 'latn' <'AZE ' 'MOL ' 'ROM ' 'TRK ' 'dflt' > ) ]
Lookup: 3 0 0 "'aalt' Access All Alternates lookup 1" { "'aalt' Access All Alternates lookup 1 subtable"  } ['aalt' ('DFLT' <'dflt' > 'cyrl' <'BGR ' 'BSH ' 'SRB ' 'dflt' > 'latn' <'AZE ' 'MOL ' 'ROM ' 'TRK ' 'dflt' > ) ]
Lookup: 4 0 0 "'ccmp' Glyph Composition/Decomposition lookup 2" { "'ccmp' Glyph Composition/Decomposition lookup 2 subtable"  } ['ccmp' ('DFLT' <'dflt' > 'cyrl' <'BGR ' 'BSH ' 'SRB ' 'dflt' > 'latn' <'AZE ' 'MOL ' 'ROM ' 'TRK ' 'dflt' > ) ]

StartChar: .notdef
Encoding: 65536 -1 0
Width: 650
GlyphClass: 1
Flags: W
LayerCount: 2
Fore
SplineSet
80 700 m 1,0,-1
 570 700 l 1,1,-1
 570 0 l 1,2,-1
 80 0 l 1,3,-1
 80 700 l 1,0,-1
325 406 m 1,4,-1
 472 650 l 1,5,-1
 179 650 l 1,6,-1
 325 406 l 1,4,-1
514 92 m 1,7,-1
 514 609 l 1,8,-1
 358 351 l 1,9,-1
 514 92 l 1,7,-1
136 91 m 1,10,-1
 292 349 l 1,11,-1
 136 608 l 1,12,-1
 136 91 l 1,10,-1
471 50 m 1,13,-1
 325 294 l 1,14,-1
 178 50 l 1,15,-1
 471 50 l 1,13,-1
EndSplineSet
Validated: 1
EndChar

StartChar: exclam
Encoding: 33 33 4
Width: 300
GlyphClass: 1
Flags: W
LayerCount: 2
Fore
SplineSet
115 700 m 1,0,-1
 185 700 l 1,1,-1
 185 200 l 1,2,-1
 115 200 l 1,3,-1
 115 700 l 1,0,-1
150 -7 m 256,4,5
 126 -7 126 -7 110.5 9 c 128,-1,6
 95 25 95 25 95 48 c 256,7,8
 95 71 95 71 110.5 87 c 128,-1,9
 126 103 126 103 150 103 c 256,10,11
 174 103 174 103 189.5 87 c 128,-1,12
 205 71 205 71 205 48 c 256,13,14
 205 25 205 25 189.5 9 c 128,-1,15
 174 -7 174 -7 150 -7 c 256,4,5
EndSplineSet
Validated: 1
EndChar

StartChar: numbersign
Encoding: 35 35 6
Width: 590
GlyphClass: 1
Flags: W
LayerCount: 2
Fore
SplineSet
129 210 m 1,0,-1
 25 210 l 1,1,-1
 37 270 l 1,2,-1
 139 270 l 1,3,-1
 171 450 l 1,4,-1
 68 450 l 1,5,-1
 79 510 l 1,6,-1
 182 510 l 1,7,-1
 216 700 l 1,8,-1
 280 700 l 1,9,-1
 246 510 l 1,10,-1
 401 510 l 1,11,-1
 435 700 l 1,12,-1
 499 700 l 1,13,-1
 465 510 l 1,14,-1
 565 510 l 1,15,-1
 554 450 l 1,16,-1
 454 450 l 1,17,-1
 422 270 l 1,18,-1
 522 270 l 1,19,-1
 511 210 l 1,20,-1
 412 210 l 1,21,-1
 374 0 l 1,22,-1
 310 0 l 1,23,-1
 348 210 l 1,24,-1
 193 210 l 1,25,-1
 155 0 l 1,26,-1
 91 0 l 1,27,-1
 129 210 l 1,0,-1
358 270 m 1,28,-1
 390 450 l 1,29,-1
 235 450 l 1,30,-1
 203 270 l 1,31,-1
 358 270 l 1,28,-1
EndSplineSet
Validated: 1
Substitution2: "'tnum' Tabular Numbers lookup 14 subtable" numbersign.fitted
Substitution2: "'aalt' Access All Alternates lookup 0 subtable" numbersign.fitted
EndChar

StartChar: dollar
Encoding: 36 36 7
Width: 610
GlyphClass: 1
Flags: W
LayerCount: 2
Fore
SplineSet
274 -6 m 1,0,1
 74 9 74 9 60 215 c 1,2,-1
 132 215 l 1,3,4
 139 143 139 143 173 105 c 128,-1,5
 207 67 207 67 274 60 c 1,6,-1
 274 333 l 1,7,8
 236 344 236 344 199 358 c 128,-1,9
 162 372 162 372 133.5 393.5 c 128,-1,10
 105 415 105 415 87.5 446.5 c 128,-1,11
 70 478 70 478 70 525 c 0,12,13
 70 561 70 561 83 592.5 c 128,-1,14
 96 624 96 624 121.5 648 c 128,-1,15
 147 672 147 672 185 687 c 128,-1,16
 223 702 223 702 274 706 c 1,17,-1
 274 800 l 1,18,-1
 336 800 l 1,19,-1
 336 706 l 1,20,21
 434 698 434 698 483.5 646.5 c 128,-1,22
 533 595 533 595 540 505 c 1,23,-1
 468 505 l 1,24,25
 460 566 460 566 430 599.5 c 128,-1,26
 400 633 400 633 336 640 c 1,27,-1
 336 388 l 1,28,29
 375 376 375 376 413.5 362 c 128,-1,30
 452 348 452 348 482.5 325.5 c 128,-1,31
 513 303 513 303 531.5 269.5 c 128,-1,32
 550 236 550 236 550 185 c 0,33,34
 550 105 550 105 497.5 53 c 128,-1,35
 445 1 445 1 336 -6 c 1,36,-1
 336 -100 l 1,37,-1
 274 -100 l 1,38,-1
 274 -6 l 1,0,1
142 525 m 0,39,40
 142 499 142 499 152.5 480.5 c 128,-1,41
 163 462 163 462 181 448 c 128,-1,42
 199 434 199 434 223 424 c 128,-1,43
 247 414 247 414 274 405 c 1,44,-1
 274 640 l 1,45,46
 206 633 206 633 174 601.5 c 128,-1,47
 142 570 142 570 142 525 c 0,39,40
478 185 m 0,48,49
 478 213 478 213 467 233.5 c 128,-1,50
 456 254 456 254 436.5 269 c 128,-1,51
 417 284 417 284 391 295 c 128,-1,52
 365 306 365 306 336 315 c 1,53,-1
 336 60 l 1,54,55
 409 67 409 67 443.5 102 c 128,-1,56
 478 137 478 137 478 185 c 0,48,49
EndSplineSet
Validated: 1
Substitution2: "'tnum' Tabular Numbers lookup 14 subtable" dollar.fitted
Substitution2: "'aalt' Access All Alternates lookup 0 subtable" dollar.fitted
EndChar

StartChar: percent
Encoding: 37 37 8
Width: 900
GlyphClass: 1
Flags: W
LayerCount: 2
Fore
SplineSet
210 343 m 256,0,1
 175 343 175 343 145.5 355 c 128,-1,2
 116 367 116 367 95 388 c 128,-1,3
 74 409 74 409 62 439 c 128,-1,4
 50 469 50 469 50 505 c 2,5,-1
 50 545 l 2,6,7
 50 581 50 581 62 611 c 128,-1,8
 74 641 74 641 95 662 c 128,-1,9
 116 683 116 683 145.5 695 c 128,-1,10
 175 707 175 707 210 707 c 256,11,12
 245 707 245 707 274.5 695 c 128,-1,13
 304 683 304 683 325 662 c 128,-1,14
 346 641 346 641 358 611 c 128,-1,15
 370 581 370 581 370 545 c 2,16,-1
 370 505 l 2,17,18
 370 469 370 469 358 439 c 128,-1,19
 346 409 346 409 325 388 c 128,-1,20
 304 367 304 367 274.5 355 c 128,-1,21
 245 343 245 343 210 343 c 256,0,1
210 401 m 256,22,23
 252 401 252 401 279 429 c 128,-1,24
 306 457 306 457 306 505 c 2,25,-1
 306 545 l 2,26,27
 306 593 306 593 279 621 c 128,-1,28
 252 649 252 649 210 649 c 256,29,30
 168 649 168 649 141 621 c 128,-1,31
 114 593 114 593 114 545 c 2,32,-1
 114 505 l 2,33,34
 114 457 114 457 141 429 c 128,-1,35
 168 401 168 401 210 401 c 256,22,23
690 -7 m 256,36,37
 655 -7 655 -7 625.5 5 c 128,-1,38
 596 17 596 17 575 38 c 128,-1,39
 554 59 554 59 542 89 c 128,-1,40
 530 119 530 119 530 155 c 2,41,-1
 530 195 l 2,42,43
 530 231 530 231 542 261 c 128,-1,44
 554 291 554 291 575 312 c 128,-1,45
 596 333 596 333 625.5 345 c 128,-1,46
 655 357 655 357 690 357 c 256,47,48
 725 357 725 357 754.5 345 c 128,-1,49
 784 333 784 333 805 312 c 128,-1,50
 826 291 826 291 838 261 c 128,-1,51
 850 231 850 231 850 195 c 2,52,-1
 850 155 l 2,53,54
 850 119 850 119 838 89 c 128,-1,55
 826 59 826 59 805 38 c 128,-1,56
 784 17 784 17 754.5 5 c 128,-1,57
 725 -7 725 -7 690 -7 c 256,36,37
690 51 m 256,58,59
 732 51 732 51 759 79 c 128,-1,60
 786 107 786 107 786 155 c 2,61,-1
 786 195 l 2,62,63
 786 243 786 243 759 271 c 128,-1,64
 732 299 732 299 690 299 c 256,65,66
 648 299 648 299 621 271 c 128,-1,67
 594 243 594 243 594 195 c 2,68,-1
 594 155 l 2,69,70
 594 107 594 107 621 79 c 128,-1,71
 648 51 648 51 690 51 c 256,58,59
616 700 m 1,72,-1
 690 700 l 1,73,-1
 284 0 l 1,74,-1
 210 0 l 1,75,-1
 616 700 l 1,72,-1
EndSplineSet
Validated: 1
Ligature2: "'frac' Diagonal Fractions lookup 8 subtable" zero.numerator fraction zero.denominator
EndChar

StartChar: ampersand
Encoding: 38 38 9
Width: 640
GlyphClass: 1
Flags: W
LayerCount: 2
Fore
SplineSet
476 78 m 1,0,1
 437 36 437 36 385.5 14.5 c 128,-1,2
 334 -7 334 -7 275 -7 c 0,3,4
 225 -7 225 -7 185.5 7.5 c 128,-1,5
 146 22 146 22 118 47.5 c 128,-1,6
 90 73 90 73 75 107.5 c 128,-1,7
 60 142 60 142 60 183 c 0,8,9
 60 209 60 209 65.5 233.5 c 128,-1,10
 71 258 71 258 85 282 c 128,-1,11
 99 306 99 306 123 330.5 c 128,-1,12
 147 355 147 355 184 382 c 1,13,14
 156 413 156 413 138 437 c 128,-1,15
 120 461 120 461 110 481.5 c 128,-1,16
 100 502 100 502 96.5 521.5 c 128,-1,17
 93 541 93 541 93 562 c 0,18,19
 93 593 93 593 104 619.5 c 128,-1,20
 115 646 115 646 136 665.5 c 128,-1,21
 157 685 157 685 187 696 c 128,-1,22
 217 707 217 707 255 707 c 0,23,24
 292 707 292 707 321.5 696 c 128,-1,25
 351 685 351 685 372 665.5 c 128,-1,26
 393 646 393 646 404 619.5 c 128,-1,27
 415 593 415 593 415 562 c 0,28,29
 415 541 415 541 410.5 520 c 128,-1,30
 406 499 406 499 392 476 c 128,-1,31
 378 453 378 453 352.5 427.5 c 128,-1,32
 327 402 327 402 284 372 c 1,33,-1
 466 182 l 1,34,35
 497 244 497 244 497 330 c 1,36,-1
 565 330 l 1,37,38
 565 270 565 270 552 220.5 c 128,-1,39
 539 171 539 171 515 131 c 1,40,-1
 640 0 l 1,41,-1
 551 0 l 1,42,-1
 476 78 l 1,0,1
161 562 m 0,43,44
 161 545 161 545 164 530 c 128,-1,45
 167 515 167 515 176 499 c 128,-1,46
 185 483 185 483 200 464 c 128,-1,47
 215 445 215 445 239 419 c 1,48,49
 276 445 276 445 298 464.5 c 128,-1,50
 320 484 320 484 330.5 500.5 c 128,-1,51
 341 517 341 517 344 532 c 128,-1,52
 347 547 347 547 347 562 c 0,53,54
 347 597 347 597 322 621 c 128,-1,55
 297 645 297 645 255 645 c 0,56,57
 211 645 211 645 186 621 c 128,-1,58
 161 597 161 597 161 562 c 0,43,44
128 183 m 0,59,60
 128 126 128 126 167 90.5 c 128,-1,61
 206 55 206 55 275 55 c 0,62,63
 320 55 320 55 359.5 73 c 128,-1,64
 399 91 399 91 430 126 c 1,65,-1
 229 335 l 1,66,67
 197 312 197 312 177 292 c 128,-1,68
 157 272 157 272 146 254 c 128,-1,69
 135 236 135 236 131.5 218.5 c 128,-1,70
 128 201 128 201 128 183 c 0,59,60
EndSplineSet
Validated: 1
EndChar

StartChar: quotesingle
Encoding: 39 39 10
Width: 200
GlyphClass: 1
Flags: W
LayerCount: 2
Fore
SplineSet
65 700 m 1,0,-1
 135 700 l 1,1,-1
 135 460 l 1,2,-1
 65 460 l 1,3,-1
 65 700 l 1,0,-1
EndSplineSet
Validated: 1
EndChar

StartChar: parenleft
Encoding: 40 40 11
Width: 400
GlyphClass: 1
Flags: W
LayerCount: 2
Fore
SplineSet
90 250 m 0,0,1
 90 505 90 505 280 700 c 1,2,-1
 360 700 l 1,3,4
 307 646 307 646 269 593 c 128,-1,5
 231 540 231 540 206 485 c 128,-1,6
 181 430 181 430 169.5 372 c 128,-1,7
 158 314 158 314 158 250 c 256,8,9
 158 186 158 186 169.5 128 c 128,-1,10
 181 70 181 70 206 15 c 128,-1,11
 231 -40 231 -40 269 -93 c 128,-1,12
 307 -146 307 -146 360 -200 c 1,13,-1
 278 -200 l 1,14,15
 184 -105 184 -105 137 7.5 c 128,-1,16
 90 120 90 120 90 250 c 0,0,1
EndSplineSet
Validated: 1
Substitution2: "'sups' Superscript lookup 24 subtable" uni207D
Substitution2: "'case' Case-Sensitive Forms lookup 16 subtable" parenleft.case
Substitution2: "'sinf' Scientific Inferiors lookup 13 subtable" uni208D
Substitution2: "'subs' Subscript lookup 12 subtable" uni208D
AlternateSubs2: "'aalt' Access All Alternates lookup 1 subtable" parenleft.case uni208D uni207D
EndChar

StartChar: parenright
Encoding: 41 41 12
Width: 400
GlyphClass: 1
Flags: W
LayerCount: 2
Fore
SplineSet
310 250 m 0,0,1
 310 -5 310 -5 120 -200 c 1,2,-1
 40 -200 l 1,3,4
 93 -146 93 -146 131 -93 c 128,-1,5
 169 -40 169 -40 194 15 c 128,-1,6
 219 70 219 70 230.5 128 c 128,-1,7
 242 186 242 186 242 250 c 256,8,9
 242 314 242 314 230.5 372 c 128,-1,10
 219 430 219 430 194 485 c 128,-1,11
 169 540 169 540 131 593 c 128,-1,12
 93 646 93 646 40 700 c 1,13,-1
 122 700 l 1,14,15
 216 605 216 605 263 492.5 c 128,-1,16
 310 380 310 380 310 250 c 0,0,1
EndSplineSet
Validated: 1
Substitution2: "'sups' Superscript lookup 24 subtable" uni207E
Substitution2: "'case' Case-Sensitive Forms lookup 16 subtable" parenright.case
Substitution2: "'sinf' Scientific Inferiors lookup 13 subtable" uni208E
Substitution2: "'subs' Subscript lookup 12 subtable" uni208E
AlternateSubs2: "'aalt' Access All Alternates lookup 1 subtable" parenright.case uni208E uni207E
EndChar

StartChar: asterisk
Encoding: 42 42 13
Width: 390
GlyphClass: 1
Flags: W
LayerCount: 2
Fore
SplineSet
90 411 m 1,0,-1
 154 523 l 1,1,-1
 25 523 l 1,2,-1
 25 571 l 1,3,-1
 154 571 l 1,4,-1
 90 684 l 1,5,-1
 130 707 l 1,6,-1
 195 594 l 1,7,-1
 259 707 l 1,8,-1
 300 684 l 1,9,-1
 235 571 l 1,10,-1
 365 571 l 1,11,-1
 365 523 l 1,12,-1
 236 523 l 1,13,-1
 300 411 l 1,14,-1
 259 387 l 1,15,-1
 195 500 l 1,16,-1
 130 387 l 1,17,-1
 90 411 l 1,0,-1
EndSplineSet
Validated: 1
Substitution2: "'aalt' Access All Alternates lookup 0 subtable" asterisk.sub
EndChar

StartChar: plus
Encoding: 43 43 14
Width: 590
GlyphClass: 1
Flags: W
LayerCount: 2
Fore
SplineSet
260 328 m 1,0,-1
 75 328 l 1,1,-1
 75 392 l 1,2,-1
 260 392 l 1,3,-1
 260 580 l 1,4,-1
 330 580 l 1,5,-1
 330 392 l 1,6,-1
 515 392 l 1,7,-1
 515 328 l 1,8,-1
 330 328 l 1,9,-1
 330 140 l 1,10,-1
 260 140 l 1,11,-1
 260 328 l 1,0,-1
EndSplineSet
Validated: 1
Substitution2: "'ss08' Style Set 8 lookup 39 subtable" plus.ss08
Substitution2: "'sups' Superscript lookup 24 subtable" uni207A
Substitution2: "'subs' Subscript lookup 12 subtable" uni208A
AlternateSubs2: "'aalt' Access All Alternates lookup 1 subtable" plus.ss08 uni208A uni207A
EndChar

StartChar: comma
Encoding: 44 44 15
Width: 300
GlyphClass: 1
Flags: W
LayerCount: 2
Fore
SplineSet
125 85 m 1,0,-1
 205 85 l 1,1,-1
 135 -150 l 1,2,-1
 75 -150 l 1,3,-1
 125 85 l 1,0,-1
EndSplineSet
Validated: 1
Substitution2: "'sinf' Scientific Inferiors lookup 13 subtable" comma.sub
Substitution2: "'subs' Subscript lookup 12 subtable" comma.sub
AlternateSubs2: "'aalt' Access All Alternates lookup 1 subtable" comma.sub comma.superior
EndChar

StartChar: hyphen
Encoding: 45 45 16
Width: 450
GlyphClass: 1
Flags: W
LayerCount: 2
Fore
SplineSet
50 290 m 1,0,-1
 400 290 l 1,1,-1
 400 230 l 1,2,-1
 50 230 l 1,3,-1
 50 290 l 1,0,-1
EndSplineSet
Validated: 1
Substitution2: "'case' Case-Sensitive Forms lookup 16 subtable" hyphen.case
Substitution2: "'aalt' Access All Alternates lookup 0 subtable" hyphen.case
EndChar

StartChar: period
Encoding: 46 46 17
Width: 300
GlyphClass: 1
Flags: W
LayerCount: 2
Fore
SplineSet
150 -7 m 256,0,1
 126 -7 126 -7 110.5 8.5 c 128,-1,2
 95 24 95 24 95 48 c 256,3,4
 95 72 95 72 110.5 87.5 c 128,-1,5
 126 103 126 103 150 103 c 256,6,7
 174 103 174 103 189.5 87.5 c 128,-1,8
 205 72 205 72 205 48 c 256,9,10
 205 24 205 24 189.5 8.5 c 128,-1,11
 174 -7 174 -7 150 -7 c 256,0,1
EndSplineSet
Validated: 1
Substitution2: "'sinf' Scientific Inferiors lookup 13 subtable" period.sub
Substitution2: "'subs' Subscript lookup 12 subtable" period.sub
AlternateSubs2: "'aalt' Access All Alternates lookup 1 subtable" period.sub period.superior
EndChar

StartChar: slash
Encoding: 47 47 18
Width: 450
GlyphClass: 1
Flags: W
LayerCount: 2
Fore
SplineSet
363 700 m 1,0,-1
 425 700 l 1,1,-1
 87 -200 l 1,2,-1
 25 -200 l 1,3,-1
 363 700 l 1,0,-1
EndSplineSet
Validated: 1
Substitution2: "Single Substitution lookup 41 subtable" fraction
Substitution2: "'case' Case-Sensitive Forms lookup 16 subtable" slash.case
Substitution2: "'aalt' Access All Alternates lookup 0 subtable" slash.case
EndChar

StartChar: zero
Encoding: 48 48 19
Width: 610
GlyphClass: 1
Flags: W
LayerCount: 2
Fore
SplineSet
305 -7 m 0,0,1
 252 -7 252 -7 209.5 10.5 c 128,-1,2
 167 28 167 28 137 67 c 128,-1,3
 107 106 107 106 91 167.5 c 128,-1,4
 75 229 75 229 75 318 c 2,5,-1
 75 382 l 2,6,7
 75 470 75 470 91.5 531.5 c 128,-1,8
 108 593 108 593 138 632 c 128,-1,9
 168 671 168 671 210.5 689 c 128,-1,10
 253 707 253 707 305 707 c 256,11,12
 357 707 357 707 399.5 689.5 c 128,-1,13
 442 672 442 672 472 633 c 128,-1,14
 502 594 502 594 518.5 532 c 128,-1,15
 535 470 535 470 535 382 c 2,16,-1
 535 318 l 2,17,18
 535 230 535 230 518.5 168.5 c 128,-1,19
 502 107 502 107 472 68 c 128,-1,20
 442 29 442 29 399.5 11 c 128,-1,21
 357 -7 357 -7 305 -7 c 0,0,1
305 59 m 256,22,23
 341 59 341 59 370.5 71.5 c 128,-1,24
 400 84 400 84 420.5 114 c 128,-1,25
 441 144 441 144 452 194 c 128,-1,26
 463 244 463 244 463 318 c 2,27,-1
 463 382 l 2,28,29
 463 456 463 456 452 505.5 c 128,-1,30
 441 555 441 555 420 585 c 128,-1,31
 399 615 399 615 370 628 c 128,-1,32
 341 641 341 641 305 641 c 256,33,34
 269 641 269 641 239.5 628.5 c 128,-1,35
 210 616 210 616 189.5 586 c 128,-1,36
 169 556 169 556 158 506 c 128,-1,37
 147 456 147 456 147 382 c 2,38,-1
 147 318 l 2,39,40
 147 244 147 244 158 194.5 c 128,-1,41
 169 145 169 145 190 115 c 128,-1,42
 211 85 211 85 240 72 c 128,-1,43
 269 59 269 59 305 59 c 256,22,23
EndSplineSet
Validated: 1
Substitution2: "'sups' Superscript lookup 24 subtable" uni2070
Substitution2: "'tnum' Tabular Numbers lookup 14 subtable" uniF639
Substitution2: "'sinf' Scientific Inferiors lookup 13 subtable" uni2080
Substitution2: "'subs' Subscript lookup 12 subtable" uni2080
Substitution2: "'dnom' Denominators lookup 10 subtable" zero.denominator
Substitution2: "'numr' Numerators lookup 9 subtable" zero.numerator
Substitution2: "'frac' Diagonal Fractions lookup 4 subtable" zero.numerator
AlternateSubs2: "'aalt' Access All Alternates lookup 1 subtable" zero.denominator zero.numerator zero.slash zero.slash.fitted uni2080 uni2070
EndChar

StartChar: one
Encoding: 49 49 20
Width: 350
GlyphClass: 1
Flags: W
LayerCount: 2
Fore
SplineSet
180 621 m 1,0,-1
 30 519 l 1,1,-1
 30 597 l 1,2,-1
 180 700 l 1,3,-1
 250 700 l 1,4,-1
 250 0 l 1,5,-1
 180 0 l 1,6,-1
 180 621 l 1,0,-1
EndSplineSet
Validated: 1
Substitution2: "'sups' Superscript lookup 24 subtable" onesuperior
Substitution2: "'tnum' Tabular Numbers lookup 14 subtable" uniF6DC
Substitution2: "'sinf' Scientific Inferiors lookup 13 subtable" uni2081
Substitution2: "'subs' Subscript lookup 12 subtable" uni2081
Substitution2: "'dnom' Denominators lookup 10 subtable" one.denominator
Substitution2: "'numr' Numerators lookup 9 subtable" one.numerator
Substitution2: "'frac' Diagonal Fractions lookup 4 subtable" one.numerator
AlternateSubs2: "'aalt' Access All Alternates lookup 1 subtable" one.denominator one.numerator uni2081 onesuperior
EndChar

StartChar: two
Encoding: 50 50 21
Width: 550
GlyphClass: 1
Flags: W
LayerCount: 2
Fore
SplineSet
45 64 m 1,0,-1
 293 310 l 2,1,2
 325 342 325 342 349.5 368 c 128,-1,3
 374 394 374 394 390.5 417 c 128,-1,4
 407 440 407 440 415 461 c 128,-1,5
 423 482 423 482 423 505 c 0,6,7
 423 564 423 564 382 602.5 c 128,-1,8
 341 641 341 641 270 641 c 256,9,10
 199 641 199 641 158 602.5 c 128,-1,11
 117 564 117 564 117 505 c 1,12,-1
 45 505 l 1,13,14
 45 548 45 548 61 585 c 128,-1,15
 77 622 77 622 106 649 c 128,-1,16
 135 676 135 676 177 691.5 c 128,-1,17
 219 707 219 707 270 707 c 256,18,19
 321 707 321 707 363 691.5 c 128,-1,20
 405 676 405 676 434 649 c 128,-1,21
 463 622 463 622 479 585 c 128,-1,22
 495 548 495 548 495 505 c 0,23,24
 495 447 495 447 455.5 392 c 128,-1,25
 416 337 416 337 346 269 c 2,26,-1
 136 64 l 1,27,-1
 495 64 l 1,28,-1
 495 0 l 1,29,-1
 45 0 l 1,30,-1
 45 64 l 1,0,-1
EndSplineSet
Validated: 1
Substitution2: "'sups' Superscript lookup 24 subtable" twosuperior
Substitution2: "'tnum' Tabular Numbers lookup 14 subtable" uniF63A
Substitution2: "'sinf' Scientific Inferiors lookup 13 subtable" uni2082
Substitution2: "'subs' Subscript lookup 12 subtable" uni2082
Substitution2: "'dnom' Denominators lookup 10 subtable" two.denominator
Substitution2: "'numr' Numerators lookup 9 subtable" two.numerator
Substitution2: "'frac' Diagonal Fractions lookup 4 subtable" two.numerator
AlternateSubs2: "'aalt' Access All Alternates lookup 1 subtable" two.denominator two.numerator uni2082 twosuperior
EndChar

StartChar: three
Encoding: 51 51 22
Width: 580
GlyphClass: 1
Flags: W
LayerCount: 2
Fore
SplineSet
285 -7 m 0,0,1
 179 -7 179 -7 119.5 52 c 128,-1,2
 60 111 60 111 55 215 c 1,3,-1
 127 215 l 1,4,5
 132 140 132 140 172 99.5 c 128,-1,6
 212 59 212 59 285 59 c 0,7,8
 363 59 363 59 403 96.5 c 128,-1,9
 443 134 443 134 443 195 c 0,10,11
 443 254 443 254 404 291 c 128,-1,12
 365 328 365 328 294 328 c 2,13,-1
 200 328 l 1,14,-1
 200 392 l 1,15,-1
 294 392 l 2,16,17
 357 392 357 392 392.5 426.5 c 128,-1,18
 428 461 428 461 428 516 c 0,19,20
 428 573 428 573 391.5 607 c 128,-1,21
 355 641 355 641 285 641 c 0,22,23
 222 641 222 641 185.5 604.5 c 128,-1,24
 149 568 149 568 142 505 c 1,25,-1
 70 505 l 1,26,27
 72 551 72 551 88 588 c 128,-1,28
 104 625 104 625 131.5 651.5 c 128,-1,29
 159 678 159 678 198 692.5 c 128,-1,30
 237 707 237 707 285 707 c 0,31,32
 336 707 336 707 376 693 c 128,-1,33
 416 679 416 679 443.5 654 c 128,-1,34
 471 629 471 629 485.5 593.5 c 128,-1,35
 500 558 500 558 500 516 c 0,36,37
 500 465 500 465 475.5 424.5 c 128,-1,38
 451 384 451 384 405 361 c 1,39,40
 459 338 459 338 487 295 c 128,-1,41
 515 252 515 252 515 195 c 0,42,43
 515 150 515 150 499.5 113 c 128,-1,44
 484 76 484 76 455 49.5 c 128,-1,45
 426 23 426 23 383 8 c 128,-1,46
 340 -7 340 -7 285 -7 c 0,0,1
EndSplineSet
Validated: 1
Substitution2: "'sups' Superscript lookup 24 subtable" threesuperior
Substitution2: "'tnum' Tabular Numbers lookup 14 subtable" uniF63B
Substitution2: "'sinf' Scientific Inferiors lookup 13 subtable" uni2083
Substitution2: "'subs' Subscript lookup 12 subtable" uni2083
Substitution2: "'dnom' Denominators lookup 10 subtable" three.denominator
Substitution2: "'numr' Numerators lookup 9 subtable" three.numerator
Substitution2: "'frac' Diagonal Fractions lookup 4 subtable" three.numerator
AlternateSubs2: "'aalt' Access All Alternates lookup 1 subtable" three.denominator three.numerator uni2083 threesuperior
EndChar

StartChar: four
Encoding: 52 52 23
Width: 565
GlyphClass: 1
Flags: W
LayerCount: 2
Fore
SplineSet
25 232 m 1,0,-1
 353 700 l 1,1,-1
 440 700 l 1,2,-1
 440 232 l 1,3,-1
 535 232 l 1,4,-1
 535 168 l 1,5,-1
 440 168 l 1,6,-1
 440 0 l 1,7,-1
 370 0 l 1,8,-1
 370 168 l 1,9,-1
 25 168 l 1,10,-1
 25 232 l 1,0,-1
370 232 m 1,11,-1
 370 619 l 1,12,-1
 102 232 l 1,13,-1
 370 232 l 1,11,-1
EndSplineSet
Validated: 1
Substitution2: "'sups' Superscript lookup 24 subtable" uni2074
Substitution2: "'tnum' Tabular Numbers lookup 14 subtable" uniF63C
Substitution2: "'sinf' Scientific Inferiors lookup 13 subtable" uni2084
Substitution2: "'subs' Subscript lookup 12 subtable" uni2084
Substitution2: "'dnom' Denominators lookup 10 subtable" four.denominator
Substitution2: "'numr' Numerators lookup 9 subtable" four.numerator
Substitution2: "'frac' Diagonal Fractions lookup 4 subtable" four.numerator
AlternateSubs2: "'aalt' Access All Alternates lookup 1 subtable" four.denominator four.numerator uni2084 uni2074
EndChar

StartChar: five
Encoding: 53 53 24
Width: 565
GlyphClass: 1
Flags: W
LayerCount: 2
Fore
SplineSet
285 -7 m 0,0,1
 198 -7 198 -7 136.5 36 c 128,-1,2
 75 79 75 79 55 162 c 1,3,-1
 129 162 l 1,4,5
 147 110 147 110 187 84.5 c 128,-1,6
 227 59 227 59 285 59 c 0,7,8
 357 59 357 59 400 103.5 c 128,-1,9
 443 148 443 148 443 227 c 0,10,11
 443 307 443 307 400 351 c 128,-1,12
 357 395 357 395 285 395 c 0,13,14
 234 395 234 395 198 372 c 128,-1,15
 162 349 162 349 144 320 c 1,16,-1
 75 320 l 1,17,-1
 105 700 l 1,18,-1
 470 700 l 1,19,-1
 470 636 l 1,20,-1
 169 636 l 1,21,-1
 150 404 l 1,22,23
 176 431 176 431 213 446 c 128,-1,24
 250 461 250 461 295 461 c 0,25,26
 343 461 343 461 383.5 444.5 c 128,-1,27
 424 428 424 428 453 397.5 c 128,-1,28
 482 367 482 367 498.5 323.5 c 128,-1,29
 515 280 515 280 515 227 c 256,30,31
 515 174 515 174 498.5 131 c 128,-1,32
 482 88 482 88 451.5 57 c 128,-1,33
 421 26 421 26 378.5 9.5 c 128,-1,34
 336 -7 336 -7 285 -7 c 0,0,1
EndSplineSet
Validated: 1
Substitution2: "'sups' Superscript lookup 24 subtable" uni2075
Substitution2: "'tnum' Tabular Numbers lookup 14 subtable" uniF63D
Substitution2: "'sinf' Scientific Inferiors lookup 13 subtable" uni2085
Substitution2: "'subs' Subscript lookup 12 subtable" uni2085
Substitution2: "'dnom' Denominators lookup 10 subtable" five.denominator
Substitution2: "'numr' Numerators lookup 9 subtable" five.numerator
Substitution2: "'frac' Diagonal Fractions lookup 4 subtable" five.numerator
AlternateSubs2: "'aalt' Access All Alternates lookup 1 subtable" five.denominator five.numerator uni2085 uni2075
EndChar

StartChar: six
Encoding: 54 54 25
Width: 595
GlyphClass: 1
Flags: W
LayerCount: 2
Fore
SplineSet
305 -7 m 0,0,1
 252 -7 252 -7 209.5 10.5 c 128,-1,2
 167 28 167 28 137 64 c 128,-1,3
 107 100 107 100 91 155.5 c 128,-1,4
 75 211 75 211 75 288 c 2,5,-1
 75 352 l 2,6,7
 75 449 75 449 92.5 516.5 c 128,-1,8
 110 584 110 584 141 626.5 c 128,-1,9
 172 669 172 669 215 688 c 128,-1,10
 258 707 258 707 310 707 c 0,11,12
 350 707 350 707 382.5 695 c 128,-1,13
 415 683 415 683 439.5 662.5 c 128,-1,14
 464 642 464 642 480 614 c 128,-1,15
 496 586 496 586 504 555 c 1,16,-1
 430 555 l 1,17,18
 415 592 415 592 386.5 616 c 128,-1,19
 358 640 358 640 310 640 c 0,20,21
 273 640 273 640 243 627.5 c 128,-1,22
 213 615 213 615 191.5 585.5 c 128,-1,23
 170 556 170 556 157.5 507 c 128,-1,24
 145 458 145 458 143 385 c 1,25,26
 170 424 170 424 213 445.5 c 128,-1,27
 256 467 256 467 310 467 c 0,28,29
 356 467 356 467 395 450.5 c 128,-1,30
 434 434 434 434 463 404 c 128,-1,31
 492 374 492 374 508.5 332.5 c 128,-1,32
 525 291 525 291 525 242 c 2,33,-1
 525 218 l 2,34,35
 525 168 525 168 508.5 127 c 128,-1,36
 492 86 492 86 462.5 56 c 128,-1,37
 433 26 433 26 393 9.5 c 128,-1,38
 353 -7 353 -7 305 -7 c 0,0,1
147 228 m 2,39,40
 147 147 147 147 189.5 103 c 128,-1,41
 232 59 232 59 305 59 c 0,42,43
 371 59 371 59 412 101.5 c 128,-1,44
 453 144 453 144 453 218 c 2,45,-1
 453 242 l 2,46,47
 453 316 453 316 412 358.5 c 128,-1,48
 371 401 371 401 305 401 c 0,49,50
 232 401 232 401 189.5 359.5 c 128,-1,51
 147 318 147 318 147 252 c 2,52,-1
 147 228 l 2,39,40
EndSplineSet
Validated: 1
Substitution2: "'sups' Superscript lookup 24 subtable" uni2076
Substitution2: "'tnum' Tabular Numbers lookup 14 subtable" uniF63E
Substitution2: "'sinf' Scientific Inferiors lookup 13 subtable" uni2086
Substitution2: "'subs' Subscript lookup 12 subtable" uni2086
Substitution2: "'dnom' Denominators lookup 10 subtable" six.denominator
Substitution2: "'numr' Numerators lookup 9 subtable" six.numerator
Substitution2: "'frac' Diagonal Fractions lookup 4 subtable" six.numerator
AlternateSubs2: "'aalt' Access All Alternates lookup 1 subtable" six.denominator six.numerator uni2086 uni2076
EndChar

StartChar: seven
Encoding: 55 55 26
Width: 480
GlyphClass: 1
Flags: W
LayerCount: 2
Fore
SplineSet
388 636 m 1,0,-1
 20 636 l 1,1,-1
 20 700 l 1,2,-1
 460 700 l 1,3,-1
 460 636 l 1,4,-1
 199 0 l 1,5,-1
 125 0 l 1,6,-1
 388 636 l 1,0,-1
EndSplineSet
Validated: 1
Substitution2: "'sups' Superscript lookup 24 subtable" uni2077
Substitution2: "'tnum' Tabular Numbers lookup 14 subtable" uniF63F
Substitution2: "'sinf' Scientific Inferiors lookup 13 subtable" uni2087
Substitution2: "'subs' Subscript lookup 12 subtable" uni2087
Substitution2: "'dnom' Denominators lookup 10 subtable" seven.denominator
Substitution2: "'numr' Numerators lookup 9 subtable" seven.numerator
Substitution2: "'frac' Diagonal Fractions lookup 4 subtable" seven.numerator
AlternateSubs2: "'aalt' Access All Alternates lookup 1 subtable" seven.denominator seven.numerator uni2087 uni2077
EndChar

StartChar: eight
Encoding: 56 56 27
Width: 590
GlyphClass: 1
Flags: W
LayerCount: 2
Fore
SplineSet
295 -7 m 0,0,1
 240 -7 240 -7 197 7.5 c 128,-1,2
 154 22 154 22 125 48.5 c 128,-1,3
 96 75 96 75 80.5 111 c 128,-1,4
 65 147 65 147 65 190 c 0,5,6
 65 253 65 253 98.5 297.5 c 128,-1,7
 132 342 132 342 189 366 c 1,8,9
 141 387 141 387 113 426 c 128,-1,10
 85 465 85 465 85 522 c 0,11,12
 85 561 85 561 100.5 594.5 c 128,-1,13
 116 628 116 628 143.5 653 c 128,-1,14
 171 678 171 678 209.5 692.5 c 128,-1,15
 248 707 248 707 295 707 c 0,16,17
 343 707 343 707 381.5 693 c 128,-1,18
 420 679 420 679 447.5 654 c 128,-1,19
 475 629 475 629 490 595.5 c 128,-1,20
 505 562 505 562 505 522 c 0,21,22
 505 466 505 466 476.5 427 c 128,-1,23
 448 388 448 388 400 366 c 1,24,25
 457 343 457 343 491 298 c 128,-1,26
 525 253 525 253 525 190 c 0,27,28
 525 148 525 148 509.5 112 c 128,-1,29
 494 76 494 76 464 49.5 c 128,-1,30
 434 23 434 23 391.5 8 c 128,-1,31
 349 -7 349 -7 295 -7 c 0,0,1
295 394 m 1,32,33
 321 397 321 397 346 405.5 c 128,-1,34
 371 414 371 414 390.5 429.5 c 128,-1,35
 410 445 410 445 421.5 468 c 128,-1,36
 433 491 433 491 433 522 c 0,37,38
 433 545 433 545 423.5 566.5 c 128,-1,39
 414 588 414 588 396 604.5 c 128,-1,40
 378 621 378 621 352.5 631 c 128,-1,41
 327 641 327 641 295 641 c 256,42,43
 263 641 263 641 237.5 631 c 128,-1,44
 212 621 212 621 194 604.5 c 128,-1,45
 176 588 176 588 166.5 566.5 c 128,-1,46
 157 545 157 545 157 522 c 0,47,48
 157 492 157 492 169 469.5 c 128,-1,49
 181 447 181 447 200.5 431 c 128,-1,50
 220 415 220 415 245 406 c 128,-1,51
 270 397 270 397 295 394 c 1,32,33
295 59 m 256,52,53
 332 59 332 59 361.5 69.5 c 128,-1,54
 391 80 391 80 411 98 c 128,-1,55
 431 116 431 116 442 139.5 c 128,-1,56
 453 163 453 163 453 190 c 0,57,58
 453 222 453 222 440.5 248 c 128,-1,59
 428 274 428 274 406.5 292.5 c 128,-1,60
 385 311 385 311 356 322 c 128,-1,61
 327 333 327 333 295 336 c 1,62,63
 262 333 262 333 233 322.5 c 128,-1,64
 204 312 204 312 182.5 293.5 c 128,-1,65
 161 275 161 275 149 249 c 128,-1,66
 137 223 137 223 137 190 c 0,67,68
 137 163 137 163 148 139.5 c 128,-1,69
 159 116 159 116 179 98 c 128,-1,70
 199 80 199 80 228.5 69.5 c 128,-1,71
 258 59 258 59 295 59 c 256,52,53
EndSplineSet
Validated: 1
Substitution2: "'sups' Superscript lookup 24 subtable" uni2078
Substitution2: "'tnum' Tabular Numbers lookup 14 subtable" uniF640
Substitution2: "'sinf' Scientific Inferiors lookup 13 subtable" uni2088
Substitution2: "'subs' Subscript lookup 12 subtable" uni2088
Substitution2: "'dnom' Denominators lookup 10 subtable" eight.denominator
Substitution2: "'numr' Numerators lookup 9 subtable" eight.numerator
Substitution2: "'frac' Diagonal Fractions lookup 4 subtable" eight.numerator
AlternateSubs2: "'aalt' Access All Alternates lookup 1 subtable" eight.denominator eight.numerator uni2088 uni2078
EndChar

StartChar: nine
Encoding: 57 57 28
Width: 595
GlyphClass: 1
Flags: W
LayerCount: 2
Fore
SplineSet
290 -7 m 0,0,1
 248 -7 248 -7 214.5 5 c 128,-1,2
 181 17 181 17 156 37.5 c 128,-1,3
 131 58 131 58 114.5 85.5 c 128,-1,4
 98 113 98 113 91 145 c 1,5,-1
 165 145 l 1,6,7
 180 108 180 108 209 84 c 128,-1,8
 238 60 238 60 290 60 c 0,9,10
 325 60 325 60 354 72.5 c 128,-1,11
 383 85 383 85 404 114.5 c 128,-1,12
 425 144 425 144 437.5 193 c 128,-1,13
 450 242 450 242 452 315 c 1,14,15
 425 276 425 276 382 254.5 c 128,-1,16
 339 233 339 233 285 233 c 0,17,18
 239 233 239 233 200 249.5 c 128,-1,19
 161 266 161 266 132 296 c 128,-1,20
 103 326 103 326 86.5 367 c 128,-1,21
 70 408 70 408 70 458 c 2,22,-1
 70 482 l 2,23,24
 70 531 70 531 86.5 572.5 c 128,-1,25
 103 614 103 614 132.5 644 c 128,-1,26
 162 674 162 674 202 690.5 c 128,-1,27
 242 707 242 707 290 707 c 0,28,29
 342 707 342 707 384.5 689.5 c 128,-1,30
 427 672 427 672 457 636 c 128,-1,31
 487 600 487 600 503.5 544.5 c 128,-1,32
 520 489 520 489 520 412 c 2,33,-1
 520 348 l 2,34,35
 520 251 520 251 503 183.5 c 128,-1,36
 486 116 486 116 455 73.5 c 128,-1,37
 424 31 424 31 382 12 c 128,-1,38
 340 -7 340 -7 290 -7 c 0,0,1
142 458 m 2,39,40
 142 384 142 384 183 341.5 c 128,-1,41
 224 299 224 299 290 299 c 0,42,43
 363 299 363 299 405.5 340.5 c 128,-1,44
 448 382 448 382 448 448 c 2,45,-1
 448 472 l 2,46,47
 448 553 448 553 405.5 597 c 128,-1,48
 363 641 363 641 290 641 c 0,49,50
 224 641 224 641 183 598.5 c 128,-1,51
 142 556 142 556 142 482 c 2,52,-1
 142 458 l 2,39,40
EndSplineSet
Validated: 1
Substitution2: "'sups' Superscript lookup 24 subtable" uni2079
Substitution2: "'tnum' Tabular Numbers lookup 14 subtable" uniF641
Substitution2: "'sinf' Scientific Inferiors lookup 13 subtable" uni2089
Substitution2: "'subs' Subscript lookup 12 subtable" uni2089
Substitution2: "'dnom' Denominators lookup 10 subtable" nine.denominator
Substitution2: "'numr' Numerators lookup 9 subtable" nine.numerator
Substitution2: "'frac' Diagonal Fractions lookup 4 subtable" nine.numerator
AlternateSubs2: "'aalt' Access All Alternates lookup 1 subtable" nine.denominator nine.numerator uni2089 uni2079
EndChar

StartChar: colon
Encoding: 58 58 29
Width: 300
GlyphClass: 1
Flags: W
LayerCount: 2
Fore
SplineSet
150 397 m 256,0,1
 126 397 126 397 110.5 412.5 c 128,-1,2
 95 428 95 428 95 452 c 256,3,4
 95 476 95 476 110.5 491.5 c 128,-1,5
 126 507 126 507 150 507 c 256,6,7
 174 507 174 507 189.5 491.5 c 128,-1,8
 205 476 205 476 205 452 c 256,9,10
 205 428 205 428 189.5 412.5 c 128,-1,11
 174 397 174 397 150 397 c 256,0,1
150 -7 m 256,12,13
 126 -7 126 -7 110.5 8.5 c 128,-1,14
 95 24 95 24 95 48 c 256,15,16
 95 72 95 72 110.5 87.5 c 128,-1,17
 126 103 126 103 150 103 c 256,18,19
 174 103 174 103 189.5 87.5 c 128,-1,20
 205 72 205 72 205 48 c 256,21,22
 205 24 205 24 189.5 8.5 c 128,-1,23
 174 -7 174 -7 150 -7 c 256,12,13
EndSplineSet
Validated: 1
Substitution2: "'case' Case-Sensitive Forms lookup 16 subtable" colon.case
AlternateSubs2: "'aalt' Access All Alternates lookup 1 subtable" colon.case colon.alt
EndChar

StartChar: semicolon
Encoding: 59 59 30
Width: 300
GlyphClass: 1
Flags: W
LayerCount: 2
Fore
SplineSet
116 85 m 1,0,-1
 196 85 l 1,1,-1
 126 -150 l 1,2,-1
 66 -150 l 1,3,-1
 116 85 l 1,0,-1
150 397 m 256,4,5
 126 397 126 397 110.5 412.5 c 128,-1,6
 95 428 95 428 95 452 c 256,7,8
 95 476 95 476 110.5 491.5 c 128,-1,9
 126 507 126 507 150 507 c 256,10,11
 174 507 174 507 189.5 491.5 c 128,-1,12
 205 476 205 476 205 452 c 256,13,14
 205 428 205 428 189.5 412.5 c 128,-1,15
 174 397 174 397 150 397 c 256,4,5
EndSplineSet
Validated: 1
Substitution2: "'case' Case-Sensitive Forms lookup 16 subtable" semicoon.case
Substitution2: "'aalt' Access All Alternates lookup 0 subtable" semicoon.case
EndChar

StartChar: less
Encoding: 60 60 31
Width: 590
GlyphClass: 1
Flags: W
LayerCount: 2
Fore
SplineSet
75 323 m 1,0,-1
 75 397 l 1,1,-1
 515 600 l 1,2,-1
 515 528 l 1,3,-1
 151 360 l 1,4,-1
 515 194 l 1,5,-1
 515 120 l 1,6,-1
 75 323 l 1,0,-1
EndSplineSet
Validated: 1
Substitution2: "'ss08' Style Set 8 lookup 39 subtable" less.ss08
Substitution2: "'aalt' Access All Alternates lookup 0 subtable" less.ss08
EndChar

StartChar: equal
Encoding: 61 61 32
Width: 590
GlyphClass: 1
Flags: W
LayerCount: 2
Fore
SplineSet
75 492 m 1,0,-1
 515 492 l 1,1,-1
 515 428 l 1,2,-1
 75 428 l 1,3,-1
 75 492 l 1,0,-1
75 292 m 1,4,-1
 515 292 l 1,5,-1
 515 228 l 1,6,-1
 75 228 l 1,7,-1
 75 292 l 1,4,-1
EndSplineSet
Validated: 1
Substitution2: "'ss08' Style Set 8 lookup 39 subtable" equal.ss08
Substitution2: "'sups' Superscript lookup 24 subtable" uni207C
Substitution2: "'subs' Subscript lookup 12 subtable" uni208C
AlternateSubs2: "'aalt' Access All Alternates lookup 1 subtable" equal.ss08 uni208C uni207C
EndChar

StartChar: greater
Encoding: 62 62 33
Width: 590
GlyphClass: 1
Flags: W
LayerCount: 2
Fore
SplineSet
515 397 m 1,0,-1
 515 323 l 1,1,-1
 75 120 l 1,2,-1
 75 192 l 1,3,-1
 439 360 l 1,4,-1
 75 526 l 1,5,-1
 75 600 l 1,6,-1
 515 397 l 1,0,-1
EndSplineSet
Validated: 1
Substitution2: "'ss08' Style Set 8 lookup 39 subtable" greater.ss08
Substitution2: "'aalt' Access All Alternates lookup 0 subtable" greater.ss08
EndChar

StartChar: question
Encoding: 63 63 34
Width: 500
GlyphClass: 1
Flags: W
LayerCount: 2
Fore
SplineSet
210 190 m 1,0,1
 210 246 210 246 223 282 c 128,-1,2
 236 318 236 318 256 342.5 c 128,-1,3
 276 367 276 367 299 384 c 128,-1,4
 322 401 322 401 342 419 c 128,-1,5
 362 437 362 437 375 460 c 128,-1,6
 388 483 388 483 388 520 c 0,7,8
 388 574 388 574 351.5 607.5 c 128,-1,9
 315 641 315 641 245 641 c 0,10,11
 179 641 179 641 142.5 606 c 128,-1,12
 106 571 106 571 102 510 c 1,13,-1
 30 510 l 1,14,15
 34 601 34 601 89.5 654 c 128,-1,16
 145 707 145 707 245 707 c 0,17,18
 297 707 297 707 337 693.5 c 128,-1,19
 377 680 377 680 404.5 655 c 128,-1,20
 432 630 432 630 446 596 c 128,-1,21
 460 562 460 562 460 520 c 0,22,23
 460 474 460 474 446.5 444.5 c 128,-1,24
 433 415 433 415 413 394 c 128,-1,25
 393 373 393 373 370 356 c 128,-1,26
 347 339 347 339 327 317.5 c 128,-1,27
 307 296 307 296 293.5 266 c 128,-1,28
 280 236 280 236 280 190 c 1,29,-1
 210 190 l 1,0,1
245 -7 m 256,30,31
 221 -7 221 -7 205.5 9 c 128,-1,32
 190 25 190 25 190 48 c 256,33,34
 190 71 190 71 205.5 87 c 128,-1,35
 221 103 221 103 245 103 c 256,36,37
 269 103 269 103 284.5 87 c 128,-1,38
 300 71 300 71 300 48 c 256,39,40
 300 25 300 25 284.5 9 c 128,-1,41
 269 -7 269 -7 245 -7 c 256,30,31
EndSplineSet
Validated: 1
EndChar

StartChar: at
Encoding: 64 64 35
Width: 1050
GlyphClass: 1
Flags: W
LayerCount: 2
Fore
SplineSet
456 18 m 0,0,1
 386 18 386 18 342.5 63 c 128,-1,2
 299 108 299 108 299 187 c 0,3,4
 299 203 299 203 302.5 223.5 c 128,-1,5
 306 244 306 244 311 272 c 0,6,7
 319 318 319 318 338.5 356.5 c 128,-1,8
 358 395 358 395 387 423 c 128,-1,9
 416 451 416 451 453 466.5 c 128,-1,10
 490 482 490 482 532 482 c 0,11,12
 577 482 577 482 611.5 465 c 128,-1,13
 646 448 646 448 666 412 c 1,14,-1
 677 475 l 1,15,-1
 743 475 l 1,16,-1
 690 173 l 2,17,18
 687 159 687 159 687 148 c 0,19,20
 687 114 687 114 704 97 c 128,-1,21
 721 80 721 80 753 80 c 0,22,23
 784 80 784 80 813.5 95 c 128,-1,24
 843 110 843 110 866 138 c 128,-1,25
 889 166 889 166 903 207 c 128,-1,26
 917 248 917 248 917 300 c 0,27,28
 917 372 917 372 889.5 435 c 128,-1,29
 862 498 862 498 811 544.5 c 128,-1,30
 760 591 760 591 687.5 618 c 128,-1,31
 615 645 615 645 525 645 c 0,32,33
 442 645 442 645 370.5 614.5 c 128,-1,34
 299 584 299 584 246 531 c 128,-1,35
 193 478 193 478 163 406 c 128,-1,36
 133 334 133 334 133 250 c 256,37,38
 133 166 133 166 163 94 c 128,-1,39
 193 22 193 22 245.5 -31.5 c 128,-1,40
 298 -85 298 -85 370 -115 c 128,-1,41
 442 -145 442 -145 525 -145 c 0,42,43
 657 -145 657 -145 755 -105 c 1,44,-1
 755 -171 l 1,45,46
 716 -187 716 -187 654 -197 c 128,-1,47
 592 -207 592 -207 525 -207 c 0,48,49
 429 -207 429 -207 345 -171.5 c 128,-1,50
 261 -136 261 -136 198.5 -74 c 128,-1,51
 136 -12 136 -12 100.5 71.5 c 128,-1,52
 65 155 65 155 65 250 c 256,53,54
 65 345 65 345 101 428 c 128,-1,55
 137 511 137 511 199 573 c 128,-1,56
 261 635 261 635 345 671 c 128,-1,57
 429 707 429 707 525 707 c 0,58,59
 628 707 628 707 713 675 c 128,-1,60
 798 643 798 643 858.5 587.5 c 128,-1,61
 919 532 919 532 952 458 c 128,-1,62
 985 384 985 384 985 300 c 0,63,64
 985 232 985 232 967 179.5 c 128,-1,65
 949 127 949 127 917.5 91 c 128,-1,66
 886 55 886 55 843.5 36.5 c 128,-1,67
 801 18 801 18 753 18 c 0,68,69
 699 18 699 18 666.5 41 c 128,-1,70
 634 64 634 64 624 104 c 1,71,72
 595 63 595 63 552 40.5 c 128,-1,73
 509 18 509 18 456 18 c 0,0,1
476 80 m 0,74,75
 537 80 537 80 578 120 c 128,-1,76
 619 160 619 160 632 228 c 0,77,78
 638 260 638 260 641.5 280 c 128,-1,79
 645 300 645 300 645 313 c 0,80,81
 645 362 645 362 614 391 c 128,-1,82
 583 420 583 420 532 420 c 0,83,84
 472 420 472 420 431 380 c 128,-1,85
 390 340 390 340 378 272 c 0,86,87
 372 238 372 238 369.5 219 c 128,-1,88
 367 200 367 200 367 187 c 0,89,90
 367 137 367 137 394.5 108.5 c 128,-1,91
 422 80 422 80 476 80 c 0,74,75
EndSplineSet
Validated: 1
Substitution2: "'case' Case-Sensitive Forms lookup 16 subtable" at.case
Substitution2: "'aalt' Access All Alternates lookup 0 subtable" at.case
EndChar

StartChar: A
Encoding: 65 65 36
Width: 660
GlyphClass: 2
Flags: W
LayerCount: 2
Fore
SplineSet
290 700 m 1,0,-1
 370 700 l 1,1,-1
 630 0 l 1,2,-1
 554 0 l 1,3,-1
 481 203 l 1,4,-1
 175 203 l 1,5,-1
 102 0 l 1,6,-1
 30 0 l 1,7,-1
 290 700 l 1,0,-1
458 267 m 1,8,-1
 330 625 l 1,9,-1
 328 625 l 1,10,-1
 198 267 l 1,11,-1
 458 267 l 1,8,-1
EndSplineSet
Validated: 1
Position2: "'cpsp' Capital Spacing lookup 0 subtable" dx=5 dy=0 dh=10 dv=0
EndChar

StartChar: B
Encoding: 66 66 37
Width: 620
GlyphClass: 1
Flags: W
LayerCount: 2
Fore
SplineSet
90 700 m 1,0,-1
 310 700 l 2,1,2
 430 700 430 700 485 650.5 c 128,-1,3
 540 601 540 601 540 514 c 0,4,5
 540 462 540 462 515.5 424 c 128,-1,6
 491 386 491 386 445 365 c 1,7,-1
 445 363 l 1,8,9
 502 343 502 343 531 300.5 c 128,-1,10
 560 258 560 258 560 196 c 0,11,12
 560 101 560 101 505 50.5 c 128,-1,13
 450 0 450 0 330 0 c 2,14,-1
 90 0 l 1,15,-1
 90 700 l 1,0,-1
160 636 m 1,16,-1
 160 392 l 1,17,-1
 305 392 l 2,18,19
 393 392 393 392 430.5 424.5 c 128,-1,20
 468 457 468 457 468 514 c 256,21,22
 468 571 468 571 430.5 603.5 c 128,-1,23
 393 636 393 636 305 636 c 2,24,-1
 160 636 l 1,16,-1
160 328 m 1,25,-1
 160 64 l 1,26,-1
 325 64 l 2,27,28
 413 64 413 64 450.5 97.5 c 128,-1,29
 488 131 488 131 488 196 c 256,30,31
 488 261 488 261 450.5 294.5 c 128,-1,32
 413 328 413 328 325 328 c 2,33,-1
 160 328 l 1,25,-1
EndSplineSet
Validated: 1
Position2: "'cpsp' Capital Spacing lookup 0 subtable" dx=5 dy=0 dh=10 dv=0
EndChar

StartChar: C
Encoding: 67 67 38
Width: 670
GlyphClass: 1
Flags: W
LayerCount: 2
Fore
SplineSet
350 -7 m 0,0,1
 287 -7 287 -7 235 15 c 128,-1,2
 183 37 183 37 145 79.5 c 128,-1,3
 107 122 107 122 86 184.5 c 128,-1,4
 65 247 65 247 65 328 c 2,5,-1
 65 382 l 2,6,7
 65 459 65 459 86 519.5 c 128,-1,8
 107 580 107 580 145 621.5 c 128,-1,9
 183 663 183 663 235.5 685 c 128,-1,10
 288 707 288 707 350 707 c 0,11,12
 407 707 407 707 452.5 690.5 c 128,-1,13
 498 674 498 674 532 646 c 128,-1,14
 566 618 566 618 586.5 580.5 c 128,-1,15
 607 543 607 543 615 500 c 1,16,-1
 541 500 l 1,17,18
 533 530 533 530 517.5 556 c 128,-1,19
 502 582 502 582 478 601.5 c 128,-1,20
 454 621 454 621 422 632 c 128,-1,21
 390 643 390 643 350 643 c 0,22,23
 304 643 304 643 265 626 c 128,-1,24
 226 609 226 609 197.5 576 c 128,-1,25
 169 543 169 543 153 494.5 c 128,-1,26
 137 446 137 446 137 382 c 2,27,-1
 137 328 l 2,28,29
 137 261 137 261 153.5 210 c 128,-1,30
 170 159 170 159 198.5 125 c 128,-1,31
 227 91 227 91 266 74 c 128,-1,32
 305 57 305 57 350 57 c 0,33,34
 431 57 431 57 478.5 100 c 128,-1,35
 526 143 526 143 541 210 c 1,36,-1
 615 210 l 1,37,38
 607 163 607 163 586.5 123.5 c 128,-1,39
 566 84 566 84 532 55 c 128,-1,40
 498 26 498 26 452.5 9.5 c 128,-1,41
 407 -7 407 -7 350 -7 c 0,0,1
EndSplineSet
Validated: 1
Position2: "'cpsp' Capital Spacing lookup 0 subtable" dx=5 dy=0 dh=10 dv=0
EndChar

StartChar: D
Encoding: 68 68 39
Width: 680
GlyphClass: 1
Flags: W
LayerCount: 2
Fore
SplineSet
90 700 m 1,0,-1
 305 700 l 2,1,2
 455 700 455 700 535 619 c 128,-1,3
 615 538 615 538 615 382 c 2,4,-1
 615 328 l 2,5,6
 615 165 615 165 534.5 82.5 c 128,-1,7
 454 0 454 0 305 0 c 2,8,-1
 90 0 l 1,9,-1
 90 700 l 1,0,-1
300 64 m 2,10,11
 418 64 418 64 480.5 129 c 128,-1,12
 543 194 543 194 543 328 c 2,13,-1
 543 382 l 2,14,15
 543 508 543 508 480.5 572 c 128,-1,16
 418 636 418 636 300 636 c 2,17,-1
 160 636 l 1,18,-1
 160 64 l 1,19,-1
 300 64 l 2,10,11
EndSplineSet
Validated: 1
Position2: "'cpsp' Capital Spacing lookup 0 subtable" dx=5 dy=0 dh=10 dv=0
EndChar

StartChar: E
Encoding: 69 69 40
Width: 560
GlyphClass: 1
Flags: W
LayerCount: 2
Fore
SplineSet
90 700 m 1,0,-1
 510 700 l 1,1,-1
 510 636 l 1,2,-1
 160 636 l 1,3,-1
 160 392 l 1,4,-1
 450 392 l 1,5,-1
 450 328 l 1,6,-1
 160 328 l 1,7,-1
 160 64 l 1,8,-1
 510 64 l 1,9,-1
 510 0 l 1,10,-1
 90 0 l 1,11,-1
 90 700 l 1,0,-1
EndSplineSet
Validated: 1
Substitution2: "'aalt' Access All Alternates lookup 0 subtable" E.alt01
Position2: "'cpsp' Capital Spacing lookup 0 subtable" dx=5 dy=0 dh=10 dv=0
EndChar

StartChar: F
Encoding: 70 70 41
Width: 540
GlyphClass: 1
Flags: W
LayerCount: 2
Fore
SplineSet
90 700 m 1,0,-1
 510 700 l 1,1,-1
 510 636 l 1,2,-1
 160 636 l 1,3,-1
 160 392 l 1,4,-1
 450 392 l 1,5,-1
 450 328 l 1,6,-1
 160 328 l 1,7,-1
 160 0 l 1,8,-1
 90 0 l 1,9,-1
 90 700 l 1,0,-1
EndSplineSet
Validated: 1
Position2: "'cpsp' Capital Spacing lookup 0 subtable" dx=5 dy=0 dh=10 dv=0
EndChar

StartChar: G
Encoding: 71 71 42
Width: 690
GlyphClass: 1
Flags: W
LayerCount: 2
Fore
SplineSet
350 -7 m 256,0,1
 287 -7 287 -7 235 15 c 128,-1,2
 183 37 183 37 145 79.5 c 128,-1,3
 107 122 107 122 86 184.5 c 128,-1,4
 65 247 65 247 65 328 c 2,5,-1
 65 382 l 2,6,7
 65 459 65 459 86 519.5 c 128,-1,8
 107 580 107 580 145 621.5 c 128,-1,9
 183 663 183 663 235.5 685 c 128,-1,10
 288 707 288 707 350 707 c 0,11,12
 408 707 408 707 454.5 690.5 c 128,-1,13
 501 674 501 674 535 646 c 128,-1,14
 569 618 569 618 590 580 c 128,-1,15
 611 542 611 542 619 500 c 1,16,-1
 545 500 l 1,17,18
 537 530 537 530 521.5 556 c 128,-1,19
 506 582 506 582 481.5 601.5 c 128,-1,20
 457 621 457 621 424.5 632 c 128,-1,21
 392 643 392 643 350 643 c 0,22,23
 304 643 304 643 265 626 c 128,-1,24
 226 609 226 609 197.5 576 c 128,-1,25
 169 543 169 543 153 494 c 128,-1,26
 137 445 137 445 137 382 c 2,27,-1
 137 328 l 2,28,29
 137 261 137 261 153.5 210.5 c 128,-1,30
 170 160 170 160 198.5 126 c 128,-1,31
 227 92 227 92 266 74.5 c 128,-1,32
 305 57 305 57 350 57 c 0,33,34
 398 57 398 57 436 70 c 128,-1,35
 474 83 474 83 500.5 111 c 128,-1,36
 527 139 527 139 542 183 c 128,-1,37
 557 227 557 227 560 289 c 1,38,-1
 350 289 l 1,39,-1
 350 353 l 1,40,-1
 625 353 l 1,41,-1
 625 330 l 2,42,43
 625 244 625 244 605.5 180.5 c 128,-1,44
 586 117 586 117 550.5 75.5 c 128,-1,45
 515 34 515 34 464 13.5 c 128,-1,46
 413 -7 413 -7 350 -7 c 256,0,1
EndSplineSet
Validated: 1
Position2: "'cpsp' Capital Spacing lookup 0 subtable" dx=5 dy=0 dh=10 dv=0
EndChar

StartChar: H
Encoding: 72 72 43
Width: 710
GlyphClass: 1
Flags: W
LayerCount: 2
Fore
SplineSet
90 700 m 1,0,-1
 160 700 l 1,1,-1
 160 392 l 1,2,-1
 550 392 l 1,3,-1
 550 700 l 1,4,-1
 620 700 l 1,5,-1
 620 0 l 1,6,-1
 550 0 l 1,7,-1
 550 328 l 1,8,-1
 160 328 l 1,9,-1
 160 0 l 1,10,-1
 90 0 l 1,11,-1
 90 700 l 1,0,-1
EndSplineSet
Validated: 1
Position2: "'cpsp' Capital Spacing lookup 0 subtable" dx=5 dy=0 dh=10 dv=0
EndChar

StartChar: I
Encoding: 73 73 44
Width: 270
GlyphClass: 1
Flags: W
LayerCount: 2
Fore
SplineSet
100 700 m 1,0,-1
 170 700 l 1,1,-1
 170 0 l 1,2,-1
 100 0 l 1,3,-1
 100 700 l 1,0,-1
EndSplineSet
Validated: 1
Substitution2: "'ss03' Style Set 3 lookup 34 subtable" I.ss03
Substitution2: "'aalt' Access All Alternates lookup 0 subtable" I.ss03
Position2: "'cpsp' Capital Spacing lookup 0 subtable" dx=5 dy=0 dh=10 dv=0
EndChar

StartChar: J
Encoding: 74 74 45
Width: 535
GlyphClass: 1
Flags: W
LayerCount: 2
Fore
SplineSet
240 -7 m 0,0,1
 148 -7 148 -7 93 49 c 128,-1,2
 38 105 38 105 30 210 c 1,3,-1
 100 210 l 1,4,5
 108 130 108 130 142.5 93.5 c 128,-1,6
 177 57 177 57 240 57 c 0,7,8
 292 57 292 57 320 78.5 c 128,-1,9
 348 100 348 100 361.5 130 c 128,-1,10
 375 160 375 160 377.5 193 c 128,-1,11
 380 226 380 226 380 250 c 2,12,-1
 380 700 l 1,13,-1
 450 700 l 1,14,-1
 450 245 l 2,15,16
 450 232 450 232 449 208 c 128,-1,17
 448 184 448 184 442 156 c 128,-1,18
 436 128 436 128 423 99 c 128,-1,19
 410 70 410 70 387 46.5 c 128,-1,20
 364 23 364 23 328 8 c 128,-1,21
 292 -7 292 -7 240 -7 c 0,0,1
EndSplineSet
Validated: 1
Position2: "'cpsp' Capital Spacing lookup 0 subtable" dx=5 dy=0 dh=10 dv=0
EndChar

StartChar: K
Encoding: 75 75 46
Width: 635
GlyphClass: 1
Flags: W
LayerCount: 2
Fore
SplineSet
90 700 m 1,0,-1
 160 700 l 1,1,-1
 160 310 l 1,2,-1
 496 700 l 1,3,-1
 580 700 l 1,4,-1
 314 390 l 1,5,-1
 600 0 l 1,6,-1
 514 0 l 1,7,-1
 264 340 l 1,8,-1
 160 221 l 1,9,-1
 160 0 l 1,10,-1
 90 0 l 1,11,-1
 90 700 l 1,0,-1
EndSplineSet
Validated: 1
Substitution2: "'ss04' Style Set 4 lookup 35 subtable" K.ss04
Substitution2: "'aalt' Access All Alternates lookup 0 subtable" K.ss04
Position2: "'cpsp' Capital Spacing lookup 0 subtable" dx=5 dy=0 dh=10 dv=0
EndChar

StartChar: L
Encoding: 76 76 47
Width: 515
GlyphClass: 1
Flags: W
LayerCount: 2
Fore
SplineSet
90 700 m 1,0,-1
 160 700 l 1,1,-1
 160 64 l 1,2,-1
 490 64 l 1,3,-1
 490 0 l 1,4,-1
 90 0 l 1,5,-1
 90 700 l 1,0,-1
EndSplineSet
Validated: 1
Position2: "'cpsp' Capital Spacing lookup 0 subtable" dx=5 dy=0 dh=10 dv=0
EndChar

StartChar: M
Encoding: 77 77 48
Width: 810
GlyphClass: 1
Flags: W
LayerCount: 2
Fore
SplineSet
90 700 m 1,0,-1
 194 700 l 1,1,-1
 406 282 l 1,2,-1
 408 282 l 1,3,-1
 620 700 l 1,4,-1
 720 700 l 1,5,-1
 720 0 l 1,6,-1
 650 0 l 1,7,-1
 650 615 l 1,8,-1
 648 615 l 1,9,-1
 440 205 l 1,10,-1
 370 205 l 1,11,-1
 162 615 l 1,12,-1
 160 615 l 1,13,-1
 160 0 l 1,14,-1
 90 0 l 1,15,-1
 90 700 l 1,0,-1
EndSplineSet
Validated: 1
Position2: "'cpsp' Capital Spacing lookup 0 subtable" dx=5 dy=0 dh=10 dv=0
EndChar

StartChar: N
Encoding: 78 78 49
Width: 710
GlyphClass: 1
Flags: W
LayerCount: 2
Fore
SplineSet
90 700 m 1,0,-1
 194 700 l 1,1,-1
 548 90 l 1,2,-1
 550 90 l 1,3,-1
 550 700 l 1,4,-1
 620 700 l 1,5,-1
 620 0 l 1,6,-1
 522 0 l 1,7,-1
 162 620 l 1,8,-1
 160 620 l 1,9,-1
 160 0 l 1,10,-1
 90 0 l 1,11,-1
 90 700 l 1,0,-1
EndSplineSet
Validated: 1
Position2: "'cpsp' Capital Spacing lookup 0 subtable" dx=5 dy=0 dh=10 dv=0
EndChar

StartChar: O
Encoding: 79 79 50
Width: 710
GlyphClass: 1
Flags: W
LayerCount: 2
Fore
SplineSet
355 -7 m 0,0,1
 290 -7 290 -7 237 15 c 128,-1,2
 184 37 184 37 145.5 79.5 c 128,-1,3
 107 122 107 122 86 184.5 c 128,-1,4
 65 247 65 247 65 328 c 2,5,-1
 65 382 l 2,6,7
 65 459 65 459 86.5 519.5 c 128,-1,8
 108 580 108 580 146 621.5 c 128,-1,9
 184 663 184 663 237.5 685 c 128,-1,10
 291 707 291 707 355 707 c 256,11,12
 419 707 419 707 472.5 685.5 c 128,-1,13
 526 664 526 664 564.5 622.5 c 128,-1,14
 603 581 603 581 624 520.5 c 128,-1,15
 645 460 645 460 645 382 c 2,16,-1
 645 328 l 2,17,18
 645 247 645 247 623.5 184.5 c 128,-1,19
 602 122 602 122 564 79.5 c 128,-1,20
 526 37 526 37 472.5 15 c 128,-1,21
 419 -7 419 -7 355 -7 c 0,0,1
355 57 m 0,22,23
 403 57 403 57 443 74 c 128,-1,24
 483 91 483 91 512 125 c 128,-1,25
 541 159 541 159 557 209.5 c 128,-1,26
 573 260 573 260 573 328 c 2,27,-1
 573 382 l 2,28,29
 573 445 573 445 556.5 493.5 c 128,-1,30
 540 542 540 542 511 575.5 c 128,-1,31
 482 609 482 609 442 626 c 128,-1,32
 402 643 402 643 355 643 c 0,33,34
 307 643 307 643 267 626 c 128,-1,35
 227 609 227 609 198 576 c 128,-1,36
 169 543 169 543 153 494.5 c 128,-1,37
 137 446 137 446 137 382 c 2,38,-1
 137 328 l 2,39,40
 137 261 137 261 153.5 210.5 c 128,-1,41
 170 160 170 160 199 126 c 128,-1,42
 228 92 228 92 268 74.5 c 128,-1,43
 308 57 308 57 355 57 c 0,22,23
EndSplineSet
Validated: 1
Position2: "'cpsp' Capital Spacing lookup 0 subtable" dx=5 dy=0 dh=10 dv=0
EndChar

StartChar: P
Encoding: 80 80 51
Width: 600
GlyphClass: 1
Flags: W
LayerCount: 2
Fore
SplineSet
90 700 m 1,0,-1
 315 700 l 2,1,2
 440 700 440 700 500 643 c 128,-1,3
 560 586 560 586 560 483 c 0,4,5
 560 381 560 381 499 323.5 c 128,-1,6
 438 266 438 266 315 266 c 2,7,-1
 160 266 l 1,8,-1
 160 0 l 1,9,-1
 90 0 l 1,10,-1
 90 700 l 1,0,-1
160 636 m 1,11,-1
 160 330 l 1,12,-1
 310 330 l 2,13,14
 405 330 405 330 446.5 368.5 c 128,-1,15
 488 407 488 407 488 483 c 0,16,17
 488 558 488 558 446 597 c 128,-1,18
 404 636 404 636 310 636 c 2,19,-1
 160 636 l 1,11,-1
EndSplineSet
Validated: 1
Position2: "'cpsp' Capital Spacing lookup 0 subtable" dx=5 dy=0 dh=10 dv=0
EndChar

StartChar: Q
Encoding: 81 81 52
Width: 710
GlyphClass: 1
Flags: W
LayerCount: 2
Fore
SplineSet
501 29 m 1,0,1
 438 -7 438 -7 355 -7 c 0,2,3
 290 -7 290 -7 237 15 c 128,-1,4
 184 37 184 37 145.5 79.5 c 128,-1,5
 107 122 107 122 86 184.5 c 128,-1,6
 65 247 65 247 65 328 c 2,7,-1
 65 382 l 2,8,9
 65 459 65 459 86.5 519.5 c 128,-1,10
 108 580 108 580 146 621.5 c 128,-1,11
 184 663 184 663 237.5 685 c 128,-1,12
 291 707 291 707 355 707 c 256,13,14
 419 707 419 707 472.5 685.5 c 128,-1,15
 526 664 526 664 564.5 622.5 c 128,-1,16
 603 581 603 581 624 520.5 c 128,-1,17
 645 460 645 460 645 382 c 2,18,-1
 645 328 l 2,19,20
 645 240 645 240 621 175.5 c 128,-1,21
 597 111 597 111 553 68 c 1,22,-1
 645 -50 l 1,23,-1
 563 -50 l 1,24,-1
 501 29 l 1,0,1
355 57 m 0,25,26
 415 57 415 57 459 82 c 1,27,-1
 355 215 l 1,28,-1
 437 215 l 1,29,-1
 510 123 l 1,30,31
 540 157 540 157 556.5 208 c 128,-1,32
 573 259 573 259 573 328 c 2,33,-1
 573 382 l 2,34,35
 573 445 573 445 556.5 493.5 c 128,-1,36
 540 542 540 542 511 575.5 c 128,-1,37
 482 609 482 609 442 626 c 128,-1,38
 402 643 402 643 355 643 c 0,39,40
 307 643 307 643 267 626 c 128,-1,41
 227 609 227 609 198 576 c 128,-1,42
 169 543 169 543 153 494.5 c 128,-1,43
 137 446 137 446 137 382 c 2,44,-1
 137 328 l 2,45,46
 137 261 137 261 153.5 210.5 c 128,-1,47
 170 160 170 160 199 126 c 128,-1,48
 228 92 228 92 268 74.5 c 128,-1,49
 308 57 308 57 355 57 c 0,25,26
EndSplineSet
Validated: 1
Position2: "'cpsp' Capital Spacing lookup 0 subtable" dx=5 dy=0 dh=10 dv=0
EndChar

StartChar: R
Encoding: 82 82 53
Width: 620
GlyphClass: 1
Flags: W
LayerCount: 2
Fore
SplineSet
90 700 m 1,0,-1
 315 700 l 2,1,2
 439 700 439 700 499.5 644 c 128,-1,3
 560 588 560 588 560 493 c 0,4,5
 560 421 560 421 525 371 c 128,-1,6
 490 321 490 321 420 300 c 1,7,-1
 580 0 l 1,8,-1
 500 0 l 1,9,-1
 350 287 l 1,10,11
 342 286 342 286 333 286 c 128,-1,12
 324 286 324 286 315 286 c 2,13,-1
 160 286 l 1,14,-1
 160 0 l 1,15,-1
 90 0 l 1,16,-1
 90 700 l 1,0,-1
310 350 m 2,17,18
 405 350 405 350 446.5 387 c 128,-1,19
 488 424 488 424 488 493 c 0,20,21
 488 560 488 560 446 598 c 128,-1,22
 404 636 404 636 310 636 c 2,23,-1
 160 636 l 1,24,-1
 160 350 l 1,25,-1
 310 350 l 2,17,18
EndSplineSet
Validated: 1
Position2: "'cpsp' Capital Spacing lookup 0 subtable" dx=5 dy=0 dh=10 dv=0
EndChar

StartChar: S
Encoding: 83 83 54
Width: 610
GlyphClass: 1
Flags: W
LayerCount: 2
Fore
SplineSet
315 -7 m 0,0,1
 193 -7 193 -7 130.5 51 c 128,-1,2
 68 109 68 109 60 210 c 1,3,-1
 134 210 l 1,4,5
 142 135 142 135 184.5 96 c 128,-1,6
 227 57 227 57 315 57 c 0,7,8
 401 57 401 57 439.5 91 c 128,-1,9
 478 125 478 125 478 183 c 0,10,11
 478 218 478 218 460.5 241 c 128,-1,12
 443 264 443 264 414.5 279.5 c 128,-1,13
 386 295 386 295 349 306 c 128,-1,14
 312 317 312 317 274 328 c 128,-1,15
 236 339 236 339 199 353 c 128,-1,16
 162 367 162 367 133.5 388.5 c 128,-1,17
 105 410 105 410 87.5 442 c 128,-1,18
 70 474 70 474 70 522 c 0,19,20
 70 561 70 561 85 595 c 128,-1,21
 100 629 100 629 129 654 c 128,-1,22
 158 679 158 679 201 693 c 128,-1,23
 244 707 244 707 300 707 c 0,24,25
 417 707 417 707 477 651.5 c 128,-1,26
 537 596 537 596 545 500 c 1,27,-1
 471 500 l 1,28,29
 462 572 462 572 423 607.5 c 128,-1,30
 384 643 384 643 300 643 c 0,31,32
 259 643 259 643 229 633 c 128,-1,33
 199 623 199 623 179.5 606.5 c 128,-1,34
 160 590 160 590 151 568 c 128,-1,35
 142 546 142 546 142 522 c 0,36,37
 142 474 142 474 172 448 c 128,-1,38
 202 422 202 422 247.5 406 c 128,-1,39
 293 390 293 390 346 377.5 c 128,-1,40
 399 365 399 365 444.5 343.5 c 128,-1,41
 490 322 490 322 520 285 c 128,-1,42
 550 248 550 248 550 183 c 0,43,44
 550 99 550 99 491.5 46 c 128,-1,45
 433 -7 433 -7 315 -7 c 0,0,1
EndSplineSet
Validated: 1
Position2: "'cpsp' Capital Spacing lookup 0 subtable" dx=5 dy=0 dh=10 dv=0
EndChar

StartChar: T
Encoding: 84 84 55
Width: 580
GlyphClass: 1
Flags: W
LayerCount: 2
Fore
SplineSet
255 636 m 1,0,-1
 25 636 l 1,1,-1
 25 700 l 1,2,-1
 555 700 l 1,3,-1
 555 636 l 1,4,-1
 325 636 l 1,5,-1
 325 0 l 1,6,-1
 255 0 l 1,7,-1
 255 636 l 1,0,-1
EndSplineSet
Validated: 1
Position2: "'cpsp' Capital Spacing lookup 0 subtable" dx=5 dy=0 dh=10 dv=0
EndChar

StartChar: U
Encoding: 85 85 56
Width: 690
GlyphClass: 1
Flags: W
LayerCount: 2
Fore
SplineSet
345 -7 m 0,0,1
 286 -7 286 -7 238 11.5 c 128,-1,2
 190 30 190 30 156 65.5 c 128,-1,3
 122 101 122 101 103.5 152.5 c 128,-1,4
 85 204 85 204 85 270 c 2,5,-1
 85 700 l 1,6,-1
 155 700 l 1,7,-1
 155 275 l 2,8,9
 155 168 155 168 207 112.5 c 128,-1,10
 259 57 259 57 345 57 c 0,11,12
 432 57 432 57 483.5 112 c 128,-1,13
 535 167 535 167 535 275 c 2,14,-1
 535 700 l 1,15,-1
 605 700 l 1,16,-1
 605 270 l 2,17,18
 605 205 605 205 586 154 c 128,-1,19
 567 103 567 103 533 67 c 128,-1,20
 499 31 499 31 451 12 c 128,-1,21
 403 -7 403 -7 345 -7 c 0,0,1
EndSplineSet
Validated: 1
Position2: "'cpsp' Capital Spacing lookup 0 subtable" dx=5 dy=0 dh=10 dv=0
EndChar

StartChar: V
Encoding: 86 86 57
Width: 660
GlyphClass: 1
Flags: W
LayerCount: 2
Fore
SplineSet
30 700 m 1,0,-1
 106 700 l 1,1,-1
 340 80 l 1,2,-1
 342 80 l 1,3,-1
 558 700 l 1,4,-1
 630 700 l 1,5,-1
 380 0 l 1,6,-1
 300 0 l 1,7,-1
 30 700 l 1,0,-1
EndSplineSet
Validated: 1
Position2: "'cpsp' Capital Spacing lookup 0 subtable" dx=5 dy=0 dh=10 dv=0
EndChar

StartChar: W
Encoding: 87 87 58
Width: 970
GlyphClass: 1
Flags: W
LayerCount: 2
Fore
SplineSet
40 700 m 1,0,-1
 112 700 l 1,1,-1
 279 80 l 1,2,-1
 281 80 l 1,3,-1
 439 700 l 1,4,-1
 531 700 l 1,5,-1
 699 80 l 1,6,-1
 701 80 l 1,7,-1
 860 700 l 1,8,-1
 930 700 l 1,9,-1
 746 0 l 1,10,-1
 654 0 l 1,11,-1
 486 620 l 1,12,-1
 484 620 l 1,13,-1
 326 0 l 1,14,-1
 234 0 l 1,15,-1
 40 700 l 1,0,-1
EndSplineSet
Validated: 1
Position2: "'cpsp' Capital Spacing lookup 0 subtable" dx=5 dy=0 dh=10 dv=0
EndChar

StartChar: X
Encoding: 88 88 59
Width: 650
GlyphClass: 1
Flags: W
LayerCount: 2
Fore
SplineSet
280 366 m 1,0,-1
 55 700 l 1,1,-1
 141 700 l 1,2,-1
 326 420 l 1,3,-1
 513 700 l 1,4,-1
 595 700 l 1,5,-1
 370 367 l 1,6,-1
 615 0 l 1,7,-1
 527 0 l 1,8,-1
 324 310 l 1,9,-1
 119 0 l 1,10,-1
 35 0 l 1,11,-1
 280 366 l 1,0,-1
EndSplineSet
Validated: 1
Position2: "'cpsp' Capital Spacing lookup 0 subtable" dx=5 dy=0 dh=10 dv=0
EndChar

StartChar: Y
Encoding: 89 89 60
Width: 650
GlyphClass: 1
Flags: W
LayerCount: 2
Fore
SplineSet
300 255 m 1,0,-1
 30 700 l 1,1,-1
 108 700 l 1,2,-1
 336 326 l 1,3,-1
 544 700 l 1,4,-1
 620 700 l 1,5,-1
 370 255 l 1,6,-1
 370 0 l 1,7,-1
 300 0 l 1,8,-1
 300 255 l 1,0,-1
EndSplineSet
Validated: 1
Position2: "'cpsp' Capital Spacing lookup 0 subtable" dx=5 dy=0 dh=10 dv=0
EndChar

StartChar: Z
Encoding: 90 90 61
Width: 585
GlyphClass: 1
Flags: W
LayerCount: 2
Fore
SplineSet
50 64 m 1,0,-1
 456 634 l 1,1,-1
 456 636 l 1,2,-1
 60 636 l 1,3,-1
 60 700 l 1,4,-1
 540 700 l 1,5,-1
 540 636 l 1,6,-1
 134 66 l 1,7,-1
 134 64 l 1,8,-1
 540 64 l 1,9,-1
 540 0 l 1,10,-1
 50 0 l 1,11,-1
 50 64 l 1,0,-1
EndSplineSet
Validated: 1
Position2: "'cpsp' Capital Spacing lookup 0 subtable" dx=5 dy=0 dh=10 dv=0
EndChar

StartChar: bracketleft
Encoding: 91 91 62
Width: 400
GlyphClass: 1
Flags: W
LayerCount: 2
Fore
SplineSet
120 700 m 1,0,-1
 350 700 l 1,1,-1
 350 640 l 1,2,-1
 186 640 l 1,3,-1
 186 -140 l 1,4,-1
 350 -140 l 1,5,-1
 350 -200 l 1,6,-1
 120 -200 l 1,7,-1
 120 700 l 1,0,-1
EndSplineSet
Validated: 1
Substitution2: "'case' Case-Sensitive Forms lookup 16 subtable" bracketleft.case
Substitution2: "'aalt' Access All Alternates lookup 0 subtable" bracketleft.case
EndChar

StartChar: backslash
Encoding: 92 92 63
Width: 450
GlyphClass: 1
Flags: W
LayerCount: 2
Fore
SplineSet
25 700 m 1,0,-1
 91 700 l 1,1,-1
 425 -200 l 1,2,-1
 359 -200 l 1,3,-1
 25 700 l 1,0,-1
EndSplineSet
Validated: 1
Substitution2: "'case' Case-Sensitive Forms lookup 16 subtable" backslash.case
Substitution2: "'aalt' Access All Alternates lookup 0 subtable" backslash.case
EndChar

StartChar: bracketright
Encoding: 93 93 64
Width: 400
GlyphClass: 1
Flags: W
LayerCount: 2
Fore
SplineSet
280 -200 m 1,0,-1
 50 -200 l 1,1,-1
 50 -140 l 1,2,-1
 214 -140 l 1,3,-1
 214 640 l 1,4,-1
 50 640 l 1,5,-1
 50 700 l 1,6,-1
 280 700 l 1,7,-1
 280 -200 l 1,0,-1
EndSplineSet
Validated: 1
Substitution2: "'case' Case-Sensitive Forms lookup 16 subtable" bracketright.case
Substitution2: "'aalt' Access All Alternates lookup 0 subtable" bracketright.case
EndChar

StartChar: asciicircum
Encoding: 94 94 65
Width: 590
GlyphClass: 1
Flags: W
LayerCount: 2
Fore
SplineSet
250 700 m 1,0,-1
 330 700 l 1,1,-1
 510 400 l 1,2,-1
 432 400 l 1,3,-1
 291 641 l 1,4,-1
 156 400 l 1,5,-1
 80 400 l 1,6,-1
 250 700 l 1,0,-1
EndSplineSet
Validated: 1
EndChar

StartChar: underscore
Encoding: 95 95 66
Width: 590
GlyphClass: 1
Flags: W
LayerCount: 2
Fore
SplineSet
0 -68 m 1,0,-1
 590 -68 l 1,1,-1
 590 -132 l 1,2,-1
 0 -132 l 1,3,-1
 0 -68 l 1,0,-1
EndSplineSet
Validated: 1
EndChar

StartChar: grave
Encoding: 96 96 67
Width: 250
GlyphClass: 1
Flags: W
LayerCount: 2
Fore
SplineSet
25 715 m 1,0,-1
 113 715 l 1,1,-1
 225 565 l 1,2,-1
 153 565 l 1,3,-1
 25 715 l 1,0,-1
EndSplineSet
Validated: 1
Substitution2: "Single Substitution lookup 42 subtable" grave
EndChar

StartChar: a
Encoding: 97 97 68
Width: 530
GlyphClass: 1
Flags: W
LayerCount: 2
Fore
SplineSet
215 -7 m 0,0,1
 132 -7 132 -7 91 31.5 c 128,-1,2
 50 70 50 70 50 138 c 0,3,4
 50 209 50 209 99 251 c 128,-1,5
 148 293 148 293 255 293 c 2,6,-1
 384 293 l 1,7,-1
 384 330 l 2,8,9
 384 390 384 390 355 417.5 c 128,-1,10
 326 445 326 445 260 445 c 0,11,12
 199 445 199 445 170.5 424 c 128,-1,13
 142 403 142 403 138 370 c 1,14,-1
 70 370 l 1,15,16
 72 397 72 397 85 422 c 128,-1,17
 98 447 98 447 121.5 466 c 128,-1,18
 145 485 145 485 180 496 c 128,-1,19
 215 507 215 507 260 507 c 0,20,21
 357 507 357 507 403.5 462.5 c 128,-1,22
 450 418 450 418 450 330 c 2,23,-1
 450 0 l 1,24,-1
 398 0 l 1,25,-1
 390 85 l 1,26,-1
 388 85 l 1,27,28
 358 40 358 40 313.5 16.5 c 128,-1,29
 269 -7 269 -7 215 -7 c 0,0,1
220 55 m 0,30,31
 256 55 256 55 286 66.5 c 128,-1,32
 316 78 316 78 338 98.5 c 128,-1,33
 360 119 360 119 372 147.5 c 128,-1,34
 384 176 384 176 384 210 c 2,35,-1
 384 237 l 1,36,-1
 260 237 l 2,37,38
 183 237 183 237 150.5 210 c 128,-1,39
 118 183 118 183 118 138 c 0,40,41
 118 100 118 100 142.5 77.5 c 128,-1,42
 167 55 167 55 220 55 c 0,30,31
EndSplineSet
Validated: 1
Substitution2: "'ss01' Style Set 1 lookup 32 subtable" a.ss01
Substitution2: "'sups' Superscript lookup 23 subtable" uniF6E9
Substitution2: "'ordn' Ordinals lookup 17 subtable" uniF6E9
Substitution2: "'subs' Subscript lookup 12 subtable" uni2090
AlternateSubs2: "'aalt' Access All Alternates lookup 1 subtable" a.ss01 uni2090 uniF6E9
EndChar

StartChar: b
Encoding: 98 98 69
Width: 570
GlyphClass: 1
Flags: W
LayerCount: 2
Fore
SplineSet
85 700 m 1,0,-1
 151 700 l 1,1,-1
 151 430 l 1,2,-1
 153 430 l 1,3,4
 206 507 206 507 314 507 c 0,5,6
 358 507 358 507 395 491.5 c 128,-1,7
 432 476 432 476 458.5 445.5 c 128,-1,8
 485 415 485 415 500 370 c 128,-1,9
 515 325 515 325 515 267 c 2,10,-1
 515 233 l 2,11,12
 515 175 515 175 500 130.5 c 128,-1,13
 485 86 485 86 458 55.5 c 128,-1,14
 431 25 431 25 394 9 c 128,-1,15
 357 -7 357 -7 314 -7 c 0,16,17
 260 -7 260 -7 220 12.5 c 128,-1,18
 180 32 180 32 147 75 c 1,19,-1
 145 75 l 1,20,-1
 137 0 l 1,21,-1
 85 0 l 1,22,-1
 85 700 l 1,0,-1
299 53 m 0,23,24
 365 53 365 53 406 97.5 c 128,-1,25
 447 142 447 142 447 233 c 2,26,-1
 447 267 l 2,27,28
 447 356 447 356 405.5 401.5 c 128,-1,29
 364 447 364 447 299 447 c 0,30,31
 233 447 233 447 192 402.5 c 128,-1,32
 151 358 151 358 151 267 c 2,33,-1
 151 233 l 2,34,35
 151 144 151 144 192.5 98.5 c 128,-1,36
 234 53 234 53 299 53 c 0,23,24
EndSplineSet
Validated: 1
Substitution2: "'sups' Superscript lookup 23 subtable" uniF6EA
Substitution2: "'ordn' Ordinals lookup 17 subtable" uniF6EA
Substitution2: "'subs' Subscript lookup 12 subtable" b.sub
AlternateSubs2: "'aalt' Access All Alternates lookup 1 subtable" b.sub uniF6EA
EndChar

StartChar: c
Encoding: 99 99 70
Width: 505
GlyphClass: 1
Flags: W
LayerCount: 2
Fore
SplineSet
265 -7 m 0,0,1
 218 -7 218 -7 179 8.5 c 128,-1,2
 140 24 140 24 112.5 55 c 128,-1,3
 85 86 85 86 70 132 c 128,-1,4
 55 178 55 178 55 238 c 2,5,-1
 55 272 l 2,6,7
 55 328 55 328 70.5 371.5 c 128,-1,8
 86 415 86 415 113.5 445 c 128,-1,9
 141 475 141 475 179.5 491 c 128,-1,10
 218 507 218 507 265 507 c 0,11,12
 309 507 309 507 344 495.5 c 128,-1,13
 379 484 379 484 404 463.5 c 128,-1,14
 429 443 429 443 444 416.5 c 128,-1,15
 459 390 459 390 465 360 c 1,16,-1
 397 360 l 1,17,18
 386 397 386 397 356 422 c 128,-1,19
 326 447 326 447 270 447 c 0,20,21
 206 447 206 447 164.5 402 c 128,-1,22
 123 357 123 357 123 272 c 2,23,-1
 123 238 l 2,24,25
 123 146 123 146 165 99.5 c 128,-1,26
 207 53 207 53 270 53 c 0,27,28
 326 53 326 53 356 79 c 128,-1,29
 386 105 386 105 397 150 c 1,30,-1
 465 150 l 1,31,32
 459 116 459 116 444 87.5 c 128,-1,33
 429 59 429 59 404 38 c 128,-1,34
 379 17 379 17 344 5 c 128,-1,35
 309 -7 309 -7 265 -7 c 0,0,1
EndSplineSet
Validated: 1
Substitution2: "'sups' Superscript lookup 23 subtable" c.superior
Substitution2: "'ordn' Ordinals lookup 17 subtable" c.superior
Substitution2: "'subs' Subscript lookup 12 subtable" c.sub
AlternateSubs2: "'aalt' Access All Alternates lookup 1 subtable" c.superior c.sub
EndChar

StartChar: d
Encoding: 100 100 71
Width: 570
GlyphClass: 1
Flags: WO
LayerCount: 2
Fore
SplineSet
256 -7 m 0,0,1
 212 -7 212 -7 175 8.5 c 128,-1,2
 138 24 138 24 111.5 54.5 c 128,-1,3
 85 85 85 85 70 129.5 c 128,-1,4
 55 174 55 174 55 233 c 2,5,-1
 55 267 l 2,6,7
 55 325 55 325 70 369.5 c 128,-1,8
 85 414 85 414 112 444.5 c 128,-1,9
 139 475 139 475 176 491 c 128,-1,10
 213 507 213 507 256 507 c 0,11,12
 364 507 364 507 417 430 c 1,13,-1
 419 430 l 1,14,-1
 419 700 l 1,15,-1
 485 700 l 1,16,-1
 485 0 l 1,17,-1
 433 0 l 1,18,19
 433 5 433 5 431.5 15.5 c 128,-1,20
 430 26 430 26 429 37.5 c 128,-1,21
 428 49 428 49 426.5 59.5 c 128,-1,22
 425 70 425 70 425 75 c 1,23,-1
 423 75 l 1,24,25
 389 33 389 33 349 13 c 128,-1,26
 309 -7 309 -7 256 -7 c 0,0,1
271 53 m 0,27,28
 337 53 337 53 378 97.5 c 128,-1,29
 419 142 419 142 419 233 c 2,30,-1
 419 267 l 2,31,32
 419 356 419 356 377.5 401.5 c 128,-1,33
 336 447 336 447 271 447 c 0,34,35
 205 447 205 447 164 402.5 c 128,-1,36
 123 358 123 358 123 267 c 2,37,-1
 123 233 l 2,38,39
 123 144 123 144 164.5 98.5 c 128,-1,40
 206 53 206 53 271 53 c 0,27,28
EndSplineSet
Validated: 1
Substitution2: "'sups' Superscript lookup 23 subtable" uniF6EB
Substitution2: "'ordn' Ordinals lookup 17 subtable" uniF6EB
Substitution2: "'subs' Subscript lookup 12 subtable" d.sub
AlternateSubs2: "'aalt' Access All Alternates lookup 1 subtable" d.sub uniF6EB
EndChar

StartChar: e
Encoding: 101 101 72
Width: 540
GlyphClass: 1
Flags: W
LayerCount: 2
Fore
SplineSet
270 -7 m 0,0,1
 222 -7 222 -7 182 9 c 128,-1,2
 142 25 142 25 114 55.5 c 128,-1,3
 86 86 86 86 70.5 130.5 c 128,-1,4
 55 175 55 175 55 233 c 2,5,-1
 55 267 l 2,6,7
 55 324 55 324 70.5 369 c 128,-1,8
 86 414 86 414 114.5 444.5 c 128,-1,9
 143 475 143 475 182.5 491 c 128,-1,10
 222 507 222 507 270 507 c 256,11,12
 318 507 318 507 358 491 c 128,-1,13
 398 475 398 475 426 444 c 128,-1,14
 454 413 454 413 469.5 367.5 c 128,-1,15
 485 322 485 322 485 262 c 2,16,-1
 485 232 l 1,17,-1
 123 232 l 1,18,19
 123 145 123 145 161 99 c 128,-1,20
 199 53 199 53 270 53 c 0,21,22
 377 53 377 53 412 140 c 1,23,-1
 480 140 l 1,24,25
 462 68 462 68 408.5 30.5 c 128,-1,26
 355 -7 355 -7 270 -7 c 0,0,1
270 447 m 0,27,28
 206 447 206 447 167 406.5 c 128,-1,29
 128 366 128 366 123 288 c 1,30,-1
 417 288 l 1,31,32
 412 369 412 369 372.5 408 c 128,-1,33
 333 447 333 447 270 447 c 0,27,28
EndSplineSet
Validated: 1
Substitution2: "'sups' Superscript lookup 23 subtable" uniF6EC
Substitution2: "'ordn' Ordinals lookup 17 subtable" uniF6EC
Substitution2: "'subs' Subscript lookup 12 subtable" uni2091
AlternateSubs2: "'aalt' Access All Alternates lookup 1 subtable" uni2091 uniF6EC
EndChar

StartChar: f
Encoding: 102 102 73
Width: 335
GlyphClass: 1
Flags: W
LayerCount: 2
Fore
SplineSet
120 440 m 1,0,-1
 30 440 l 1,1,-1
 30 500 l 1,2,-1
 120 500 l 1,3,-1
 120 568 l 2,4,5
 120 633 120 633 153.5 666.5 c 128,-1,6
 187 700 187 700 252 700 c 2,7,-1
 330 700 l 1,8,-1
 330 640 l 1,9,-1
 260 640 l 2,10,11
 222 640 222 640 204 621 c 128,-1,12
 186 602 186 602 186 560 c 2,13,-1
 186 500 l 1,14,-1
 310 500 l 1,15,-1
 310 440 l 1,16,-1
 186 440 l 1,17,-1
 186 0 l 1,18,-1
 120 0 l 1,19,-1
 120 440 l 1,0,-1
EndSplineSet
Validated: 1
Substitution2: "'sups' Superscript lookup 23 subtable" f.superior
Substitution2: "'ordn' Ordinals lookup 17 subtable" f.superior
Substitution2: "'subs' Subscript lookup 12 subtable" f.sub
AlternateSubs2: "'aalt' Access All Alternates lookup 1 subtable" f.superior f.sub
EndChar

StartChar: g
Encoding: 103 103 74
Width: 570
GlyphClass: 1
Flags: W
LayerCount: 2
Fore
SplineSet
256 13 m 0,0,1
 212 13 212 13 175 28.5 c 128,-1,2
 138 44 138 44 111.5 73.5 c 128,-1,3
 85 103 85 103 70 145.5 c 128,-1,4
 55 188 55 188 55 243 c 2,5,-1
 55 277 l 2,6,7
 55 331 55 331 70 373.5 c 128,-1,8
 85 416 85 416 112 446 c 128,-1,9
 139 476 139 476 176 491.5 c 128,-1,10
 213 507 213 507 256 507 c 0,11,12
 310 507 310 507 350 487.5 c 128,-1,13
 390 468 390 468 423 425 c 1,14,-1
 425 425 l 1,15,-1
 433 500 l 1,16,-1
 485 500 l 1,17,-1
 485 -5 l 2,18,19
 485 -102 485 -102 432.5 -154.5 c 128,-1,20
 380 -207 380 -207 283 -207 c 0,21,22
 189 -207 189 -207 143.5 -166 c 128,-1,23
 98 -125 98 -125 90 -55 c 1,24,-1
 158 -55 l 1,25,26
 166 -100 166 -100 193.5 -123.5 c 128,-1,27
 221 -147 221 -147 283 -147 c 0,28,29
 352 -147 352 -147 385.5 -112 c 128,-1,30
 419 -77 419 -77 419 0 c 2,31,-1
 419 90 l 1,32,-1
 417 90 l 1,33,34
 364 13 364 13 256 13 c 0,0,1
270 73 m 0,35,36
 337 73 337 73 378 116.5 c 128,-1,37
 419 160 419 160 419 243 c 2,38,-1
 419 277 l 2,39,40
 419 358 419 358 377.5 402.5 c 128,-1,41
 336 447 336 447 271 447 c 0,42,43
 205 447 205 447 164 403.5 c 128,-1,44
 123 360 123 360 123 277 c 2,45,-1
 123 243 l 2,46,47
 123 162 123 162 164.5 117.5 c 128,-1,48
 206 73 206 73 270 73 c 0,35,36
EndSplineSet
Validated: 1
Substitution2: "'ss02' Style Set 2 lookup 33 subtable" g.ss02
Substitution2: "'sups' Superscript lookup 23 subtable" g.superior
Substitution2: "'ordn' Ordinals lookup 17 subtable" g.superior
Substitution2: "'subs' Subscript lookup 12 subtable" g.sub
AlternateSubs2: "'aalt' Access All Alternates lookup 1 subtable" g.superior g.ss02 g.sub
EndChar

StartChar: h
Encoding: 104 104 75
Width: 575
GlyphClass: 1
Flags: W
LayerCount: 2
Fore
SplineSet
85 700 m 1,0,-1
 151 700 l 1,1,-1
 151 430 l 1,2,-1
 153 430 l 1,3,4
 213 507 213 507 306 507 c 0,5,6
 395 507 395 507 445 455 c 128,-1,7
 495 403 495 403 495 300 c 2,8,-1
 495 0 l 1,9,-1
 429 0 l 1,10,-1
 429 300 l 2,11,12
 429 375 429 375 394.5 411 c 128,-1,13
 360 447 360 447 295 447 c 0,14,15
 263 447 263 447 236.5 436.5 c 128,-1,16
 210 426 210 426 191 406.5 c 128,-1,17
 172 387 172 387 161.5 360 c 128,-1,18
 151 333 151 333 151 300 c 2,19,-1
 151 0 l 1,20,-1
 85 0 l 1,21,-1
 85 700 l 1,0,-1
EndSplineSet
Validated: 1
Substitution2: "'sups' Superscript lookup 23 subtable" h.superior
Substitution2: "'ordn' Ordinals lookup 17 subtable" h.superior
Substitution2: "'subs' Subscript lookup 12 subtable" uni2095
AlternateSubs2: "'aalt' Access All Alternates lookup 1 subtable" h.superior uni2095
EndChar

StartChar: k
Encoding: 107 107 78
Width: 510
GlyphClass: 1
Flags: W
LayerCount: 2
Fore
SplineSet
85 700 m 1,0,-1
 151 700 l 1,1,-1
 151 219 l 1,2,-1
 383 500 l 1,3,-1
 465 500 l 1,4,-1
 283 281 l 1,5,-1
 485 0 l 1,6,-1
 403 0 l 1,7,-1
 239 234 l 1,8,-1
 151 129 l 1,9,-1
 151 0 l 1,10,-1
 85 0 l 1,11,-1
 85 700 l 1,0,-1
EndSplineSet
Validated: 1
Substitution2: "'ss04' Style Set 4 lookup 35 subtable" k.ss04
Substitution2: "'sups' Superscript lookup 23 subtable" k.superior
Substitution2: "'ordn' Ordinals lookup 17 subtable" k.superior
Substitution2: "'subs' Subscript lookup 12 subtable" uni2096
Substitution2: "'subs' Subscript lookup 11 subtable" uni2096
AlternateSubs2: "'aalt' Access All Alternates lookup 1 subtable" k.superior k.ss04 uni2096
EndChar

StartChar: l
Encoding: 108 108 79
Width: 290
GlyphClass: 1
Flags: W
LayerCount: 2
Fore
SplineSet
215 0 m 1,0,1
 167 0 167 0 140.5 17 c 128,-1,2
 114 34 114 34 101.5 56 c 128,-1,3
 89 78 89 78 87 100 c 128,-1,4
 85 122 85 122 85 132 c 2,5,-1
 85 700 l 1,6,-1
 151 700 l 1,7,-1
 151 140 l 2,8,9
 151 60 151 60 223 60 c 2,10,-1
 255 60 l 1,11,-1
 255 0 l 1,12,-1
 215 0 l 1,13,-1
 215 0 l 1,0,1
EndSplineSet
Validated: 5
Substitution2: "'ss06' Style Set 6 lookup 37 subtable" l.ss06
Substitution2: "'sups' Superscript lookup 23 subtable" uniF6EE
Substitution2: "'ordn' Ordinals lookup 17 subtable" uniF6EE
Substitution2: "'subs' Subscript lookup 12 subtable" uni2097
AlternateSubs2: "'aalt' Access All Alternates lookup 1 subtable" l.ss06 uni2097 uniF6EE
EndChar

StartChar: m
Encoding: 109 109 80
Width: 875
GlyphClass: 1
Flags: W
LayerCount: 2
Fore
SplineSet
85 500 m 1,0,-1
 137 500 l 1,1,-1
 145 425 l 1,2,-1
 147 425 l 1,3,4
 176 465 176 465 214.5 486 c 128,-1,5
 253 507 253 507 299 507 c 0,6,7
 353 507 353 507 393 482 c 128,-1,8
 433 457 433 457 454 407 c 1,9,10
 477 455 477 455 520.5 481 c 128,-1,11
 564 507 564 507 621 507 c 0,12,13
 660 507 660 507 692 494 c 128,-1,14
 724 481 724 481 747 454.5 c 128,-1,15
 770 428 770 428 782.5 389.5 c 128,-1,16
 795 351 795 351 795 300 c 2,17,-1
 795 0 l 1,18,-1
 729 0 l 1,19,-1
 729 300 l 2,20,21
 729 374 729 374 696 410.5 c 128,-1,22
 663 447 663 447 606 447 c 0,23,24
 578 447 578 447 554 436.5 c 128,-1,25
 530 426 530 426 512 406.5 c 128,-1,26
 494 387 494 387 483.5 360 c 128,-1,27
 473 333 473 333 473 300 c 2,28,-1
 473 0 l 1,29,-1
 407 0 l 1,30,-1
 407 300 l 2,31,32
 407 374 407 374 374 410.5 c 128,-1,33
 341 447 341 447 284 447 c 0,34,35
 256 447 256 447 232 436.5 c 128,-1,36
 208 426 208 426 190 406.5 c 128,-1,37
 172 387 172 387 161.5 360 c 128,-1,38
 151 333 151 333 151 300 c 2,39,-1
 151 0 l 1,40,-1
 85 0 l 1,41,-1
 85 500 l 1,0,-1
EndSplineSet
Validated: 1
Substitution2: "'sups' Superscript lookup 23 subtable" uniF6EF
Substitution2: "'ordn' Ordinals lookup 17 subtable" uniF6EF
Substitution2: "'subs' Subscript lookup 12 subtable" uni2098
AlternateSubs2: "'aalt' Access All Alternates lookup 1 subtable" uni2098 uniF6EF
EndChar

StartChar: n
Encoding: 110 110 81
Width: 575
GlyphClass: 1
Flags: W
LayerCount: 2
Fore
SplineSet
85 500 m 1,0,-1
 137 500 l 1,1,-1
 145 425 l 1,2,-1
 147 425 l 1,3,4
 207 507 207 507 306 507 c 0,5,6
 395 507 395 507 445 455.5 c 128,-1,7
 495 404 495 404 495 305 c 2,8,-1
 495 0 l 1,9,-1
 429 0 l 1,10,-1
 429 300 l 2,11,12
 429 375 429 375 394.5 411 c 128,-1,13
 360 447 360 447 295 447 c 0,14,15
 263 447 263 447 236.5 436.5 c 128,-1,16
 210 426 210 426 191 406.5 c 128,-1,17
 172 387 172 387 161.5 360 c 128,-1,18
 151 333 151 333 151 300 c 2,19,-1
 151 0 l 1,20,-1
 85 0 l 1,21,-1
 85 500 l 1,0,-1
EndSplineSet
Validated: 1
Substitution2: "'sups' Superscript lookup 23 subtable" uni207F
Substitution2: "'ordn' Ordinals lookup 17 subtable" uni207F
Substitution2: "'subs' Subscript lookup 12 subtable" uni2099
AlternateSubs2: "'aalt' Access All Alternates lookup 1 subtable" uni2099 uni207F
EndChar

StartChar: o
Encoding: 111 111 82
Width: 550
GlyphClass: 1
Flags: W
LayerCount: 2
Fore
SplineSet
275 -7 m 0,0,1
 174 -7 174 -7 114.5 55 c 128,-1,2
 55 117 55 117 55 233 c 2,3,-1
 55 267 l 2,4,5
 55 324 55 324 70.5 369 c 128,-1,6
 86 414 86 414 115 444.5 c 128,-1,7
 144 475 144 475 184.5 491 c 128,-1,8
 225 507 225 507 275 507 c 0,9,10
 376 507 376 507 435.5 445 c 128,-1,11
 495 383 495 383 495 267 c 2,12,-1
 495 233 l 2,13,14
 495 176 495 176 479.5 131 c 128,-1,15
 464 86 464 86 435 55.5 c 128,-1,16
 406 25 406 25 365.5 9 c 128,-1,17
 325 -7 325 -7 275 -7 c 0,0,1
275 53 m 0,18,19
 344 53 344 53 385.5 98 c 128,-1,20
 427 143 427 143 427 233 c 2,21,-1
 427 267 l 2,22,23
 427 356 427 356 385 401.5 c 128,-1,24
 343 447 343 447 275 447 c 0,25,26
 206 447 206 447 164.5 402 c 128,-1,27
 123 357 123 357 123 267 c 2,28,-1
 123 233 l 2,29,30
 123 144 123 144 165 98.5 c 128,-1,31
 207 53 207 53 275 53 c 0,18,19
EndSplineSet
Validated: 1
Substitution2: "'sups' Superscript lookup 23 subtable" uniF6F0
Substitution2: "'ordn' Ordinals lookup 17 subtable" uniF6F0
Substitution2: "'subs' Subscript lookup 12 subtable" uni2092
AlternateSubs2: "'aalt' Access All Alternates lookup 1 subtable" uni2092 uniF6F0
EndChar

StartChar: p
Encoding: 112 112 83
Width: 570
GlyphClass: 1
Flags: W
LayerCount: 2
Fore
SplineSet
85 500 m 1,0,-1
 137 500 l 1,1,-1
 145 425 l 1,2,-1
 147 425 l 1,3,4
 180 468 180 468 220 487.5 c 128,-1,5
 260 507 260 507 314 507 c 0,6,7
 358 507 358 507 395 491.5 c 128,-1,8
 432 476 432 476 458.5 445.5 c 128,-1,9
 485 415 485 415 500 370 c 128,-1,10
 515 325 515 325 515 267 c 2,11,-1
 515 233 l 2,12,13
 515 175 515 175 500 130.5 c 128,-1,14
 485 86 485 86 458 55.5 c 128,-1,15
 431 25 431 25 394 9 c 128,-1,16
 357 -7 357 -7 314 -7 c 0,17,18
 206 -7 206 -7 153 70 c 1,19,-1
 151 70 l 1,20,-1
 151 -200 l 1,21,-1
 85 -200 l 1,22,-1
 85 500 l 1,0,-1
299 53 m 0,23,24
 365 53 365 53 406 97.5 c 128,-1,25
 447 142 447 142 447 233 c 2,26,-1
 447 267 l 2,27,28
 447 356 447 356 405.5 401.5 c 128,-1,29
 364 447 364 447 299 447 c 0,30,31
 233 447 233 447 192 402.5 c 128,-1,32
 151 358 151 358 151 267 c 2,33,-1
 151 233 l 2,34,35
 151 144 151 144 192.5 98.5 c 128,-1,36
 234 53 234 53 299 53 c 0,23,24
EndSplineSet
Validated: 1
Substitution2: "'sups' Superscript lookup 23 subtable" p.superior
Substitution2: "'ordn' Ordinals lookup 17 subtable" p.superior
Substitution2: "'subs' Subscript lookup 12 subtable" uni209A
AlternateSubs2: "'aalt' Access All Alternates lookup 1 subtable" p.superior uni209A
EndChar

StartChar: q
Encoding: 113 113 84
Width: 570
GlyphClass: 1
Flags: W
LayerCount: 2
Fore
SplineSet
256 -7 m 0,0,1
 212 -7 212 -7 175 8.5 c 128,-1,2
 138 24 138 24 111.5 54.5 c 128,-1,3
 85 85 85 85 70 129.5 c 128,-1,4
 55 174 55 174 55 233 c 2,5,-1
 55 267 l 2,6,7
 55 325 55 325 70 369.5 c 128,-1,8
 85 414 85 414 112 444.5 c 128,-1,9
 139 475 139 475 176 491 c 128,-1,10
 213 507 213 507 256 507 c 0,11,12
 310 507 310 507 350 487.5 c 128,-1,13
 390 468 390 468 423 425 c 1,14,-1
 425 425 l 1,15,-1
 433 500 l 1,16,-1
 485 500 l 1,17,-1
 485 -200 l 1,18,-1
 419 -200 l 1,19,-1
 419 70 l 1,20,-1
 417 70 l 1,21,22
 364 -7 364 -7 256 -7 c 0,0,1
271 53 m 0,23,24
 337 53 337 53 378 97.5 c 128,-1,25
 419 142 419 142 419 233 c 2,26,-1
 419 267 l 2,27,28
 419 356 419 356 377.5 401.5 c 128,-1,29
 336 447 336 447 271 447 c 0,30,31
 205 447 205 447 164 402.5 c 128,-1,32
 123 358 123 358 123 267 c 2,33,-1
 123 233 l 2,34,35
 123 144 123 144 164.5 98.5 c 128,-1,36
 206 53 206 53 271 53 c 0,23,24
EndSplineSet
Validated: 1
Substitution2: "'sups' Superscript lookup 23 subtable" q.superior
Substitution2: "'ordn' Ordinals lookup 17 subtable" q.superior
Substitution2: "'subs' Subscript lookup 12 subtable" q.sub
AlternateSubs2: "'aalt' Access All Alternates lookup 1 subtable" q.superior q.sub
EndChar

StartChar: r
Encoding: 114 114 85
Width: 375
GlyphClass: 1
Flags: W
LayerCount: 2
Fore
SplineSet
85 500 m 1,0,-1
 137 500 l 1,1,-1
 145 425 l 1,2,-1
 147 425 l 1,3,4
 202 507 202 507 306 507 c 2,5,-1
 355 507 l 1,6,-1
 355 447 l 1,7,-1
 305 447 l 2,8,9
 232 447 232 447 191.5 407.5 c 128,-1,10
 151 368 151 368 151 300 c 2,11,-1
 151 0 l 1,12,-1
 85 0 l 1,13,-1
 85 500 l 1,0,-1
EndSplineSet
Validated: 1
Substitution2: "'sups' Superscript lookup 23 subtable" uniF6F1
Substitution2: "'ordn' Ordinals lookup 17 subtable" uniF6F1
Substitution2: "'subs' Subscript lookup 12 subtable" r.sub
AlternateSubs2: "'aalt' Access All Alternates lookup 1 subtable" r.sub uniF6F1
EndChar

StartChar: s
Encoding: 115 115 86
Width: 490
GlyphClass: 1
Flags: W
LayerCount: 2
Fore
SplineSet
250 -7 m 0,0,1
 155 -7 155 -7 109 33.5 c 128,-1,2
 63 74 63 74 55 140 c 1,3,-1
 123 140 l 1,4,5
 131 99 131 99 159 76 c 128,-1,6
 187 53 187 53 250 53 c 0,7,8
 314 53 314 53 340.5 75 c 128,-1,9
 367 97 367 97 367 133 c 0,10,11
 367 165 367 165 344.5 183 c 128,-1,12
 322 201 322 201 288.5 212.5 c 128,-1,13
 255 224 255 224 216 233.5 c 128,-1,14
 177 243 177 243 143.5 259 c 128,-1,15
 110 275 110 275 87.5 301 c 128,-1,16
 65 327 65 327 65 372 c 0,17,18
 65 429 65 429 109 468 c 128,-1,19
 153 507 153 507 240 507 c 0,20,21
 286 507 286 507 320 496.5 c 128,-1,22
 354 486 354 486 377 468 c 128,-1,23
 400 450 400 450 413 425 c 128,-1,24
 426 400 426 400 430 370 c 1,25,-1
 362 370 l 1,26,27
 354 405 354 405 327 426 c 128,-1,28
 300 447 300 447 240 447 c 0,29,30
 182 447 182 447 157.5 426.5 c 128,-1,31
 133 406 133 406 133 372 c 0,32,33
 133 342 133 342 155.5 325.5 c 128,-1,34
 178 309 178 309 211.5 298.5 c 128,-1,35
 245 288 245 288 284 278.5 c 128,-1,36
 323 269 323 269 356.5 252.5 c 128,-1,37
 390 236 390 236 412.5 208.5 c 128,-1,38
 435 181 435 181 435 133 c 0,39,40
 435 103 435 103 423.5 77.5 c 128,-1,41
 412 52 412 52 389 33.5 c 128,-1,42
 366 15 366 15 331 4 c 128,-1,43
 296 -7 296 -7 250 -7 c 0,0,1
EndSplineSet
Validated: 1
Substitution2: "'hist' Historical Forms lookup 31 subtable" longs
Substitution2: "'sups' Superscript lookup 23 subtable" uniF6F2
Substitution2: "'ordn' Ordinals lookup 17 subtable" uniF6F2
Substitution2: "'subs' Subscript lookup 12 subtable" uni209B
AlternateSubs2: "'aalt' Access All Alternates lookup 1 subtable" uni209B uniF6F2 longs
EndChar

StartChar: t
Encoding: 116 116 87
Width: 360
GlyphClass: 1
Flags: W
LayerCount: 2
Fore
SplineSet
247 0 m 1,0,1
 198 0 198 0 171 17 c 128,-1,2
 144 34 144 34 131.5 56.5 c 128,-1,3
 119 79 119 79 117 101 c 128,-1,4
 115 123 115 123 115 132 c 2,5,-1
 115 440 l 1,6,-1
 25 440 l 1,7,-1
 25 500 l 1,8,-1
 115 500 l 1,9,-1
 115 640 l 1,10,-1
 181 640 l 1,11,-1
 181 500 l 1,12,-1
 315 500 l 1,13,-1
 315 440 l 1,14,-1
 181 440 l 1,15,-1
 181 140 l 2,16,17
 181 60 181 60 255 60 c 2,18,-1
 325 60 l 1,19,-1
 325 0 l 1,20,-1
 247 0 l 1,21,-1
 247 0 l 1,0,1
EndSplineSet
Validated: 5
Substitution2: "'ss07' Style Set 7 lookup 38 subtable" t.ss07
Substitution2: "'sups' Superscript lookup 23 subtable" uniF6F3
Substitution2: "'ordn' Ordinals lookup 17 subtable" uniF6F3
Substitution2: "'subs' Subscript lookup 12 subtable" uni209C
AlternateSubs2: "'aalt' Access All Alternates lookup 1 subtable" t.ss07 uni209C uniF6F3
EndChar

StartChar: u
Encoding: 117 117 88
Width: 565
GlyphClass: 1
Flags: W
LayerCount: 2
Fore
SplineSet
259 -7 m 0,0,1
 178 -7 178 -7 129 44.5 c 128,-1,2
 80 96 80 96 80 195 c 2,3,-1
 80 500 l 1,4,-1
 146 500 l 1,5,-1
 146 200 l 2,6,7
 146 125 146 125 179.5 89 c 128,-1,8
 213 53 213 53 270 53 c 0,9,10
 302 53 302 53 328.5 63.5 c 128,-1,11
 355 74 355 74 374 93.5 c 128,-1,12
 393 113 393 113 403.5 140 c 128,-1,13
 414 167 414 167 414 200 c 2,14,-1
 414 500 l 1,15,-1
 480 500 l 1,16,-1
 480 0 l 1,17,-1
 428 0 l 1,18,-1
 420 75 l 1,19,-1
 418 75 l 1,20,21
 361 -7 361 -7 259 -7 c 0,0,1
EndSplineSet
Validated: 1
Substitution2: "'sups' Superscript lookup 23 subtable" u.superior
Substitution2: "'ordn' Ordinals lookup 17 subtable" u.superior
Substitution2: "'subs' Subscript lookup 12 subtable" u.sub
AlternateSubs2: "'aalt' Access All Alternates lookup 1 subtable" u.superior u.sub
EndChar

StartChar: v
Encoding: 118 118 89
Width: 510
GlyphClass: 1
Flags: W
LayerCount: 2
Fore
SplineSet
25 500 m 1,0,-1
 97 500 l 1,1,-1
 260 70 l 1,2,-1
 262 70 l 1,3,-1
 417 500 l 1,4,-1
 485 500 l 1,5,-1
 299 0 l 1,6,-1
 221 0 l 1,7,-1
 25 500 l 1,0,-1
EndSplineSet
Validated: 1
Substitution2: "'sups' Superscript lookup 23 subtable" v.superior
Substitution2: "'ordn' Ordinals lookup 17 subtable" v.superior
Substitution2: "'subs' Subscript lookup 12 subtable" v.sub
AlternateSubs2: "'aalt' Access All Alternates lookup 1 subtable" v.superior v.sub
EndChar

StartChar: w
Encoding: 119 119 90
Width: 770
GlyphClass: 1
Flags: W
LayerCount: 2
Fore
SplineSet
35 500 m 1,0,-1
 105 500 l 1,1,-1
 225 70 l 1,2,-1
 227 70 l 1,3,-1
 340 500 l 1,4,-1
 430 500 l 1,5,-1
 555 70 l 1,6,-1
 557 70 l 1,7,-1
 669 500 l 1,8,-1
 735 500 l 1,9,-1
 600 0 l 1,10,-1
 510 0 l 1,11,-1
 385 430 l 1,12,-1
 383 430 l 1,13,-1
 270 0 l 1,14,-1
 180 0 l 1,15,-1
 35 500 l 1,0,-1
EndSplineSet
Validated: 1
Substitution2: "'sups' Superscript lookup 23 subtable" w.superior
Substitution2: "'ordn' Ordinals lookup 17 subtable" w.superior
Substitution2: "'subs' Subscript lookup 12 subtable" w.sub
AlternateSubs2: "'aalt' Access All Alternates lookup 1 subtable" w.superior w.sub
EndChar

StartChar: x
Encoding: 120 120 91
Width: 500
GlyphClass: 1
Flags: W
LayerCount: 2
Fore
SplineSet
211 260 m 1,0,-1
 39 500 l 1,1,-1
 115 500 l 1,2,-1
 251 309 l 1,3,-1
 387 500 l 1,4,-1
 461 500 l 1,5,-1
 289 261 l 1,6,-1
 475 0 l 1,7,-1
 397 0 l 1,8,-1
 249 209 l 1,9,-1
 101 0 l 1,10,-1
 25 0 l 1,11,-1
 211 260 l 1,0,-1
EndSplineSet
Validated: 1
Substitution2: "'sups' Superscript lookup 23 subtable" x.superior
Substitution2: "'ordn' Ordinals lookup 17 subtable" x.superior
Substitution2: "'subs' Subscript lookup 12 subtable" uni2093
AlternateSubs2: "'aalt' Access All Alternates lookup 1 subtable" x.superior uni2093
EndChar

StartChar: y
Encoding: 121 121 92
Width: 520
GlyphClass: 1
Flags: W
LayerCount: 2
Fore
SplineSet
234 0 m 1,0,-1
 25 500 l 1,1,-1
 97 500 l 1,2,-1
 268 82 l 1,3,-1
 270 82 l 1,4,-1
 427 500 l 1,5,-1
 495 500 l 1,6,-1
 225 -200 l 1,7,-1
 157 -200 l 1,8,-1
 234 0 l 1,0,-1
EndSplineSet
Validated: 1
Substitution2: "'sups' Superscript lookup 23 subtable" y.superior
Substitution2: "'ordn' Ordinals lookup 17 subtable" y.superior
Substitution2: "'subs' Subscript lookup 12 subtable" y.sub
AlternateSubs2: "'aalt' Access All Alternates lookup 1 subtable" y.superior y.sub
EndChar

StartChar: z
Encoding: 122 122 93
Width: 455
GlyphClass: 1
Flags: W
LayerCount: 2
Fore
SplineSet
40 60 m 1,0,-1
 344 438 l 1,1,-1
 344 440 l 1,2,-1
 50 440 l 1,3,-1
 50 500 l 1,4,-1
 420 500 l 1,5,-1
 420 440 l 1,6,-1
 116 62 l 1,7,-1
 116 60 l 1,8,-1
 420 60 l 1,9,-1
 420 0 l 1,10,-1
 40 0 l 1,11,-1
 40 60 l 1,0,-1
EndSplineSet
Validated: 1
Substitution2: "'sups' Superscript lookup 23 subtable" z.superior
Substitution2: "'ordn' Ordinals lookup 17 subtable" z.superior
Substitution2: "'subs' Subscript lookup 12 subtable" z.sub
AlternateSubs2: "'aalt' Access All Alternates lookup 1 subtable" z.superior z.sub
EndChar

StartChar: braceleft
Encoding: 123 123 94
Width: 400
GlyphClass: 1
Flags: W
LayerCount: 2
Fore
SplineSet
314 -200 m 2,0,1
 130 -200 130 -200 130 -16 c 2,2,-1
 130 114 l 2,3,4
 130 167 130 167 106.5 190.5 c 128,-1,5
 83 214 83 214 50 219 c 1,6,-1
 50 281 l 1,7,8
 83 286 83 286 106.5 309.5 c 128,-1,9
 130 333 130 333 130 386 c 2,10,-1
 130 516 l 2,11,12
 130 700 130 700 314 700 c 2,13,-1
 360 700 l 1,14,-1
 360 640 l 1,15,-1
 314 640 l 2,16,17
 254 640 254 640 225 610 c 128,-1,18
 196 580 196 580 196 516 c 2,19,-1
 196 386 l 2,20,21
 196 363 196 363 193.5 343.5 c 128,-1,22
 191 324 191 324 183 306.5 c 128,-1,23
 175 289 175 289 161 275 c 128,-1,24
 147 261 147 261 124 251 c 1,25,-1
 124 249 l 1,26,27
 147 238 147 238 161 224.5 c 128,-1,28
 175 211 175 211 183 193.5 c 128,-1,29
 191 176 191 176 193.5 156 c 128,-1,30
 196 136 196 136 196 114 c 2,31,-1
 196 -16 l 2,32,33
 196 -80 196 -80 225 -110 c 128,-1,34
 254 -140 254 -140 314 -140 c 2,35,-1
 360 -140 l 1,36,-1
 360 -200 l 1,37,-1
 314 -200 l 2,0,1
EndSplineSet
Validated: 1
Substitution2: "'case' Case-Sensitive Forms lookup 16 subtable" braceleft.case
Substitution2: "'aalt' Access All Alternates lookup 0 subtable" braceleft.case
EndChar

StartChar: bar
Encoding: 124 124 95
Width: 300
GlyphClass: 1
Flags: W
LayerCount: 2
Fore
SplineSet
117 700 m 1,0,-1
 183 700 l 1,1,-1
 183 -200 l 1,2,-1
 117 -200 l 1,3,-1
 117 700 l 1,0,-1
EndSplineSet
Validated: 1
Substitution2: "'case' Case-Sensitive Forms lookup 16 subtable" bar.case
Substitution2: "'aalt' Access All Alternates lookup 0 subtable" bar.case
EndChar

StartChar: braceright
Encoding: 125 125 96
Width: 400
GlyphClass: 1
Flags: W
LayerCount: 2
Fore
SplineSet
86 700 m 2,0,1
 270 700 270 700 270 516 c 2,2,-1
 270 386 l 2,3,4
 270 333 270 333 293.5 309.5 c 128,-1,5
 317 286 317 286 350 281 c 1,6,-1
 350 219 l 1,7,8
 317 214 317 214 293.5 190.5 c 128,-1,9
 270 167 270 167 270 114 c 2,10,-1
 270 -16 l 2,11,12
 270 -200 270 -200 86 -200 c 2,13,-1
 40 -200 l 1,14,-1
 40 -140 l 1,15,-1
 86 -140 l 2,16,17
 146 -140 146 -140 175 -110 c 128,-1,18
 204 -80 204 -80 204 -16 c 2,19,-1
 204 114 l 2,20,21
 204 136 204 136 206.5 156 c 128,-1,22
 209 176 209 176 217 193.5 c 128,-1,23
 225 211 225 211 239 224.5 c 128,-1,24
 253 238 253 238 276 249 c 1,25,-1
 276 251 l 1,26,27
 253 261 253 261 239 275 c 128,-1,28
 225 289 225 289 217 306.5 c 128,-1,29
 209 324 209 324 206.5 343.5 c 128,-1,30
 204 363 204 363 204 386 c 2,31,-1
 204 516 l 2,32,33
 204 580 204 580 175 610 c 128,-1,34
 146 640 146 640 86 640 c 2,35,-1
 40 640 l 1,36,-1
 40 700 l 1,37,-1
 86 700 l 2,0,1
EndSplineSet
Validated: 1
Substitution2: "'case' Case-Sensitive Forms lookup 16 subtable" braceright.case
Substitution2: "'aalt' Access All Alternates lookup 0 subtable" braceright.case
EndChar

StartChar: asciitilde
Encoding: 126 126 97
Width: 590
GlyphClass: 1
Flags: W
LayerCount: 2
Fore
SplineSet
403 270 m 0,0,1
 363 270 363 270 334 288 c 128,-1,2
 305 306 305 306 281 327 c 128,-1,3
 257 348 257 348 235 366 c 128,-1,4
 213 384 213 384 187 384 c 0,5,6
 157 384 157 384 138.5 364.5 c 128,-1,7
 120 345 120 345 120 310 c 1,8,-1
 50 310 l 1,9,10
 50 341 50 341 60 367 c 128,-1,11
 70 393 70 393 88.5 411.5 c 128,-1,12
 107 430 107 430 132 440 c 128,-1,13
 157 450 157 450 187 450 c 0,14,15
 227 450 227 450 256 432 c 128,-1,16
 285 414 285 414 309 393 c 128,-1,17
 333 372 333 372 355 354 c 128,-1,18
 377 336 377 336 403 336 c 0,19,20
 433 336 433 336 451.5 355.5 c 128,-1,21
 470 375 470 375 470 410 c 1,22,-1
 540 410 l 1,23,24
 540 379 540 379 530 353 c 128,-1,25
 520 327 520 327 501.5 308.5 c 128,-1,26
 483 290 483 290 458 280 c 128,-1,27
 433 270 433 270 403 270 c 0,0,1
EndSplineSet
Validated: 1
EndChar

StartChar: cent
Encoding: 162 162 100
Width: 505
GlyphClass: 1
Flags: W
LayerCount: 2
Fore
SplineSet
239 -5 m 1,0,1
 154 3 154 3 104.5 64 c 128,-1,2
 55 125 55 125 55 238 c 2,3,-1
 55 272 l 2,4,5
 55 376 55 376 105.5 436.5 c 128,-1,6
 156 497 156 497 239 505 c 1,7,-1
 239 600 l 1,8,-1
 301 600 l 1,9,-1
 301 504 l 1,10,11
 337 499 337 499 365 486 c 128,-1,12
 393 473 393 473 413.5 454 c 128,-1,13
 434 435 434 435 447 411 c 128,-1,14
 460 387 460 387 465 360 c 1,15,-1
 397 360 l 1,16,17
 386 397 386 397 356 422 c 128,-1,18
 326 447 326 447 270 447 c 0,19,20
 206 447 206 447 164.5 402 c 128,-1,21
 123 357 123 357 123 272 c 2,22,-1
 123 238 l 2,23,24
 123 146 123 146 165 99.5 c 128,-1,25
 207 53 207 53 270 53 c 0,26,27
 326 53 326 53 356 79 c 128,-1,28
 386 105 386 105 397 150 c 1,29,-1
 465 150 l 1,30,31
 454 89 454 89 413.5 46.5 c 128,-1,32
 373 4 373 4 301 -5 c 1,33,-1
 301 -100 l 1,34,-1
 239 -100 l 1,35,-1
 239 -5 l 1,0,1
EndSplineSet
Validated: 1
Substitution2: "'tnum' Tabular Numbers lookup 14 subtable" cent.fitted
Substitution2: "'aalt' Access All Alternates lookup 0 subtable" cent.fitted
EndChar

StartChar: sterling
Encoding: 163 163 101
Width: 580
GlyphClass: 1
Flags: W
LayerCount: 2
Fore
SplineSet
55 64 m 1,0,1
 77 79 77 79 94 94.5 c 128,-1,2
 111 110 111 110 122 130.5 c 128,-1,3
 133 151 133 151 139 179.5 c 128,-1,4
 145 208 145 208 145 250 c 2,5,-1
 145 301 l 1,6,-1
 55 301 l 1,7,-1
 55 359 l 1,8,-1
 145 359 l 1,9,-1
 145 510 l 2,10,11
 145 552 145 552 160 588.5 c 128,-1,12
 175 625 175 625 201 651 c 128,-1,13
 227 677 227 677 262.5 692 c 128,-1,14
 298 707 298 707 340 707 c 0,15,16
 427 707 427 707 479 652 c 128,-1,17
 531 597 531 597 535 505 c 1,18,-1
 465 505 l 1,19,20
 461 571 461 571 429 606 c 128,-1,21
 397 641 397 641 340 641 c 0,22,23
 285 641 285 641 250 605.5 c 128,-1,24
 215 570 215 570 215 510 c 2,25,-1
 215 359 l 1,26,-1
 400 359 l 1,27,-1
 400 301 l 1,28,-1
 215 301 l 1,29,-1
 215 250 l 2,30,31
 215 211 215 211 211.5 182.5 c 128,-1,32
 208 154 208 154 199.5 132 c 128,-1,33
 191 110 191 110 178.5 94 c 128,-1,34
 166 78 166 78 148 64 c 1,35,-1
 535 64 l 1,36,-1
 535 0 l 1,37,-1
 55 0 l 1,38,-1
 55 64 l 1,0,1
EndSplineSet
Validated: 1
Substitution2: "'tnum' Tabular Numbers lookup 14 subtable" sterling.fitted
Substitution2: "'aalt' Access All Alternates lookup 0 subtable" sterling.fitted
EndChar

StartChar: currency
Encoding: 164 164 102
Width: 590
GlyphClass: 1
Flags: W
LayerCount: 2
Fore
SplineSet
50 160 m 1,0,-1
 136 246 l 1,1,2
 100 296 100 296 100 360 c 0,3,4
 100 392 100 392 109 420 c 128,-1,5
 118 448 118 448 135 472 c 1,6,-1
 50 557 l 1,7,-1
 98 605 l 1,8,-1
 183 520 l 1,9,10
 207 537 207 537 235 546 c 128,-1,11
 263 555 263 555 295 555 c 0,12,13
 359 555 359 555 409 519 c 1,14,-1
 495 605 l 1,15,-1
 540 560 l 1,16,-1
 454 474 l 1,17,18
 490 424 490 424 490 360 c 0,19,20
 490 328 490 328 481 300 c 128,-1,21
 472 272 472 272 455 248 c 1,22,-1
 540 163 l 1,23,-1
 492 115 l 1,24,-1
 407 200 l 1,25,26
 383 183 383 183 355 174 c 128,-1,27
 327 165 327 165 295 165 c 0,28,29
 231 165 231 165 181 201 c 1,30,-1
 95 115 l 1,31,-1
 50 160 l 1,0,-1
295 229 m 256,32,33
 321 229 321 229 344 239.5 c 128,-1,34
 367 250 367 250 384 267.5 c 128,-1,35
 401 285 401 285 411 309 c 128,-1,36
 421 333 421 333 421 360 c 256,37,38
 421 387 421 387 411 411 c 128,-1,39
 401 435 401 435 384 452.5 c 128,-1,40
 367 470 367 470 344 480.5 c 128,-1,41
 321 491 321 491 295 491 c 256,42,43
 269 491 269 491 246 480.5 c 128,-1,44
 223 470 223 470 206 452.5 c 128,-1,45
 189 435 189 435 179 411 c 128,-1,46
 169 387 169 387 169 360 c 256,47,48
 169 333 169 333 179 309 c 128,-1,49
 189 285 189 285 206 267.5 c 128,-1,50
 223 250 223 250 246 239.5 c 128,-1,51
 269 229 269 229 295 229 c 256,32,33
EndSplineSet
Validated: 1
Substitution2: "'tnum' Tabular Numbers lookup 14 subtable" currency.fitted
Substitution2: "'aalt' Access All Alternates lookup 0 subtable" currency.fitted
EndChar

StartChar: yen
Encoding: 165 165 103
Width: 650
GlyphClass: 1
Flags: W
LayerCount: 2
Fore
SplineSet
95 189 m 1,0,-1
 295 189 l 1,1,-1
 295 271 l 1,2,-1
 95 271 l 1,3,-1
 95 329 l 1,4,-1
 253 329 l 1,5,-1
 30 700 l 1,6,-1
 108 700 l 1,7,-1
 331 329 l 1,8,-1
 544 700 l 1,9,-1
 620 700 l 1,10,-1
 406 329 l 1,11,-1
 565 329 l 1,12,-1
 565 271 l 1,13,-1
 365 271 l 1,14,-1
 365 189 l 1,15,-1
 565 189 l 1,16,-1
 565 131 l 1,17,-1
 365 131 l 1,18,-1
 365 0 l 1,19,-1
 295 0 l 1,20,-1
 295 131 l 1,21,-1
 95 131 l 1,22,-1
 95 189 l 1,0,-1
EndSplineSet
Validated: 1
Substitution2: "'tnum' Tabular Numbers lookup 14 subtable" yen.fitted
Substitution2: "'aalt' Access All Alternates lookup 0 subtable" yen.fitted
EndChar

StartChar: brokenbar
Encoding: 166 166 104
Width: 300
GlyphClass: 1
Flags: W
LayerCount: 2
Fore
SplineSet
117 700 m 1,0,-1
 183 700 l 1,1,-1
 183 330 l 1,2,-1
 117 330 l 1,3,-1
 117 700 l 1,0,-1
117 170 m 1,4,-1
 183 170 l 1,5,-1
 183 -200 l 1,6,-1
 117 -200 l 1,7,-1
 117 170 l 1,4,-1
EndSplineSet
Validated: 1
Substitution2: "'case' Case-Sensitive Forms lookup 16 subtable" brokenbar.case
Substitution2: "'aalt' Access All Alternates lookup 0 subtable" brokenbar.case
EndChar

StartChar: section
Encoding: 167 167 105
Width: 480
GlyphClass: 1
Flags: W
LayerCount: 2
Fore
SplineSet
240 -207 m 0,0,1
 162 -207 162 -207 115.5 -164 c 128,-1,2
 69 -121 69 -121 61 -54 c 1,3,-1
 135 -54 l 1,4,5
 140 -92 140 -92 167 -116 c 128,-1,6
 194 -140 194 -140 240 -140 c 0,7,8
 293 -140 293 -140 320 -115.5 c 128,-1,9
 347 -91 347 -91 347 -53 c 0,10,11
 347 -21 347 -21 325 0.5 c 128,-1,12
 303 22 303 22 270 40.5 c 128,-1,13
 237 59 237 59 198.5 77 c 128,-1,14
 160 95 160 95 127 119 c 128,-1,15
 94 143 94 143 72 176.5 c 128,-1,16
 50 210 50 210 50 260 c 0,17,18
 50 309 50 309 77.5 348 c 128,-1,19
 105 387 105 387 156 418 c 1,20,21
 120 441 120 441 95.5 474.5 c 128,-1,22
 71 508 71 508 71 559 c 0,23,24
 71 623 71 623 115.5 665 c 128,-1,25
 160 707 160 707 240 707 c 0,26,27
 276 707 276 707 305.5 696 c 128,-1,28
 335 685 335 685 357 666 c 128,-1,29
 379 647 379 647 392 620.5 c 128,-1,30
 405 594 405 594 409 564 c 1,31,-1
 335 564 l 1,32,33
 330 597 330 597 306.5 618.5 c 128,-1,34
 283 640 283 640 240 640 c 0,35,36
 192 640 192 640 167.5 617.5 c 128,-1,37
 143 595 143 595 143 559 c 0,38,39
 143 525 143 525 164.5 502 c 128,-1,40
 186 479 186 479 217.5 460 c 128,-1,41
 249 441 249 441 286.5 422.5 c 128,-1,42
 324 404 324 404 355.5 380 c 128,-1,43
 387 356 387 356 408.5 322.5 c 128,-1,44
 430 289 430 289 430 240 c 0,45,46
 430 192 430 192 404 154 c 128,-1,47
 378 116 378 116 329 86 c 1,48,49
 367 63 367 63 393 30.5 c 128,-1,50
 419 -2 419 -2 419 -53 c 0,51,52
 419 -86 419 -86 407 -114 c 128,-1,53
 395 -142 395 -142 372 -163 c 128,-1,54
 349 -184 349 -184 315.5 -195.5 c 128,-1,55
 282 -207 282 -207 240 -207 c 0,0,1
122 260 m 0,56,57
 122 233 122 233 134 212.5 c 128,-1,58
 146 192 146 192 166.5 176 c 128,-1,59
 187 160 187 160 212.5 146.5 c 128,-1,60
 238 133 238 133 265 120 c 1,61,62
 311 146 311 146 334.5 173 c 128,-1,63
 358 200 358 200 358 240 c 0,64,65
 358 267 358 267 346 287.5 c 128,-1,66
 334 308 334 308 314.5 324.5 c 128,-1,67
 295 341 295 341 270 354.5 c 128,-1,68
 245 368 245 368 218 382 c 1,69,70
 170 355 170 355 146 328 c 128,-1,71
 122 301 122 301 122 260 c 0,56,57
EndSplineSet
Validated: 1
EndChar

StartChar: dieresis
Encoding: 168 168 106
Width: 340
GlyphClass: 1
Flags: W
LayerCount: 2
Fore
SplineSet
72 588 m 256,0,1
 52 588 52 588 38.5 601.5 c 128,-1,2
 25 615 25 615 25 635 c 256,3,4
 25 655 25 655 38.5 668.5 c 128,-1,5
 52 682 52 682 72 682 c 256,6,7
 92 682 92 682 105.5 668.5 c 128,-1,8
 119 655 119 655 119 635 c 256,9,10
 119 615 119 615 105.5 601.5 c 128,-1,11
 92 588 92 588 72 588 c 256,0,1
268 588 m 256,12,13
 248 588 248 588 234.5 601.5 c 128,-1,14
 221 615 221 615 221 635 c 256,15,16
 221 655 221 655 234.5 668.5 c 128,-1,17
 248 682 248 682 268 682 c 256,18,19
 288 682 288 682 301.5 668.5 c 128,-1,20
 315 655 315 655 315 635 c 256,21,22
 315 615 315 615 301.5 601.5 c 128,-1,23
 288 588 288 588 268 588 c 256,12,13
EndSplineSet
Validated: 1
EndChar

StartChar: copyright
Encoding: 169 169 107
Width: 850
GlyphClass: 1
Flags: W
LayerCount: 2
Fore
SplineSet
425 -7 m 256,0,1
 350 -7 350 -7 284.5 21 c 128,-1,2
 219 49 219 49 170.5 97 c 128,-1,3
 122 145 122 145 94 210 c 128,-1,4
 66 275 66 275 66 350 c 0,5,6
 66 424 66 424 94 489 c 128,-1,7
 122 554 122 554 171 602.5 c 128,-1,8
 220 651 220 651 285 679 c 128,-1,9
 350 707 350 707 425 707 c 256,10,11
 500 707 500 707 565.5 679 c 128,-1,12
 631 651 631 651 679.5 603 c 128,-1,13
 728 555 728 555 756 490 c 128,-1,14
 784 425 784 425 784 350 c 0,15,16
 784 276 784 276 756 211 c 128,-1,17
 728 146 728 146 679 97.5 c 128,-1,18
 630 49 630 49 565 21 c 128,-1,19
 500 -7 500 -7 425 -7 c 256,0,1
425 54 m 256,20,21
 487 54 487 54 541 77 c 128,-1,22
 595 100 595 100 634.5 139.5 c 128,-1,23
 674 179 674 179 697 233 c 128,-1,24
 720 287 720 287 720 350 c 0,25,26
 720 412 720 412 697 466 c 128,-1,27
 674 520 674 520 634.5 560 c 128,-1,28
 595 600 595 600 541 623 c 128,-1,29
 487 646 487 646 425 646 c 256,30,31
 363 646 363 646 309 623 c 128,-1,32
 255 600 255 600 215.5 560 c 128,-1,33
 176 520 176 520 153 466 c 128,-1,34
 130 412 130 412 130 350 c 256,35,36
 130 288 130 288 153 234 c 128,-1,37
 176 180 176 180 215.5 140 c 128,-1,38
 255 100 255 100 309 77 c 128,-1,39
 363 54 363 54 425 54 c 256,20,21
425 143 m 0,40,41
 346 143 346 143 298.5 192 c 128,-1,42
 251 241 251 241 251 333 c 2,43,-1
 251 367 l 2,44,45
 251 457 251 457 299 507 c 128,-1,46
 347 557 347 557 425 557 c 0,47,48
 461 557 461 557 489.5 547 c 128,-1,49
 518 537 518 537 539 521 c 128,-1,50
 560 505 560 505 572.5 484.5 c 128,-1,51
 585 464 585 464 589 442 c 1,52,-1
 523 442 l 1,53,54
 515 462 515 462 491 480.5 c 128,-1,55
 467 499 467 499 425 499 c 0,56,57
 374 499 374 499 344 466 c 128,-1,58
 314 433 314 433 314 367 c 2,59,-1
 314 333 l 2,60,61
 314 268 314 268 345 234.5 c 128,-1,62
 376 201 376 201 425 201 c 0,63,64
 471 201 471 201 494.5 220 c 128,-1,65
 518 239 518 239 526 268 c 1,66,-1
 589 268 l 1,67,68
 585 243 585 243 572 220.5 c 128,-1,69
 559 198 559 198 538 180.5 c 128,-1,70
 517 163 517 163 488.5 153 c 128,-1,71
 460 143 460 143 425 143 c 0,40,41
EndSplineSet
Validated: 1
Substitution2: "'aalt' Access All Alternates lookup 0 subtable" copyright.alt01
EndChar

StartChar: ordfeminine
Encoding: 170 170 108
Width: 350
GlyphClass: 1
Flags: W
LayerCount: 2
Fore
SplineSet
140 373 m 0,0,1
 85 373 85 373 57.5 398.5 c 128,-1,2
 30 424 30 424 30 468 c 0,3,4
 30 516 30 516 63.5 543.5 c 128,-1,5
 97 571 97 571 181 571 c 2,6,-1
 250 571 l 1,7,-1
 250 593 l 2,8,9
 250 627 250 627 234.5 642 c 128,-1,10
 219 657 219 657 180 657 c 0,11,12
 145 657 145 657 129 644.5 c 128,-1,13
 113 632 113 632 109 613 c 1,14,-1
 48 613 l 1,15,16
 52 654 52 654 83 680.5 c 128,-1,17
 114 707 114 707 180 707 c 0,18,19
 248 707 248 707 279 678 c 128,-1,20
 310 649 310 649 310 593 c 2,21,-1
 310 380 l 1,22,-1
 262 380 l 1,23,-1
 255 435 l 1,24,25
 219 373 219 373 140 373 c 0,0,1
149 423 m 0,26,27
 195 423 195 423 222.5 449.5 c 128,-1,28
 250 476 250 476 250 516 c 2,29,-1
 250 529 l 1,30,-1
 181 529 l 2,31,32
 130 529 130 529 111.5 514.5 c 128,-1,33
 93 500 93 500 93 474 c 0,34,35
 93 423 93 423 149 423 c 0,26,27
EndSplineSet
Validated: 1
Substitution2: "'ss01' Style Set 1 lookup 32 subtable" ordfeminine.ss01
Substitution2: "'aalt' Access All Alternates lookup 0 subtable" ordfeminine.ss01
EndChar

StartChar: logicalnot
Encoding: 172 172 110
Width: 590
GlyphClass: 1
Flags: W
LayerCount: 2
Fore
SplineSet
75 392 m 1,0,-1
 515 392 l 1,1,-1
 515 142 l 1,2,-1
 446 142 l 1,3,-1
 446 328 l 1,4,-1
 75 328 l 1,5,-1
 75 392 l 1,0,-1
EndSplineSet
Validated: 1
EndChar

StartChar: registered
Encoding: 174 174 112
Width: 650
GlyphClass: 1
Flags: W
LayerCount: 2
Fore
SplineSet
325 143 m 256,0,1
 266 143 266 143 214.5 165 c 128,-1,2
 163 187 163 187 124.5 225.5 c 128,-1,3
 86 264 86 264 63.5 315 c 128,-1,4
 41 366 41 366 41 425 c 0,5,6
 41 483 41 483 63.5 534.5 c 128,-1,7
 86 586 86 586 124.5 624.5 c 128,-1,8
 163 663 163 663 214.5 685 c 128,-1,9
 266 707 266 707 325 707 c 256,10,11
 384 707 384 707 435.5 685 c 128,-1,12
 487 663 487 663 525.5 624.5 c 128,-1,13
 564 586 564 586 586.5 534.5 c 128,-1,14
 609 483 609 483 609 425 c 0,15,16
 609 366 609 366 586.5 315 c 128,-1,17
 564 264 564 264 525.5 225.5 c 128,-1,18
 487 187 487 187 435.5 165 c 128,-1,19
 384 143 384 143 325 143 c 256,0,1
325 194 m 256,20,21
 372 194 372 194 414 212 c 128,-1,22
 456 230 456 230 487 261.5 c 128,-1,23
 518 293 518 293 536 335 c 128,-1,24
 554 377 554 377 554 425 c 256,25,26
 554 473 554 473 536 515 c 128,-1,27
 518 557 518 557 487 588.5 c 128,-1,28
 456 620 456 620 414 638 c 128,-1,29
 372 656 372 656 325 656 c 256,30,31
 278 656 278 656 236 638 c 128,-1,32
 194 620 194 620 163 588.5 c 128,-1,33
 132 557 132 557 114 515 c 128,-1,34
 96 473 96 473 96 425 c 256,35,36
 96 377 96 377 114 335 c 128,-1,37
 132 293 132 293 163 261.5 c 128,-1,38
 194 230 194 230 236 212 c 128,-1,39
 278 194 278 194 325 194 c 256,20,21
227 575 m 1,40,-1
 331 575 l 2,41,42
 392 575 392 575 419.5 550 c 128,-1,43
 447 525 447 525 447 478 c 0,44,45
 447 407 447 407 385 388 c 1,46,-1
 443 275 l 1,47,-1
 388 275 l 1,48,-1
 338 381 l 1,49,-1
 280 381 l 1,50,-1
 280 275 l 1,51,-1
 227 275 l 1,52,-1
 227 575 l 1,40,-1
280 527 m 1,53,-1
 280 429 l 1,54,-1
 331 429 l 2,55,56
 365 429 365 429 378.5 442 c 128,-1,57
 392 455 392 455 392 478 c 256,58,59
 392 501 392 501 378.5 514 c 128,-1,60
 365 527 365 527 331 527 c 2,61,-1
 280 527 l 1,53,-1
EndSplineSet
Validated: 1
Substitution2: "'aalt' Access All Alternates lookup 0 subtable" registered.alt01
EndChar

StartChar: macron
Encoding: 175 175 113
Width: 300
GlyphClass: 1
Flags: W
LayerCount: 2
Fore
SplineSet
15 663 m 1,0,-1
 285 663 l 1,1,-1
 285 607 l 1,2,-1
 15 607 l 1,3,-1
 15 663 l 1,0,-1
EndSplineSet
Validated: 1
EndChar

StartChar: degree
Encoding: 176 176 114
Width: 360
GlyphClass: 1
Flags: W
LayerCount: 2
Fore
SplineSet
180 401 m 256,0,1
 148 401 148 401 119.5 413 c 128,-1,2
 91 425 91 425 70 446 c 128,-1,3
 49 467 49 467 37 494.5 c 128,-1,4
 25 522 25 522 25 554 c 0,5,6
 25 585 25 585 37 613 c 128,-1,7
 49 641 49 641 70 662 c 128,-1,8
 91 683 91 683 119.5 695 c 128,-1,9
 148 707 148 707 180 707 c 256,10,11
 212 707 212 707 240.5 695 c 128,-1,12
 269 683 269 683 290 662 c 128,-1,13
 311 641 311 641 323 613 c 128,-1,14
 335 585 335 585 335 554 c 0,15,16
 335 522 335 522 323 494.5 c 128,-1,17
 311 467 311 467 290 446 c 128,-1,18
 269 425 269 425 240.5 413 c 128,-1,19
 212 401 212 401 180 401 c 256,0,1
180 459 m 256,20,21
 199 459 199 459 216 466.5 c 128,-1,22
 233 474 233 474 246 486.5 c 128,-1,23
 259 499 259 499 266.5 516.5 c 128,-1,24
 274 534 274 534 274 554 c 256,25,26
 274 574 274 574 266.5 591.5 c 128,-1,27
 259 609 259 609 246 621.5 c 128,-1,28
 233 634 233 634 216 641.5 c 128,-1,29
 199 649 199 649 180 649 c 256,30,31
 161 649 161 649 144 641.5 c 128,-1,32
 127 634 127 634 114 621.5 c 128,-1,33
 101 609 101 609 93.5 591.5 c 128,-1,34
 86 574 86 574 86 554 c 256,35,36
 86 534 86 534 93.5 516.5 c 128,-1,37
 101 499 101 499 114 486.5 c 128,-1,38
 127 474 127 474 144 466.5 c 128,-1,39
 161 459 161 459 180 459 c 256,20,21
EndSplineSet
Validated: 1
EndChar

StartChar: plusminus
Encoding: 177 177 115
Width: 590
GlyphClass: 1
Flags: W
LayerCount: 2
Fore
SplineSet
260 375 m 1,0,-1
 75 375 l 1,1,-1
 75 439 l 1,2,-1
 260 439 l 1,3,-1
 260 631 l 1,4,-1
 330 631 l 1,5,-1
 330 439 l 1,6,-1
 515 439 l 1,7,-1
 515 375 l 1,8,-1
 330 375 l 1,9,-1
 330 233 l 1,10,-1
 260 233 l 1,11,-1
 260 375 l 1,0,-1
75 153 m 1,12,-1
 515 153 l 1,13,-1
 515 89 l 1,14,-1
 75 89 l 1,15,-1
 75 153 l 1,12,-1
EndSplineSet
Validated: 1
EndChar

StartChar: twosuperior
Encoding: 178 178 116
Width: 355
GlyphClass: 1
Flags: W
LayerCount: 2
Fore
SplineSet
26 436 m 1,0,-1
 177 582 l 2,1,2
 202 606 202 606 217 623.5 c 128,-1,3
 232 641 232 641 240.5 655.5 c 128,-1,4
 249 670 249 670 252 682 c 128,-1,5
 255 694 255 694 255 708 c 0,6,7
 255 739 255 739 234 758.5 c 128,-1,8
 213 778 213 778 173 778 c 256,9,10
 133 778 133 778 112 758.5 c 128,-1,11
 91 739 91 739 91 708 c 1,12,-1
 27 708 l 1,13,14
 27 763 27 763 66 800 c 128,-1,15
 105 837 105 837 173 837 c 256,16,17
 241 837 241 837 280 800 c 128,-1,18
 319 763 319 763 319 708 c 0,19,20
 319 687 319 687 314 668 c 128,-1,21
 309 649 309 649 297 629.5 c 128,-1,22
 285 610 285 610 266 588.5 c 128,-1,23
 247 567 247 567 220 541 c 2,24,-1
 109 436 l 1,25,-1
 320 436 l 1,26,-1
 320 380 l 1,27,-1
 26 380 l 1,28,-1
 26 436 l 1,0,-1
EndSplineSet
Validated: 1
Substitution2: "'dnom' Denominators lookup 10 subtable" two.denominator
Substitution2: "'aalt' Access All Alternates lookup 0 subtable" two.denominator
EndChar

StartChar: threesuperior
Encoding: 179 179 117
Width: 370
GlyphClass: 1
Flags: W
LayerCount: 2
Fore
SplineSet
180 373 m 0,0,1
 106 373 106 373 67.5 410 c 128,-1,2
 29 447 29 447 25 517 c 1,3,-1
 89 517 l 1,4,5
 98 432 98 432 180 432 c 0,6,7
 225 432 225 432 248 453.5 c 128,-1,8
 271 475 271 475 271 508 c 0,9,10
 271 539 271 539 247 560.5 c 128,-1,11
 223 582 223 582 181 582 c 2,12,-1
 122 582 l 1,13,-1
 122 638 l 1,14,-1
 181 638 l 2,15,16
 220 638 220 638 241 657.5 c 128,-1,17
 262 677 262 677 262 708 c 0,18,19
 262 740 262 740 241.5 759 c 128,-1,20
 221 778 221 778 180 778 c 0,21,22
 141 778 141 778 121.5 759.5 c 128,-1,23
 102 741 102 741 98 707 c 1,24,-1
 34 707 l 1,25,26
 38 766 38 766 75 801.5 c 128,-1,27
 112 837 112 837 180 837 c 0,28,29
 249 837 249 837 287.5 801.5 c 128,-1,30
 326 766 326 766 326 714 c 0,31,32
 326 679 326 679 310 653 c 128,-1,33
 294 627 294 627 262 613 c 1,34,35
 297 598 297 598 316 569.5 c 128,-1,36
 335 541 335 541 335 506 c 0,37,38
 335 446 335 446 295.5 409.5 c 128,-1,39
 256 373 256 373 180 373 c 0,0,1
EndSplineSet
Validated: 1
Substitution2: "'dnom' Denominators lookup 10 subtable" three.denominator
Substitution2: "'aalt' Access All Alternates lookup 0 subtable" three.denominator
EndChar

StartChar: acute
Encoding: 180 180 118
Width: 250
GlyphClass: 1
Flags: W
LayerCount: 2
Fore
SplineSet
139 715 m 1,0,-1
 225 715 l 1,1,-1
 95 565 l 1,2,-1
 25 565 l 1,3,-1
 139 715 l 1,0,-1
EndSplineSet
Validated: 1
Substitution2: "Single Substitution lookup 42 subtable" grave
Substitution2: "'aalt' Access All Alternates lookup 0 subtable" acute.PLK
EndChar

StartChar: mu
Encoding: 181 181 119
AltUni2: 0003bc.ffffffff.0
Width: 570
GlyphClass: 1
Flags: W
LayerCount: 2
Fore
SplineSet
85 500 m 1,0,-1
 151 500 l 1,1,-1
 151 200 l 2,2,3
 151 127 151 127 184.5 91 c 128,-1,4
 218 55 218 55 275 55 c 0,5,6
 339 55 339 55 379 95 c 128,-1,7
 419 135 419 135 419 200 c 2,8,-1
 419 500 l 1,9,-1
 485 500 l 1,10,-1
 485 0 l 1,11,-1
 434 0 l 1,12,-1
 426 82 l 1,13,14
 401 39 401 39 359.5 16 c 128,-1,15
 318 -7 318 -7 265 -7 c 0,16,17
 195 -7 195 -7 151 37 c 1,18,-1
 151 -200 l 1,19,-1
 85 -200 l 1,20,-1
 85 500 l 1,0,-1
EndSplineSet
Validated: 1
EndChar

StartChar: paragraph
Encoding: 182 182 120
Width: 660
GlyphClass: 1
Flags: W
LayerCount: 2
Fore
SplineSet
245 263 m 1,0,1
 206 269 206 269 172 288.5 c 128,-1,2
 138 308 138 308 113 337 c 128,-1,3
 88 366 88 366 74 402.5 c 128,-1,4
 60 439 60 439 60 480 c 0,5,6
 60 525 60 525 77.5 565 c 128,-1,7
 95 605 95 605 125 635 c 128,-1,8
 155 665 155 665 195 682.5 c 128,-1,9
 235 700 235 700 280 700 c 2,10,-1
 630 700 l 1,11,-1
 630 636 l 1,12,-1
 541 636 l 1,13,-1
 541 -200 l 1,14,-1
 472 -200 l 1,15,-1
 472 636 l 1,16,-1
 315 636 l 1,17,-1
 315 -200 l 1,18,-1
 245 -200 l 1,19,-1
 245 263 l 1,0,1
EndSplineSet
Validated: 1
EndChar

StartChar: cedilla
Encoding: 184 184 122
Width: 190
GlyphClass: 1
Flags: W
LayerCount: 2
Fore
SplineSet
15 -152 m 1,0,-1
 70 -152 l 2,1,2
 97 -152 97 -152 108 -142.5 c 128,-1,3
 119 -133 119 -133 119 -115 c 256,4,5
 119 -97 119 -97 108 -87.5 c 128,-1,6
 97 -78 97 -78 70 -78 c 2,7,-1
 49 -78 l 1,8,-1
 71 10 l 1,9,-1
 123 10 l 1,10,-1
 109 -39 l 1,11,12
 141 -44 141 -44 158 -63.5 c 128,-1,13
 175 -83 175 -83 175 -114 c 0,14,15
 175 -153 175 -153 151 -176.5 c 128,-1,16
 127 -200 127 -200 85 -200 c 2,17,-1
 15 -200 l 1,18,-1
 15 -152 l 1,0,-1
EndSplineSet
Validated: 1
EndChar

StartChar: onesuperior
Encoding: 185 185 123
Width: 260
GlyphClass: 1
Flags: W
LayerCount: 2
Fore
SplineSet
139 762 m 1,0,-1
 20 687 l 1,1,-1
 20 756 l 1,2,-1
 139 830 l 1,3,-1
 200 830 l 1,4,-1
 200 380 l 1,5,-1
 139 380 l 1,6,-1
 139 762 l 1,0,-1
EndSplineSet
Validated: 1
Substitution2: "'dnom' Denominators lookup 10 subtable" one.denominator
Substitution2: "'aalt' Access All Alternates lookup 0 subtable" one.denominator
EndChar

StartChar: ordmasculine
Encoding: 186 186 124
Width: 360
GlyphClass: 1
Flags: W
LayerCount: 2
Fore
SplineSet
180 373 m 256,0,1
 112 373 112 373 71 414 c 128,-1,2
 30 455 30 455 30 524 c 2,3,-1
 30 556 l 2,4,5
 30 625 30 625 71 666 c 128,-1,6
 112 707 112 707 180 707 c 256,7,8
 248 707 248 707 289 666 c 128,-1,9
 330 625 330 625 330 556 c 2,10,-1
 330 524 l 2,11,12
 330 455 330 455 289 414 c 128,-1,13
 248 373 248 373 180 373 c 256,0,1
180 431 m 256,14,15
 219 431 219 431 242.5 455 c 128,-1,16
 266 479 266 479 266 524 c 2,17,-1
 266 556 l 2,18,19
 266 601 266 601 242.5 625 c 128,-1,20
 219 649 219 649 180 649 c 256,21,22
 141 649 141 649 117.5 625 c 128,-1,23
 94 601 94 601 94 556 c 2,24,-1
 94 524 l 2,25,26
 94 479 94 479 117.5 455 c 128,-1,27
 141 431 141 431 180 431 c 256,14,15
EndSplineSet
Validated: 1
EndChar

StartChar: AE
Encoding: 198 198 136
Width: 930
GlyphClass: 1
Flags: W
LayerCount: 2
Fore
SplineSet
430 700 m 1,0,-1
 880 700 l 1,1,-1
 880 636 l 1,2,-1
 530 636 l 1,3,-1
 530 392 l 1,4,-1
 820 392 l 1,5,-1
 820 328 l 1,6,-1
 530 328 l 1,7,-1
 530 64 l 1,8,-1
 880 64 l 1,9,-1
 880 0 l 1,10,-1
 460 0 l 1,11,-1
 460 203 l 1,12,-1
 214 203 l 1,13,-1
 96 0 l 1,14,-1
 20 0 l 1,15,-1
 430 700 l 1,0,-1
460 267 m 1,16,-1
 460 628 l 1,17,-1
 251 267 l 1,18,-1
 460 267 l 1,16,-1
EndSplineSet
Validated: 1
Position2: "'cpsp' Capital Spacing lookup 0 subtable" dx=5 dy=0 dh=10 dv=0
EndChar

StartChar: Ccedilla
Encoding: 199 199 137
Width: 670
GlyphClass: 1
Flags: W
LayerCount: 2
Fore
SplineSet
270 -150 m 1,0,-1
 325 -150 l 2,1,2
 351 -150 351 -150 361.5 -141 c 128,-1,3
 372 -132 372 -132 372 -115 c 256,4,5
 372 -98 372 -98 361.5 -89 c 128,-1,6
 351 -80 351 -80 325 -80 c 2,7,-1
 303 -80 l 1,8,-1
 321 -6 l 1,9,10
 264 -1 264 -1 217 23 c 128,-1,11
 170 47 170 47 136 89.5 c 128,-1,12
 102 132 102 132 83.5 191.5 c 128,-1,13
 65 251 65 251 65 328 c 2,14,-1
 65 382 l 2,15,16
 65 459 65 459 86 519.5 c 128,-1,17
 107 580 107 580 145 621.5 c 128,-1,18
 183 663 183 663 235.5 685 c 128,-1,19
 288 707 288 707 350 707 c 0,20,21
 407 707 407 707 452.5 690.5 c 128,-1,22
 498 674 498 674 532 646 c 128,-1,23
 566 618 566 618 586.5 580.5 c 128,-1,24
 607 543 607 543 615 500 c 1,25,-1
 541 500 l 1,26,27
 533 530 533 530 517.5 556 c 128,-1,28
 502 582 502 582 478 601.5 c 128,-1,29
 454 621 454 621 422 632 c 128,-1,30
 390 643 390 643 350 643 c 0,31,32
 304 643 304 643 265 626 c 128,-1,33
 226 609 226 609 197.5 576 c 128,-1,34
 169 543 169 543 153 494.5 c 128,-1,35
 137 446 137 446 137 382 c 2,36,-1
 137 328 l 2,37,38
 137 261 137 261 153.5 210 c 128,-1,39
 170 159 170 159 198.5 125 c 128,-1,40
 227 91 227 91 266 74 c 128,-1,41
 305 57 305 57 350 57 c 0,42,43
 431 57 431 57 478.5 100 c 128,-1,44
 526 143 526 143 541 210 c 1,45,-1
 615 210 l 1,46,47
 608 166 608 166 589 128 c 128,-1,48
 570 90 570 90 539.5 61.5 c 128,-1,49
 509 33 509 33 467.5 15 c 128,-1,50
 426 -3 426 -3 374 -6 c 1,51,-1
 365 -39 l 1,52,53
 430 -50 430 -50 430 -114 c 0,54,55
 430 -153 430 -153 406 -176.5 c 128,-1,56
 382 -200 382 -200 340 -200 c 2,57,-1
 270 -200 l 1,58,-1
 270 -150 l 1,0,-1
EndSplineSet
Validated: 1
Position2: "'cpsp' Capital Spacing lookup 0 subtable" dx=5 dy=0 dh=10 dv=0
EndChar

StartChar: Eth
Encoding: 208 208 146
Width: 700
GlyphClass: 1
Flags: W
LayerCount: 2
Fore
SplineSet
110 320 m 1,0,-1
 20 320 l 1,1,-1
 20 380 l 1,2,-1
 110 380 l 1,3,-1
 110 700 l 1,4,-1
 325 700 l 2,5,6
 475 700 475 700 555 619 c 128,-1,7
 635 538 635 538 635 382 c 2,8,-1
 635 328 l 2,9,10
 635 165 635 165 554.5 82.5 c 128,-1,11
 474 0 474 0 325 0 c 2,12,-1
 110 0 l 1,13,-1
 110 320 l 1,0,-1
320 64 m 2,14,15
 438 64 438 64 500.5 129 c 128,-1,16
 563 194 563 194 563 328 c 2,17,-1
 563 382 l 2,18,19
 563 508 563 508 500.5 572 c 128,-1,20
 438 636 438 636 320 636 c 2,21,-1
 180 636 l 1,22,-1
 180 380 l 1,23,-1
 370 380 l 1,24,-1
 370 320 l 1,25,-1
 180 320 l 1,26,-1
 180 64 l 1,27,-1
 320 64 l 2,14,15
EndSplineSet
Validated: 1
Position2: "'cpsp' Capital Spacing lookup 0 subtable" dx=5 dy=0 dh=10 dv=0
EndChar

StartChar: multiply
Encoding: 215 215 153
Width: 590
GlyphClass: 1
Flags: W
LayerCount: 2
Fore
SplineSet
110 222 m 1,0,-1
 248 360 l 1,1,-1
 110 498 l 1,2,-1
 157 545 l 1,3,-1
 295 407 l 1,4,-1
 433 545 l 1,5,-1
 480 498 l 1,6,-1
 342 360 l 1,7,-1
 480 222 l 1,8,-1
 433 175 l 1,9,-1
 295 313 l 1,10,-1
 157 175 l 1,11,-1
 110 222 l 1,0,-1
EndSplineSet
Validated: 1
Substitution2: "'ss08' Style Set 8 lookup 39 subtable" multiply.ss08
Substitution2: "'aalt' Access All Alternates lookup 0 subtable" multiply.ss08
EndChar

StartChar: Oslash
Encoding: 216 216 154
Width: 710
GlyphClass: 1
Flags: W
LayerCount: 2
Fore
SplineSet
355 -7 m 0,0,1
 240 -7 240 -7 163 62 c 1,2,-1
 108 -7 l 1,3,-1
 65 29 l 1,4,-1
 125 105 l 1,5,6
 96 147 96 147 80.5 202.5 c 128,-1,7
 65 258 65 258 65 328 c 2,8,-1
 65 382 l 2,9,10
 65 459 65 459 86.5 519.5 c 128,-1,11
 108 580 108 580 146 621.5 c 128,-1,12
 184 663 184 663 237.5 685 c 128,-1,13
 291 707 291 707 355 707 c 0,14,15
 472 707 472 707 548 639 c 1,16,-1
 602 707 l 1,17,-1
 645 671 l 1,18,-1
 586 596 l 1,19,20
 615 555 615 555 630 501.5 c 128,-1,21
 645 448 645 448 645 382 c 2,22,-1
 645 328 l 2,23,24
 645 247 645 247 623.5 184.5 c 128,-1,25
 602 122 602 122 564 79.5 c 128,-1,26
 526 37 526 37 472.5 15 c 128,-1,27
 419 -7 419 -7 355 -7 c 0,0,1
504 583 m 1,28,29
 446 643 446 643 355 643 c 0,30,31
 307 643 307 643 267 626 c 128,-1,32
 227 609 227 609 198 576 c 128,-1,33
 169 543 169 543 153 494.5 c 128,-1,34
 137 446 137 446 137 382 c 2,35,-1
 137 328 l 2,36,37
 137 278 137 278 146.5 237.5 c 128,-1,38
 156 197 156 197 173 165 c 1,39,-1
 504 583 l 1,28,29
355 57 m 0,40,41
 403 57 403 57 443 74 c 128,-1,42
 483 91 483 91 512 125 c 128,-1,43
 541 159 541 159 557 209.5 c 128,-1,44
 573 260 573 260 573 328 c 2,45,-1
 573 382 l 2,46,47
 573 429 573 429 564 467 c 128,-1,48
 555 505 555 505 538 536 c 1,49,-1
 207 117 l 1,50,51
 264 57 264 57 355 57 c 0,40,41
EndSplineSet
Validated: 1
Position2: "'cpsp' Capital Spacing lookup 0 subtable" dx=5 dy=0 dh=10 dv=0
EndChar

StartChar: Thorn
Encoding: 222 222 160
Width: 600
GlyphClass: 1
Flags: W
LayerCount: 2
Fore
SplineSet
90 700 m 1,0,-1
 160 700 l 1,1,-1
 160 577 l 1,2,-1
 315 577 l 2,3,4
 440 577 440 577 500 520 c 128,-1,5
 560 463 560 463 560 360 c 0,6,7
 560 258 560 258 499 200.5 c 128,-1,8
 438 143 438 143 315 143 c 2,9,-1
 160 143 l 1,10,-1
 160 0 l 1,11,-1
 90 0 l 1,12,-1
 90 700 l 1,0,-1
160 513 m 1,13,-1
 160 207 l 1,14,-1
 310 207 l 2,15,16
 405 207 405 207 446.5 245.5 c 128,-1,17
 488 284 488 284 488 360 c 0,18,19
 488 435 488 435 446 474 c 128,-1,20
 404 513 404 513 310 513 c 2,21,-1
 160 513 l 1,13,-1
EndSplineSet
Validated: 1
Position2: "'cpsp' Capital Spacing lookup 0 subtable" dx=5 dy=0 dh=10 dv=0
EndChar

StartChar: germandbls
Encoding: 223 223 161
Width: 560
GlyphClass: 1
Flags: W
LayerCount: 2
Fore
SplineSet
85 500 m 2,0,1
 85 547 85 547 99.5 585 c 128,-1,2
 114 623 114 623 141 650 c 128,-1,3
 168 677 168 677 206 692 c 128,-1,4
 244 707 244 707 290 707 c 0,5,6
 334 707 334 707 370 693.5 c 128,-1,7
 406 680 406 680 431.5 656 c 128,-1,8
 457 632 457 632 471 599 c 128,-1,9
 485 566 485 566 485 528 c 0,10,11
 485 428 485 428 397 377 c 1,12,-1
 397 375 l 1,13,14
 505 338 505 338 505 212 c 2,15,-1
 505 188 l 2,16,17
 505 97 505 97 455.5 48.5 c 128,-1,18
 406 0 406 0 310 0 c 2,19,-1
 240 0 l 1,20,-1
 240 60 l 1,21,-1
 305 60 l 2,22,23
 369 60 369 60 403 93.5 c 128,-1,24
 437 127 437 127 437 188 c 2,25,-1
 437 212 l 2,26,27
 437 273 437 273 403 306.5 c 128,-1,28
 369 340 369 340 305 340 c 2,29,-1
 240 340 l 1,30,-1
 240 400 l 1,31,-1
 290 400 l 2,32,33
 348 400 348 400 382.5 434 c 128,-1,34
 417 468 417 468 417 523 c 0,35,36
 417 579 417 579 382.5 613 c 128,-1,37
 348 647 348 647 290 647 c 0,38,39
 227 647 227 647 189 607.5 c 128,-1,40
 151 568 151 568 151 495 c 2,41,-1
 151 0 l 1,42,-1
 85 0 l 1,43,-1
 85 500 l 2,0,1
EndSplineSet
Validated: 1
EndChar

StartChar: ae
Encoding: 230 230 168
Width: 855
GlyphClass: 1
Flags: W
LayerCount: 2
Fore
SplineSet
210 -7 m 0,0,1
 131 -7 131 -7 90.5 31.5 c 128,-1,2
 50 70 50 70 50 138 c 0,3,4
 50 172 50 172 62 200 c 128,-1,5
 74 228 74 228 99.5 247.5 c 128,-1,6
 125 267 125 267 166 278 c 128,-1,7
 207 289 207 289 266 289 c 2,8,-1
 374 289 l 1,9,-1
 374 340 l 2,10,11
 374 394 374 394 347.5 419.5 c 128,-1,12
 321 445 321 445 260 445 c 0,13,14
 205 445 205 445 177.5 423.5 c 128,-1,15
 150 402 150 402 146 365 c 1,16,-1
 75 365 l 1,17,18
 77 396 77 396 89 422 c 128,-1,19
 101 448 101 448 124 467 c 128,-1,20
 147 486 147 486 181 496.5 c 128,-1,21
 215 507 215 507 260 507 c 0,22,23
 379 507 379 507 419 422 c 1,24,25
 446 464 446 464 489 485.5 c 128,-1,26
 532 507 532 507 587 507 c 0,27,28
 635 507 635 507 674.5 491.5 c 128,-1,29
 714 476 714 476 741.5 446 c 128,-1,30
 769 416 769 416 784.5 372 c 128,-1,31
 800 328 800 328 800 272 c 2,32,-1
 800 231 l 1,33,-1
 440 231 l 1,34,35
 440 141 440 141 479.5 98 c 128,-1,36
 519 55 519 55 587 55 c 0,37,38
 648 55 648 55 680 81 c 128,-1,39
 712 107 712 107 727 146 c 1,40,-1
 795 146 l 1,41,42
 787 114 787 114 771 86 c 128,-1,43
 755 58 755 58 729 37.5 c 128,-1,44
 703 17 703 17 667.5 5 c 128,-1,45
 632 -7 632 -7 587 -7 c 0,46,47
 522 -7 522 -7 474.5 22.5 c 128,-1,48
 427 52 427 52 402 108 c 1,49,50
 376 54 376 54 326 23.5 c 128,-1,51
 276 -7 276 -7 210 -7 c 0,0,1
589 445 m 0,52,53
 526 445 526 445 485.5 405.5 c 128,-1,54
 445 366 445 366 440 289 c 1,55,-1
 732 289 l 1,56,57
 727 367 727 367 688.5 406 c 128,-1,58
 650 445 650 445 589 445 c 0,52,53
210 55 m 0,59,60
 244 55 244 55 274 67.5 c 128,-1,61
 304 80 304 80 326.5 101.5 c 128,-1,62
 349 123 349 123 361.5 152.5 c 128,-1,63
 374 182 374 182 374 215 c 2,64,-1
 374 231 l 1,65,-1
 266 231 l 2,66,67
 222 231 222 231 193.5 224 c 128,-1,68
 165 217 165 217 148 204.5 c 128,-1,69
 131 192 131 192 124.5 175 c 128,-1,70
 118 158 118 158 118 138 c 0,71,72
 118 100 118 100 141.5 77.5 c 128,-1,73
 165 55 165 55 210 55 c 0,59,60
EndSplineSet
Validated: 1
Substitution2: "'ss01' Style Set 1 lookup 32 subtable" ae.ss01
Substitution2: "'aalt' Access All Alternates lookup 0 subtable" ae.ss01
EndChar

StartChar: ccedilla
Encoding: 231 231 169
Width: 505
GlyphClass: 1
Flags: W
LayerCount: 2
Fore
SplineSet
190 -152 m 1,0,-1
 245 -152 l 2,1,2
 272 -152 272 -152 283 -142.5 c 128,-1,3
 294 -133 294 -133 294 -115 c 256,4,5
 294 -97 294 -97 283 -87.5 c 128,-1,6
 272 -78 272 -78 245 -78 c 2,7,-1
 224 -78 l 1,8,-1
 242 -6 l 1,9,10
 157 2 157 2 106 63 c 128,-1,11
 55 124 55 124 55 238 c 2,12,-1
 55 272 l 2,13,14
 55 328 55 328 70.5 371.5 c 128,-1,15
 86 415 86 415 113.5 445 c 128,-1,16
 141 475 141 475 179.5 491 c 128,-1,17
 218 507 218 507 265 507 c 0,18,19
 309 507 309 507 344 495.5 c 128,-1,20
 379 484 379 484 404 463.5 c 128,-1,21
 429 443 429 443 444 416.5 c 128,-1,22
 459 390 459 390 465 360 c 1,23,-1
 397 360 l 1,24,25
 386 397 386 397 356 422 c 128,-1,26
 326 447 326 447 270 447 c 0,27,28
 206 447 206 447 164.5 402 c 128,-1,29
 123 357 123 357 123 272 c 2,30,-1
 123 238 l 2,31,32
 123 146 123 146 165 99.5 c 128,-1,33
 207 53 207 53 270 53 c 0,34,35
 326 53 326 53 356 79 c 128,-1,36
 386 105 386 105 397 150 c 1,37,-1
 465 150 l 1,38,39
 454 88 454 88 411.5 45 c 128,-1,40
 369 2 369 2 294 -6 c 1,41,-1
 284 -39 l 1,42,43
 316 -44 316 -44 333 -63.5 c 128,-1,44
 350 -83 350 -83 350 -114 c 0,45,46
 350 -153 350 -153 326 -176.5 c 128,-1,47
 302 -200 302 -200 260 -200 c 2,48,-1
 190 -200 l 1,49,-1
 190 -152 l 1,0,-1
EndSplineSet
Validated: 1
EndChar

StartChar: eth
Encoding: 240 240 178
Width: 545
GlyphClass: 1
Flags: W
LayerCount: 2
Fore
SplineSet
270 -7 m 256,0,1
 223 -7 223 -7 183.5 9 c 128,-1,2
 144 25 144 25 115.5 54.5 c 128,-1,3
 87 84 87 84 71 125.5 c 128,-1,4
 55 167 55 167 55 218 c 2,5,-1
 55 262 l 2,6,7
 55 313 55 313 71 354.5 c 128,-1,8
 87 396 87 396 114.5 425.5 c 128,-1,9
 142 455 142 455 179 471 c 128,-1,10
 216 487 216 487 258 487 c 0,11,12
 327 487 327 487 376 450 c 1,13,14
 355 485 355 485 328 519.5 c 128,-1,15
 301 554 301 554 269 587 c 1,16,-1
 165 530 l 1,17,-1
 165 580 l 1,18,-1
 236 619 l 1,19,20
 214 640 214 640 190.5 660 c 128,-1,21
 167 680 167 680 144 700 c 1,22,-1
 231 700 l 1,23,24
 259 676 259 676 289 648 c 1,25,-1
 385 700 l 1,26,-1
 385 650 l 1,27,-1
 321 615 l 1,28,29
 354 581 354 581 383.5 542 c 128,-1,30
 413 503 413 503 435.5 459 c 128,-1,31
 458 415 458 415 471.5 365.5 c 128,-1,32
 485 316 485 316 485 262 c 2,33,-1
 485 218 l 2,34,35
 485 167 485 167 469 125.5 c 128,-1,36
 453 84 453 84 424.5 54.5 c 128,-1,37
 396 25 396 25 356.5 9 c 128,-1,38
 317 -7 317 -7 270 -7 c 256,0,1
123 218 m 2,39,40
 123 141 123 141 164 98 c 128,-1,41
 205 55 205 55 270 55 c 0,42,43
 336 55 336 55 376.5 97.5 c 128,-1,44
 417 140 417 140 417 218 c 2,45,-1
 417 262 l 2,46,47
 417 340 417 340 376.5 382.5 c 128,-1,48
 336 425 336 425 270 425 c 256,49,50
 204 425 204 425 163.5 382.5 c 128,-1,51
 123 340 123 340 123 262 c 2,52,-1
 123 218 l 2,39,40
EndSplineSet
Validated: 1
EndChar

StartChar: divide
Encoding: 247 247 185
Width: 590
GlyphClass: 1
Flags: W
LayerCount: 2
Fore
SplineSet
75 392 m 1,0,-1
 515 392 l 1,1,-1
 515 328 l 1,2,-1
 75 328 l 1,3,-1
 75 392 l 1,0,-1
295 495 m 256,4,5
 271 495 271 495 255.5 510.5 c 128,-1,6
 240 526 240 526 240 550 c 256,7,8
 240 574 240 574 255.5 589.5 c 128,-1,9
 271 605 271 605 295 605 c 256,10,11
 319 605 319 605 334.5 589.5 c 128,-1,12
 350 574 350 574 350 550 c 256,13,14
 350 526 350 526 334.5 510.5 c 128,-1,15
 319 495 319 495 295 495 c 256,4,5
295 115 m 256,16,17
 271 115 271 115 255.5 130.5 c 128,-1,18
 240 146 240 146 240 170 c 256,19,20
 240 194 240 194 255.5 209.5 c 128,-1,21
 271 225 271 225 295 225 c 256,22,23
 319 225 319 225 334.5 209.5 c 128,-1,24
 350 194 350 194 350 170 c 256,25,26
 350 146 350 146 334.5 130.5 c 128,-1,27
 319 115 319 115 295 115 c 256,16,17
EndSplineSet
Validated: 1
EndChar

StartChar: oslash
Encoding: 248 248 186
Width: 550
GlyphClass: 1
Flags: W
LayerCount: 2
Fore
SplineSet
275 -7 m 0,0,1
 188 -7 188 -7 133 38 c 1,2,-1
 95 -7 l 1,3,-1
 55 26 l 1,4,-1
 97 77 l 1,5,6
 77 106 77 106 66 145.5 c 128,-1,7
 55 185 55 185 55 233 c 2,8,-1
 55 267 l 2,9,10
 55 324 55 324 70.5 369 c 128,-1,11
 86 414 86 414 115 444.5 c 128,-1,12
 144 475 144 475 184.5 491 c 128,-1,13
 225 507 225 507 275 507 c 0,14,15
 361 507 361 507 417 462 c 1,16,-1
 455 507 l 1,17,-1
 495 474 l 1,18,-1
 453 423 l 1,19,20
 473 394 473 394 484 354.5 c 128,-1,21
 495 315 495 315 495 267 c 2,22,-1
 495 233 l 2,23,24
 495 176 495 176 479.5 131 c 128,-1,25
 464 86 464 86 435 55.5 c 128,-1,26
 406 25 406 25 365.5 9 c 128,-1,27
 325 -7 325 -7 275 -7 c 0,0,1
375 411 m 1,28,29
 336 447 336 447 275 447 c 0,30,31
 206 447 206 447 164.5 402 c 128,-1,32
 123 357 123 357 123 267 c 2,33,-1
 123 233 l 2,34,35
 123 174 123 174 143 132 c 1,36,-1
 375 411 l 1,28,29
275 53 m 0,37,38
 344 53 344 53 385.5 98 c 128,-1,39
 427 143 427 143 427 233 c 2,40,-1
 427 267 l 2,41,42
 427 326 427 326 407 368 c 1,43,-1
 175 89 l 1,44,45
 214 53 214 53 275 53 c 0,37,38
EndSplineSet
Validated: 1
EndChar

StartChar: thorn
Encoding: 254 254 192
Width: 570
GlyphClass: 1
Flags: W
LayerCount: 2
Fore
SplineSet
85 700 m 1,0,-1
 151 700 l 1,1,-1
 151 430 l 1,2,-1
 153 430 l 1,3,4
 206 507 206 507 314 507 c 0,5,6
 358 507 358 507 395 491.5 c 128,-1,7
 432 476 432 476 458.5 445.5 c 128,-1,8
 485 415 485 415 500 370 c 128,-1,9
 515 325 515 325 515 267 c 2,10,-1
 515 233 l 2,11,12
 515 175 515 175 500 130.5 c 128,-1,13
 485 86 485 86 458 55.5 c 128,-1,14
 431 25 431 25 394 9 c 128,-1,15
 357 -7 357 -7 314 -7 c 0,16,17
 206 -7 206 -7 153 70 c 1,18,-1
 151 70 l 1,19,-1
 151 -200 l 1,20,-1
 85 -200 l 1,21,-1
 85 700 l 1,0,-1
299 53 m 0,22,23
 365 53 365 53 406 97.5 c 128,-1,24
 447 142 447 142 447 233 c 2,25,-1
 447 267 l 2,26,27
 447 356 447 356 405.5 401.5 c 128,-1,28
 364 447 364 447 299 447 c 0,29,30
 233 447 233 447 192 402.5 c 128,-1,31
 151 358 151 358 151 267 c 2,32,-1
 151 233 l 2,33,34
 151 144 151 144 192.5 98.5 c 128,-1,35
 234 53 234 53 299 53 c 0,22,23
EndSplineSet
Validated: 1
EndChar

StartChar: Aogonek
Encoding: 260 260 198
Width: 660
GlyphClass: 1
Flags: W
LayerCount: 2
Fore
SplineSet
290 700 m 1,0,-1
 370 700 l 1,1,-1
 630 0 l 1,2,3
 604 -25 604 -25 587.5 -42.5 c 128,-1,4
 571 -60 571 -60 561 -73 c 128,-1,5
 551 -86 551 -86 547.5 -96 c 128,-1,6
 544 -106 544 -106 544 -116 c 0,7,8
 544 -144 544 -144 580 -144 c 2,9,-1
 630 -144 l 1,10,-1
 630 -200 l 1,11,-1
 570 -200 l 2,12,13
 525 -200 525 -200 502.5 -179 c 128,-1,14
 480 -158 480 -158 480 -123 c 0,15,16
 480 -93 480 -93 496.5 -64 c 128,-1,17
 513 -35 513 -35 553 3 c 1,18,-1
 481 203 l 1,19,-1
 175 203 l 1,20,-1
 102 0 l 1,21,-1
 30 0 l 1,22,-1
 290 700 l 1,0,-1
458 267 m 1,23,-1
 330 625 l 1,24,-1
 328 625 l 1,25,-1
 198 267 l 1,26,-1
 458 267 l 1,23,-1
EndSplineSet
Validated: 1
Position2: "'cpsp' Capital Spacing lookup 0 subtable" dx=5 dy=0 dh=10 dv=0
EndChar

StartChar: aogonek
Encoding: 261 261 199
Width: 530
GlyphClass: 1
Flags: W
LayerCount: 2
Fore
SplineSet
215 -7 m 0,0,1
 132 -7 132 -7 91 31.5 c 128,-1,2
 50 70 50 70 50 138 c 0,3,4
 50 209 50 209 99 251 c 128,-1,5
 148 293 148 293 255 293 c 2,6,-1
 384 293 l 1,7,-1
 384 330 l 2,8,9
 384 390 384 390 355 417.5 c 128,-1,10
 326 445 326 445 260 445 c 0,11,12
 199 445 199 445 170.5 424 c 128,-1,13
 142 403 142 403 138 370 c 1,14,-1
 70 370 l 1,15,16
 72 397 72 397 85 422 c 128,-1,17
 98 447 98 447 121.5 466 c 128,-1,18
 145 485 145 485 180 496 c 128,-1,19
 215 507 215 507 260 507 c 0,20,21
 357 507 357 507 403.5 462.5 c 128,-1,22
 450 418 450 418 450 330 c 2,23,-1
 450 0 l 1,24,-1
 445 0 l 1,25,26
 418 -26 418 -26 401 -43.5 c 128,-1,27
 384 -61 384 -61 374 -74 c 128,-1,28
 364 -87 364 -87 360.5 -96.5 c 128,-1,29
 357 -106 357 -106 357 -116 c 0,30,31
 357 -130 357 -130 366 -138 c 128,-1,32
 375 -146 375 -146 395 -146 c 2,33,-1
 445 -146 l 1,34,-1
 445 -200 l 1,35,-1
 385 -200 l 2,36,37
 340 -200 340 -200 317.5 -179 c 128,-1,38
 295 -158 295 -158 295 -123 c 0,39,40
 295 -107 295 -107 300 -91 c 128,-1,41
 305 -75 305 -75 317 -57.5 c 128,-1,42
 329 -40 329 -40 348 -20 c 128,-1,43
 367 0 367 0 396 25 c 1,44,-1
 390 85 l 1,45,-1
 388 85 l 1,46,47
 358 40 358 40 313.5 16.5 c 128,-1,48
 269 -7 269 -7 215 -7 c 0,0,1
220 55 m 0,49,50
 256 55 256 55 286 66.5 c 128,-1,51
 316 78 316 78 338 98.5 c 128,-1,52
 360 119 360 119 372 147.5 c 128,-1,53
 384 176 384 176 384 210 c 2,54,-1
 384 237 l 1,55,-1
 260 237 l 2,56,57
 183 237 183 237 150.5 210 c 128,-1,58
 118 183 118 183 118 138 c 0,59,60
 118 100 118 100 142.5 77.5 c 128,-1,61
 167 55 167 55 220 55 c 0,49,50
EndSplineSet
Validated: 1
Substitution2: "'ss01' Style Set 1 lookup 32 subtable" aogonek.ss01
Substitution2: "'aalt' Access All Alternates lookup 0 subtable" aogonek.ss01
EndChar

StartChar: dcroat
Encoding: 273 273 211
Width: 570
GlyphClass: 1
Flags: W
LayerCount: 2
Fore
SplineSet
256 -7 m 0,0,1
 212 -7 212 -7 175 8.5 c 128,-1,2
 138 24 138 24 111.5 53.5 c 128,-1,3
 85 83 85 83 70 125.5 c 128,-1,4
 55 168 55 168 55 223 c 2,5,-1
 55 257 l 2,6,7
 55 311 55 311 70 353.5 c 128,-1,8
 85 396 85 396 112 426 c 128,-1,9
 139 456 139 456 176 471.5 c 128,-1,10
 213 487 213 487 256 487 c 0,11,12
 364 487 364 487 417 410 c 1,13,-1
 419 410 l 1,14,-1
 419 544 l 1,15,-1
 205 544 l 1,16,-1
 205 596 l 1,17,-1
 419 596 l 1,18,-1
 419 700 l 1,19,-1
 485 700 l 1,20,-1
 485 596 l 1,21,-1
 565 596 l 1,22,-1
 565 544 l 1,23,-1
 485 544 l 1,24,-1
 485 0 l 1,25,-1
 433 0 l 1,26,-1
 425 75 l 1,27,-1
 423 75 l 1,28,29
 389 33 389 33 349 13 c 128,-1,30
 309 -7 309 -7 256 -7 c 0,0,1
271 53 m 0,31,32
 337 53 337 53 378 96.5 c 128,-1,33
 419 140 419 140 419 223 c 2,34,-1
 419 257 l 2,35,36
 419 338 419 338 377.5 382.5 c 128,-1,37
 336 427 336 427 271 427 c 0,38,39
 205 427 205 427 164 383.5 c 128,-1,40
 123 340 123 340 123 257 c 2,41,-1
 123 223 l 2,42,43
 123 142 123 142 164.5 97.5 c 128,-1,44
 206 53 206 53 271 53 c 0,31,32
EndSplineSet
Validated: 1
EndChar

StartChar: Eogonek
Encoding: 280 280 218
Width: 560
GlyphClass: 1
Flags: W
LayerCount: 2
Fore
SplineSet
90 700 m 1,0,-1
 510 700 l 1,1,-1
 510 636 l 1,2,-1
 160 636 l 1,3,-1
 160 392 l 1,4,-1
 450 392 l 1,5,-1
 450 328 l 1,6,-1
 160 328 l 1,7,-1
 160 64 l 1,8,-1
 510 64 l 1,9,-1
 510 0 l 1,10,11
 484 -25 484 -25 467.5 -42.5 c 128,-1,12
 451 -60 451 -60 441 -73 c 128,-1,13
 431 -86 431 -86 427.5 -96 c 128,-1,14
 424 -106 424 -106 424 -116 c 0,15,16
 424 -144 424 -144 460 -144 c 2,17,-1
 510 -144 l 1,18,-1
 510 -200 l 1,19,-1
 450 -200 l 2,20,21
 405 -200 405 -200 382.5 -179 c 128,-1,22
 360 -158 360 -158 360 -123 c 0,23,24
 360 -94 360 -94 375.5 -65.5 c 128,-1,25
 391 -37 391 -37 429 0 c 1,26,-1
 90 0 l 1,27,-1
 90 700 l 1,0,-1
EndSplineSet
Validated: 1
Position2: "'cpsp' Capital Spacing lookup 0 subtable" dx=5 dy=0 dh=10 dv=0
EndChar

StartChar: eogonek
Encoding: 281 281 219
Width: 540
GlyphClass: 1
Flags: W
LayerCount: 2
Fore
SplineSet
395 -200 m 2,0,1
 347 -200 347 -200 323.5 -178.5 c 128,-1,2
 300 -157 300 -157 300 -120 c 0,3,4
 300 -107 300 -107 302 -94.5 c 128,-1,5
 304 -82 304 -82 309.5 -67.5 c 128,-1,6
 315 -53 315 -53 324.5 -34.5 c 128,-1,7
 334 -16 334 -16 349 8 c 1,8,9
 330 0 330 0 311 -3.5 c 128,-1,10
 292 -7 292 -7 270 -7 c 0,11,12
 172 -7 172 -7 113.5 54 c 128,-1,13
 55 115 55 115 55 228 c 2,14,-1
 55 272 l 2,15,16
 55 385 55 385 113.5 446 c 128,-1,17
 172 507 172 507 270 507 c 256,18,19
 368 507 368 507 426.5 446 c 128,-1,20
 485 385 485 385 485 272 c 2,21,-1
 485 231 l 1,22,-1
 123 231 l 1,23,24
 123 141 123 141 162.5 98 c 128,-1,25
 202 55 202 55 270 55 c 0,26,27
 332 55 332 55 364.5 81 c 128,-1,28
 397 107 397 107 412 146 c 1,29,-1
 480 146 l 1,30,31
 473 114 473 114 453 80 c 0,32,33
 426 34 426 34 408.5 5 c 128,-1,34
 391 -24 391 -24 380.5 -44.5 c 128,-1,35
 370 -65 370 -65 366 -81 c 128,-1,36
 362 -97 362 -97 362 -115 c 0,37,38
 362 -129 362 -129 371.5 -137.5 c 128,-1,39
 381 -146 381 -146 400 -146 c 2,40,-1
 450 -146 l 1,41,-1
 450 -200 l 1,42,-1
 395 -200 l 2,0,1
270 445 m 0,43,44
 206 445 206 445 167 404.5 c 128,-1,45
 128 364 128 364 123 289 c 1,46,-1
 417 289 l 1,47,48
 412 367 412 367 372.5 406 c 128,-1,49
 333 445 333 445 270 445 c 0,43,44
EndSplineSet
Validated: 1
EndChar

StartChar: Hbar
Encoding: 294 294 232
Width: 750
GlyphClass: 1
Flags: W
LayerCount: 2
Fore
SplineSet
110 532 m 1,0,-1
 20 532 l 1,1,-1
 20 588 l 1,2,-1
 110 588 l 1,3,-1
 110 700 l 1,4,-1
 180 700 l 1,5,-1
 180 588 l 1,6,-1
 570 588 l 1,7,-1
 570 700 l 1,8,-1
 640 700 l 1,9,-1
 640 588 l 1,10,-1
 730 588 l 1,11,-1
 730 532 l 1,12,-1
 640 532 l 1,13,-1
 640 0 l 1,14,-1
 570 0 l 1,15,-1
 570 328 l 1,16,-1
 180 328 l 1,17,-1
 180 0 l 1,18,-1
 110 0 l 1,19,-1
 110 532 l 1,0,-1
570 392 m 1,20,-1
 570 532 l 1,21,-1
 180 532 l 1,22,-1
 180 392 l 1,23,-1
 570 392 l 1,20,-1
EndSplineSet
Validated: 1
Position2: "'cpsp' Capital Spacing lookup 0 subtable" dx=5 dy=0 dh=10 dv=0
EndChar

StartChar: hbar
Encoding: 295 295 233
Width: 575
GlyphClass: 1
Flags: W
LayerCount: 2
Fore
SplineSet
85 544 m 1,0,-1
 5 544 l 1,1,-1
 5 596 l 1,2,-1
 85 596 l 1,3,-1
 85 700 l 1,4,-1
 151 700 l 1,5,-1
 151 596 l 1,6,-1
 315 596 l 1,7,-1
 315 544 l 1,8,-1
 151 544 l 1,9,-1
 151 410 l 1,10,-1
 153 410 l 1,11,12
 213 487 213 487 306 487 c 0,13,14
 395 487 395 487 445 435 c 128,-1,15
 495 383 495 383 495 280 c 2,16,-1
 495 0 l 1,17,-1
 429 0 l 1,18,-1
 429 280 l 2,19,20
 429 355 429 355 394.5 391 c 128,-1,21
 360 427 360 427 295 427 c 0,22,23
 263 427 263 427 236.5 416.5 c 128,-1,24
 210 406 210 406 191 386.5 c 128,-1,25
 172 367 172 367 161.5 340 c 128,-1,26
 151 313 151 313 151 280 c 2,27,-1
 151 0 l 1,28,-1
 85 0 l 1,29,-1
 85 544 l 1,0,-1
EndSplineSet
Validated: 1
EndChar

StartChar: Iogonek
Encoding: 302 302 240
Width: 270
GlyphClass: 1
Flags: W
LayerCount: 2
Fore
SplineSet
100 700 m 1,0,-1
 170 700 l 1,1,-1
 170 0 l 1,2,3
 144 -25 144 -25 127.5 -42.5 c 128,-1,4
 111 -60 111 -60 101 -73 c 128,-1,5
 91 -86 91 -86 87.5 -96 c 128,-1,6
 84 -106 84 -106 84 -116 c 0,7,8
 84 -144 84 -144 120 -144 c 2,9,-1
 170 -144 l 1,10,-1
 170 -200 l 1,11,-1
 110 -200 l 2,12,13
 65 -200 65 -200 42.5 -179 c 128,-1,14
 20 -158 20 -158 20 -123 c 0,15,16
 20 -92 20 -92 38 -61.5 c 128,-1,17
 56 -31 56 -31 100 10 c 1,18,-1
 100 700 l 1,0,-1
EndSplineSet
Validated: 1
Substitution2: "'ss03' Style Set 3 lookup 34 subtable" Iogonek.ss03
Substitution2: "'aalt' Access All Alternates lookup 0 subtable" Iogonek.ss03
Position2: "'cpsp' Capital Spacing lookup 0 subtable" dx=5 dy=0 dh=10 dv=0
EndChar

StartChar: iogonek
Encoding: 303 303 241
Width: 256
GlyphClass: 1
Flags: W
LayerCount: 2
Fore
SplineSet
128 588 m 256,0,1
 108 588 108 588 94.5 601.5 c 128,-1,2
 81 615 81 615 81 635 c 256,3,4
 81 655 81 655 94.5 668.5 c 128,-1,5
 108 682 108 682 128 682 c 256,6,7
 148 682 148 682 161.5 668.5 c 128,-1,8
 175 655 175 655 175 635 c 256,9,10
 175 615 175 615 161.5 601.5 c 128,-1,11
 148 588 148 588 128 588 c 256,0,1
95 500 m 1,12,-1
 161 500 l 1,13,-1
 161 0 l 1,14,15
 134 -26 134 -26 117 -43.5 c 128,-1,16
 100 -61 100 -61 90 -74 c 128,-1,17
 80 -87 80 -87 76.5 -96.5 c 128,-1,18
 73 -106 73 -106 73 -116 c 0,19,20
 73 -130 73 -130 82 -138 c 128,-1,21
 91 -146 91 -146 111 -146 c 2,22,-1
 161 -146 l 1,23,-1
 161 -200 l 1,24,-1
 101 -200 l 2,25,26
 56 -200 56 -200 33.5 -179 c 128,-1,27
 11 -158 11 -158 11 -123 c 0,28,29
 11 -92 11 -92 29.5 -62.5 c 128,-1,30
 48 -33 48 -33 95 10 c 1,31,-1
 95 500 l 1,12,-1
EndSplineSet
Validated: 1
EndChar

StartChar: dotlessi
Encoding: 305 305 243
Width: 256
GlyphClass: 1
Flags: W
LayerCount: 2
Fore
SplineSet
95 500 m 1,0,-1
 161 500 l 1,1,-1
 161 0 l 1,2,-1
 95 0 l 1,3,-1
 95 500 l 1,0,-1
EndSplineSet
Validated: 1
EndChar

StartChar: kgreenlandic
Encoding: 312 312 250
Width: 510
GlyphClass: 1
Flags: W
LayerCount: 2
Fore
SplineSet
85 500 m 1,0,-1
 151 500 l 1,1,-1
 151 219 l 1,2,-1
 383 500 l 1,3,-1
 465 500 l 1,4,-1
 283 281 l 1,5,-1
 485 0 l 1,6,-1
 403 0 l 1,7,-1
 239 234 l 1,8,-1
 151 129 l 1,9,-1
 151 0 l 1,10,-1
 85 0 l 1,11,-1
 85 500 l 1,0,-1
EndSplineSet
Validated: 1
Substitution2: "'ss04' Style Set 4 lookup 35 subtable" kgreenlandic.ss04
Substitution2: "'aalt' Access All Alternates lookup 0 subtable" kgreenlandic.ss04
EndChar

StartChar: Lslash
Encoding: 321 321 259
Width: 570
GlyphClass: 1
Flags: W
LayerCount: 2
Fore
SplineSet
145 304 m 1,0,-1
 25 232 l 1,1,-1
 25 298 l 1,2,-1
 145 370 l 1,3,-1
 145 700 l 1,4,-1
 215 700 l 1,5,-1
 215 411 l 1,6,-1
 375 507 l 1,7,-1
 375 441 l 1,8,-1
 215 345 l 1,9,-1
 215 64 l 1,10,-1
 545 64 l 1,11,-1
 545 0 l 1,12,-1
 145 0 l 1,13,-1
 145 304 l 1,0,-1
EndSplineSet
Validated: 1
Position2: "'cpsp' Capital Spacing lookup 0 subtable" dx=5 dy=0 dh=10 dv=0
EndChar

StartChar: lslash
Encoding: 322 322 260
Width: 310
GlyphClass: 1
Flags: W
LayerCount: 2
Fore
SplineSet
230 0 m 1,0,1
 182 0 182 0 155.5 17 c 128,-1,2
 129 34 129 34 116.5 56 c 128,-1,3
 104 78 104 78 102 100 c 128,-1,4
 100 122 100 122 100 132 c 2,5,-1
 100 341 l 1,6,-1
 20 293 l 1,7,-1
 20 357 l 1,8,-1
 100 405 l 1,9,-1
 100 700 l 1,10,-1
 166 700 l 1,11,-1
 166 445 l 1,12,-1
 270 507 l 1,13,-1
 270 443 l 1,14,-1
 166 381 l 1,15,-1
 166 140 l 2,16,17
 166 60 166 60 238 60 c 2,18,-1
 270 60 l 1,19,-1
 270 0 l 1,20,-1
 230 0 l 1,21,-1
 230 0 l 1,0,1
EndSplineSet
Validated: 5
Substitution2: "'ss06' Style Set 6 lookup 37 subtable" lslash.ss06
Substitution2: "'aalt' Access All Alternates lookup 0 subtable" lslash.ss06
EndChar

StartChar: Eng
Encoding: 330 330 268
Width: 710
GlyphClass: 1
Flags: W
LayerCount: 2
Fore
SplineSet
90 700 m 1,0,-1
 194 700 l 1,1,-1
 548 133 l 1,2,-1
 550 133 l 1,3,-1
 550 700 l 1,4,-1
 620 700 l 1,5,-1
 620 70 l 2,6,7
 620 -70 620 -70 559.5 -135 c 128,-1,8
 499 -200 499 -200 385 -200 c 2,9,-1
 345 -200 l 1,10,-1
 345 -136 l 1,11,-1
 385 -136 l 2,12,13
 452 -136 452 -136 492.5 -103.5 c 128,-1,14
 533 -71 533 -71 545 7 c 1,15,-1
 162 620 l 1,16,-1
 160 620 l 1,17,-1
 160 0 l 1,18,-1
 90 0 l 1,19,-1
 90 700 l 1,0,-1
EndSplineSet
Validated: 1
Position2: "'cpsp' Capital Spacing lookup 0 subtable" dx=5 dy=0 dh=10 dv=0
EndChar

StartChar: eng
Encoding: 331 331 269
Width: 575
GlyphClass: 1
Flags: W
LayerCount: 2
Fore
SplineSet
85 500 m 1,0,-1
 137 500 l 1,1,-1
 145 425 l 1,2,-1
 147 425 l 1,3,4
 207 507 207 507 306 507 c 0,5,6
 395 507 395 507 445 455.5 c 128,-1,7
 495 404 495 404 495 305 c 2,8,-1
 495 28 l 2,9,10
 495 -94 495 -94 448 -147 c 128,-1,11
 401 -200 401 -200 315 -200 c 2,12,-1
 285 -200 l 1,13,-1
 285 -140 l 1,14,-1
 305 -140 l 2,15,16
 335 -140 335 -140 358 -131 c 128,-1,17
 381 -122 381 -122 397 -102 c 128,-1,18
 413 -82 413 -82 421 -48.5 c 128,-1,19
 429 -15 429 -15 429 33 c 2,20,-1
 429 300 l 2,21,22
 429 375 429 375 394.5 411 c 128,-1,23
 360 447 360 447 295 447 c 0,24,25
 263 447 263 447 236.5 436.5 c 128,-1,26
 210 426 210 426 191 406.5 c 128,-1,27
 172 387 172 387 161.5 360 c 128,-1,28
 151 333 151 333 151 300 c 2,29,-1
 151 0 l 1,30,-1
 85 0 l 1,31,-1
 85 500 l 1,0,-1
EndSplineSet
Validated: 1
EndChar

StartChar: OE
Encoding: 338 338 276
Width: 960
GlyphClass: 1
Flags: W
LayerCount: 2
Fore
SplineSet
360 -7 m 0,0,1
 295 -7 295 -7 241 15 c 128,-1,2
 187 37 187 37 148 79 c 128,-1,3
 109 121 109 121 87 181 c 128,-1,4
 65 241 65 241 65 318 c 2,5,-1
 65 382 l 2,6,7
 65 458 65 458 87 518 c 128,-1,8
 109 578 109 578 148 620 c 128,-1,9
 187 662 187 662 241.5 684.5 c 128,-1,10
 296 707 296 707 361 707 c 0,11,12
 406 707 406 707 440.5 697 c 128,-1,13
 475 687 475 687 500 673 c 1,14,-1
 500 700 l 1,15,-1
 920 700 l 1,16,-1
 920 636 l 1,17,-1
 570 636 l 1,18,-1
 570 392 l 1,19,-1
 860 392 l 1,20,-1
 860 328 l 1,21,-1
 570 328 l 1,22,-1
 570 64 l 1,23,-1
 920 64 l 1,24,-1
 920 0 l 1,25,-1
 500 0 l 1,26,-1
 500 27 l 1,27,28
 475 13 475 13 440 3 c 128,-1,29
 405 -7 405 -7 360 -7 c 0,0,1
137 318 m 2,30,31
 137 256 137 256 154 208 c 128,-1,32
 171 160 171 160 200.5 127 c 128,-1,33
 230 94 230 94 271 76.5 c 128,-1,34
 312 59 312 59 360 59 c 0,35,36
 405 59 405 59 440 72 c 128,-1,37
 475 85 475 85 500 103 c 1,38,-1
 500 597 l 1,39,40
 475 615 475 615 440.5 628 c 128,-1,41
 406 641 406 641 361 641 c 0,42,43
 312 641 312 641 271 623.5 c 128,-1,44
 230 606 230 606 200 573 c 128,-1,45
 170 540 170 540 153.5 492 c 128,-1,46
 137 444 137 444 137 382 c 2,47,-1
 137 318 l 2,30,31
EndSplineSet
Validated: 1
Position2: "'cpsp' Capital Spacing lookup 0 subtable" dx=5 dy=0 dh=10 dv=0
EndChar

StartChar: oe
Encoding: 339 339 277
Width: 910
GlyphClass: 1
Flags: W
LayerCount: 2
Fore
SplineSet
275 -7 m 0,0,1
 225 -7 225 -7 184.5 9 c 128,-1,2
 144 25 144 25 115.5 55.5 c 128,-1,3
 87 86 87 86 71 129.5 c 128,-1,4
 55 173 55 173 55 228 c 2,5,-1
 55 272 l 2,6,7
 55 327 55 327 71 370.5 c 128,-1,8
 87 414 87 414 115.5 444.5 c 128,-1,9
 144 475 144 475 184.5 491 c 128,-1,10
 225 507 225 507 275 507 c 0,11,12
 338 507 338 507 385.5 480.5 c 128,-1,13
 433 454 433 454 460 403 c 1,14,15
 486 454 486 454 532.5 480.5 c 128,-1,16
 579 507 579 507 641 507 c 0,17,18
 738 507 738 507 796.5 446 c 128,-1,19
 855 385 855 385 855 272 c 2,20,-1
 855 231 l 1,21,-1
 495 231 l 1,22,23
 495 141 495 141 534.5 98 c 128,-1,24
 574 55 574 55 641 55 c 0,25,26
 703 55 703 55 735 81 c 128,-1,27
 767 107 767 107 782 146 c 1,28,-1
 850 146 l 1,29,30
 842 114 842 114 826 86 c 128,-1,31
 810 58 810 58 784 37.5 c 128,-1,32
 758 17 758 17 722.5 5 c 128,-1,33
 687 -7 687 -7 641 -7 c 0,34,35
 579 -7 579 -7 532.5 20 c 128,-1,36
 486 47 486 47 460 98 c 1,37,38
 433 47 433 47 385.5 20 c 128,-1,39
 338 -7 338 -7 275 -7 c 0,0,1
641 445 m 256,40,41
 578 445 578 445 539 404.5 c 128,-1,42
 500 364 500 364 495 289 c 1,43,-1
 787 289 l 1,44,45
 782 367 782 367 743 406 c 128,-1,46
 704 445 704 445 641 445 c 256,40,41
275 55 m 256,47,48
 343 55 343 55 385 99.5 c 128,-1,49
 427 144 427 144 427 228 c 2,50,-1
 427 272 l 2,51,52
 427 356 427 356 385 400.5 c 128,-1,53
 343 445 343 445 275 445 c 256,54,55
 207 445 207 445 165 400.5 c 128,-1,56
 123 356 123 356 123 272 c 2,57,-1
 123 228 l 2,58,59
 123 144 123 144 165 99.5 c 128,-1,60
 207 55 207 55 275 55 c 256,47,48
EndSplineSet
Validated: 1
EndChar

StartChar: Scedilla
Encoding: 350 350 288
Width: 610
GlyphClass: 1
Flags: W
LayerCount: 2
Fore
SplineSet
235 -150 m 1,0,-1
 290 -150 l 2,1,2
 316 -150 316 -150 326.5 -141 c 128,-1,3
 337 -132 337 -132 337 -115 c 256,4,5
 337 -98 337 -98 326.5 -89 c 128,-1,6
 316 -80 316 -80 290 -80 c 2,7,-1
 268 -80 l 1,8,-1
 286 -6 l 1,9,10
 178 1 178 1 122.5 58 c 128,-1,11
 67 115 67 115 60 210 c 1,12,-1
 134 210 l 1,13,14
 142 135 142 135 184.5 96 c 128,-1,15
 227 57 227 57 315 57 c 0,16,17
 401 57 401 57 439.5 91 c 128,-1,18
 478 125 478 125 478 183 c 0,19,20
 478 218 478 218 460.5 241 c 128,-1,21
 443 264 443 264 414.5 279.5 c 128,-1,22
 386 295 386 295 349 306 c 128,-1,23
 312 317 312 317 274 328 c 128,-1,24
 236 339 236 339 199 353 c 128,-1,25
 162 367 162 367 133.5 388.5 c 128,-1,26
 105 410 105 410 87.5 442 c 128,-1,27
 70 474 70 474 70 522 c 0,28,29
 70 561 70 561 85 595 c 128,-1,30
 100 629 100 629 129 654 c 128,-1,31
 158 679 158 679 201 693 c 128,-1,32
 244 707 244 707 300 707 c 0,33,34
 417 707 417 707 477 651.5 c 128,-1,35
 537 596 537 596 545 500 c 1,36,-1
 471 500 l 1,37,38
 462 572 462 572 423 607.5 c 128,-1,39
 384 643 384 643 300 643 c 0,40,41
 259 643 259 643 229 633 c 128,-1,42
 199 623 199 623 179.5 606.5 c 128,-1,43
 160 590 160 590 151 568 c 128,-1,44
 142 546 142 546 142 522 c 0,45,46
 142 474 142 474 172 448 c 128,-1,47
 202 422 202 422 247.5 406 c 128,-1,48
 293 390 293 390 346 377.5 c 128,-1,49
 399 365 399 365 444.5 343.5 c 128,-1,50
 490 322 490 322 520 285 c 128,-1,51
 550 248 550 248 550 183 c 0,52,53
 550 103 550 103 497.5 51.5 c 128,-1,54
 445 0 445 0 339 -6 c 1,55,-1
 330 -39 l 1,56,57
 395 -50 395 -50 395 -114 c 0,58,59
 395 -153 395 -153 371 -176.5 c 128,-1,60
 347 -200 347 -200 305 -200 c 2,61,-1
 235 -200 l 1,62,-1
 235 -150 l 1,0,-1
EndSplineSet
Validated: 1
Substitution2: "'locl' Localized Forms in Latin lookup 19 subtable" Scommaaccent
Position2: "'cpsp' Capital Spacing lookup 0 subtable" dx=5 dy=0 dh=10 dv=0
EndChar

StartChar: scedilla
Encoding: 351 351 289
Width: 490
GlyphClass: 1
Flags: W
LayerCount: 2
Fore
SplineSet
165 -152 m 1,0,-1
 220 -152 l 2,1,2
 247 -152 247 -152 258 -142.5 c 128,-1,3
 269 -133 269 -133 269 -115 c 256,4,5
 269 -97 269 -97 258 -87.5 c 128,-1,6
 247 -78 247 -78 220 -78 c 2,7,-1
 199 -78 l 1,8,-1
 217 -6 l 1,9,10
 139 2 139 2 100.5 41 c 128,-1,11
 62 80 62 80 55 140 c 1,12,-1
 123 140 l 1,13,14
 131 99 131 99 159 76 c 128,-1,15
 187 53 187 53 250 53 c 0,16,17
 314 53 314 53 340.5 75 c 128,-1,18
 367 97 367 97 367 133 c 0,19,20
 367 165 367 165 344.5 183 c 128,-1,21
 322 201 322 201 288.5 212.5 c 128,-1,22
 255 224 255 224 216 233.5 c 128,-1,23
 177 243 177 243 143.5 259 c 128,-1,24
 110 275 110 275 87.5 301 c 128,-1,25
 65 327 65 327 65 372 c 0,26,27
 65 429 65 429 109 468 c 128,-1,28
 153 507 153 507 240 507 c 0,29,30
 286 507 286 507 320 496.5 c 128,-1,31
 354 486 354 486 377 468 c 128,-1,32
 400 450 400 450 413 425 c 128,-1,33
 426 400 426 400 430 370 c 1,34,-1
 362 370 l 1,35,36
 354 405 354 405 327 426 c 128,-1,37
 300 447 300 447 240 447 c 0,38,39
 182 447 182 447 157.5 426.5 c 128,-1,40
 133 406 133 406 133 372 c 0,41,42
 133 342 133 342 155.5 325.5 c 128,-1,43
 178 309 178 309 211.5 298.5 c 128,-1,44
 245 288 245 288 284 278.5 c 128,-1,45
 323 269 323 269 356.5 252.5 c 128,-1,46
 390 236 390 236 412.5 208.5 c 128,-1,47
 435 181 435 181 435 133 c 0,48,49
 435 76 435 76 394 37 c 128,-1,50
 353 -2 353 -2 268 -7 c 1,51,-1
 259 -39 l 1,52,53
 291 -44 291 -44 308 -63.5 c 128,-1,54
 325 -83 325 -83 325 -114 c 0,55,56
 325 -153 325 -153 301 -176.5 c 128,-1,57
 277 -200 277 -200 235 -200 c 2,58,-1
 165 -200 l 1,59,-1
 165 -152 l 1,0,-1
EndSplineSet
Validated: 1
Substitution2: "'locl' Localized Forms in Latin lookup 19 subtable" scommaaccent
EndChar

StartChar: Tcedilla
Encoding: 354 354 292
Width: 580
GlyphClass: 1
Flags: W
LayerCount: 2
Fore
SplineSet
255 636 m 1,0,-1
 25 636 l 1,1,-1
 25 700 l 1,2,-1
 555 700 l 1,3,-1
 555 636 l 1,4,-1
 325 636 l 1,5,-1
 325 0 l 1,6,-1
 316 0 l 1,7,-1
 305 -39 l 1,8,9
 370 -50 370 -50 370 -114 c 0,10,11
 370 -153 370 -153 346 -176.5 c 128,-1,12
 322 -200 322 -200 280 -200 c 2,13,-1
 210 -200 l 1,14,-1
 210 -150 l 1,15,-1
 265 -150 l 2,16,17
 291 -150 291 -150 301.5 -141 c 128,-1,18
 312 -132 312 -132 312 -115 c 256,19,20
 312 -98 312 -98 301.5 -89 c 128,-1,21
 291 -80 291 -80 265 -80 c 2,22,-1
 243 -80 l 1,23,-1
 263 0 l 1,24,-1
 255 0 l 1,25,-1
 255 636 l 1,0,-1
EndSplineSet
Validated: 1
Substitution2: "'locl' Localized Forms in Latin lookup 19 subtable" Tcommaaccent
Position2: "'cpsp' Capital Spacing lookup 0 subtable" dx=5 dy=0 dh=10 dv=0
EndChar

StartChar: tcedilla
Encoding: 355 355 293
Width: 360
GlyphClass: 1
Flags: W
LayerCount: 2
Fore
SplineSet
150 -152 m 1,0,-1
 205 -152 l 2,1,2
 232 -152 232 -152 243 -142.5 c 128,-1,3
 254 -133 254 -133 254 -115 c 256,4,5
 254 -97 254 -97 243 -87.5 c 128,-1,6
 232 -78 232 -78 205 -78 c 2,7,-1
 184 -78 l 1,8,-1
 205 4 l 1,9,10
 172 11 172 11 153.5 29 c 128,-1,11
 135 47 135 47 126.5 67 c 128,-1,12
 118 87 118 87 116.5 105.5 c 128,-1,13
 115 124 115 124 115 132 c 2,14,-1
 115 440 l 1,15,-1
 25 440 l 1,16,-1
 25 500 l 1,17,-1
 115 500 l 1,18,-1
 115 640 l 1,19,-1
 181 640 l 1,20,-1
 181 500 l 1,21,-1
 315 500 l 1,22,-1
 315 440 l 1,23,-1
 181 440 l 1,24,-1
 181 140 l 2,25,26
 181 60 181 60 255 60 c 2,27,-1
 325 60 l 1,28,-1
 325 0 l 1,29,-1
 255 0 l 1,30,-1
 244 -39 l 1,31,32
 276 -44 276 -44 293 -63.5 c 128,-1,33
 310 -83 310 -83 310 -114 c 0,34,35
 310 -153 310 -153 286 -176.5 c 128,-1,36
 262 -200 262 -200 220 -200 c 2,37,-1
 150 -200 l 1,38,-1
 150 -152 l 1,0,-1
EndSplineSet
Validated: 1
Substitution2: "'ss07' Style Set 7 lookup 38 subtable" tcedilla.ss07
Substitution2: "'locl' Localized Forms in Latin lookup 19 subtable" tcommaaccent
Substitution2: "'aalt' Access All Alternates lookup 0 subtable" tcedilla.ss07
EndChar

StartChar: Tbar
Encoding: 358 358 296
Width: 580
GlyphClass: 1
Flags: W
LayerCount: 2
Fore
SplineSet
255 320 m 1,0,-1
 115 320 l 1,1,-1
 115 380 l 1,2,-1
 255 380 l 1,3,-1
 255 636 l 1,4,-1
 25 636 l 1,5,-1
 25 700 l 1,6,-1
 555 700 l 1,7,-1
 555 636 l 1,8,-1
 325 636 l 1,9,-1
 325 380 l 1,10,-1
 465 380 l 1,11,-1
 465 320 l 1,12,-1
 325 320 l 1,13,-1
 325 0 l 1,14,-1
 255 0 l 1,15,-1
 255 320 l 1,0,-1
EndSplineSet
Validated: 1
Position2: "'cpsp' Capital Spacing lookup 0 subtable" dx=5 dy=0 dh=10 dv=0
EndChar

StartChar: tbar
Encoding: 359 359 297
Width: 370
GlyphClass: 1
Flags: W
LayerCount: 2
Fore
SplineSet
30 290 m 1,0,-1
 120 290 l 1,1,-1
 120 440 l 1,2,-1
 30 440 l 1,3,-1
 30 500 l 1,4,-1
 120 500 l 1,5,-1
 120 640 l 1,6,-1
 186 640 l 1,7,-1
 186 500 l 1,8,-1
 320 500 l 1,9,-1
 320 440 l 1,10,-1
 186 440 l 1,11,-1
 186 290 l 1,12,-1
 320 290 l 1,13,-1
 320 230 l 1,14,-1
 186 230 l 1,15,-1
 186 140 l 2,16,17
 186 60 186 60 260 60 c 2,18,-1
 330 60 l 1,19,-1
 330 0 l 1,20,-1
 252 0 l 2,21,22
 203 0 203 0 176 17 c 128,-1,23
 149 34 149 34 136.5 56.5 c 128,-1,24
 124 79 124 79 122 101 c 128,-1,25
 120 123 120 123 120 132 c 2,26,-1
 120 230 l 1,27,-1
 30 230 l 1,28,-1
 30 290 l 1,0,-1
EndSplineSet
Validated: 1
Substitution2: "'ss07' Style Set 7 lookup 38 subtable" tbar.ss07
Substitution2: "'aalt' Access All Alternates lookup 0 subtable" tbar.ss07
EndChar

StartChar: Uogonek
Encoding: 370 370 308
Width: 690
GlyphClass: 1
Flags: W
LayerCount: 2
Fore
SplineSet
345 -7 m 0,0,1
 286 -7 286 -7 238 11.5 c 128,-1,2
 190 30 190 30 156 65.5 c 128,-1,3
 122 101 122 101 103.5 152.5 c 128,-1,4
 85 204 85 204 85 270 c 2,5,-1
 85 700 l 1,6,-1
 155 700 l 1,7,-1
 155 275 l 2,8,9
 155 168 155 168 207 112.5 c 128,-1,10
 259 57 259 57 345 57 c 0,11,12
 432 57 432 57 483.5 112 c 128,-1,13
 535 167 535 167 535 275 c 2,14,-1
 535 700 l 1,15,-1
 605 700 l 1,16,-1
 605 270 l 2,17,18
 605 194 605 194 579.5 136.5 c 128,-1,19
 554 79 554 79 508 44 c 0,20,21
 481 19 481 19 457.5 -2 c 128,-1,22
 434 -23 434 -23 417 -41.5 c 128,-1,23
 400 -60 400 -60 390.5 -76.5 c 128,-1,24
 381 -93 381 -93 381 -110 c 0,25,26
 381 -142 381 -142 415 -142 c 2,27,-1
 465 -142 l 1,28,-1
 465 -200 l 1,29,-1
 410 -200 l 2,30,31
 362 -200 362 -200 338.5 -178.5 c 128,-1,32
 315 -157 315 -157 315 -120 c 0,33,34
 315 -107 315 -107 317 -94.5 c 128,-1,35
 319 -82 319 -82 325.5 -68.5 c 128,-1,36
 332 -55 332 -55 344 -40 c 128,-1,37
 356 -25 356 -25 375 -5 c 1,38,39
 367 -6 367 -6 360 -6.5 c 128,-1,40
 353 -7 353 -7 345 -7 c 0,0,1
EndSplineSet
Validated: 1
Position2: "'cpsp' Capital Spacing lookup 0 subtable" dx=5 dy=0 dh=10 dv=0
EndChar

StartChar: uogonek
Encoding: 371 371 309
Width: 565
GlyphClass: 1
Flags: W
LayerCount: 2
Fore
SplineSet
259 -7 m 0,0,1
 178 -7 178 -7 129 44.5 c 128,-1,2
 80 96 80 96 80 195 c 2,3,-1
 80 500 l 1,4,-1
 146 500 l 1,5,-1
 146 200 l 2,6,7
 146 125 146 125 179.5 89 c 128,-1,8
 213 53 213 53 270 53 c 0,9,10
 302 53 302 53 328.5 63.5 c 128,-1,11
 355 74 355 74 374 93.5 c 128,-1,12
 393 113 393 113 403.5 140 c 128,-1,13
 414 167 414 167 414 200 c 2,14,-1
 414 500 l 1,15,-1
 480 500 l 1,16,-1
 480 0 l 1,17,18
 453 -26 453 -26 436 -43.5 c 128,-1,19
 419 -61 419 -61 409 -74 c 128,-1,20
 399 -87 399 -87 395.5 -96.5 c 128,-1,21
 392 -106 392 -106 392 -116 c 0,22,23
 392 -130 392 -130 401 -138 c 128,-1,24
 410 -146 410 -146 430 -146 c 2,25,-1
 480 -146 l 1,26,-1
 480 -200 l 1,27,-1
 420 -200 l 2,28,29
 375 -200 375 -200 352.5 -179 c 128,-1,30
 330 -158 330 -158 330 -123 c 0,31,32
 330 -91 330 -91 351 -59 c 128,-1,33
 372 -27 372 -27 426 20 c 1,34,-1
 420 75 l 1,35,-1
 418 75 l 1,36,37
 361 -7 361 -7 259 -7 c 0,0,1
EndSplineSet
Validated: 1
EndChar

StartChar: longs
Encoding: 383 383 321
Width: 305
GlyphClass: 1
Flags: W
LayerCount: 2
Fore
SplineSet
120 440 m 1,0,-1
 30 440 l 1,1,-1
 30 500 l 1,2,-1
 120 500 l 1,3,-1
 120 568 l 2,4,5
 120 633 120 633 153.5 666.5 c 128,-1,6
 187 700 187 700 252 700 c 2,7,-1
 330 700 l 1,8,-1
 330 640 l 1,9,-1
 260 640 l 2,10,11
 222 640 222 640 204 621 c 128,-1,12
 186 602 186 602 186 560 c 2,13,-1
 186 0 l 1,14,-1
 120 0 l 1,15,-1
 120 440 l 1,0,-1
EndSplineSet
Validated: 1
EndChar

StartChar: uni018E
Encoding: 398 398 322
Width: 560
GlyphClass: 1
Flags: W
LayerCount: 2
Fore
SplineSet
470 0 m 1,0,-1
 50 0 l 1,1,-1
 50 64 l 1,2,-1
 400 64 l 1,3,-1
 400 328 l 1,4,-1
 110 328 l 1,5,-1
 110 392 l 1,6,-1
 400 392 l 1,7,-1
 400 636 l 1,8,-1
 50 636 l 1,9,-1
 50 700 l 1,10,-1
 470 700 l 1,11,-1
 470 0 l 1,0,-1
EndSplineSet
Validated: 1
EndChar

StartChar: uni018F
Encoding: 399 399 323
Width: 710
GlyphClass: 1
Flags: W
LayerCount: 2
Fore
SplineSet
355 -7 m 256,0,1
 292 -7 292 -7 238.5 15 c 128,-1,2
 185 37 185 37 146.5 78.5 c 128,-1,3
 108 120 108 120 86.5 180.5 c 128,-1,4
 65 241 65 241 65 318 c 2,5,-1
 65 378 l 1,6,-1
 575 377 l 1,7,8
 575 441 575 441 558.5 490 c 128,-1,9
 542 539 542 539 512.5 572.5 c 128,-1,10
 483 606 483 606 443 623.5 c 128,-1,11
 403 641 403 641 355 641 c 0,12,13
 312 641 312 641 279 628.5 c 128,-1,14
 246 616 246 616 222 596.5 c 128,-1,15
 198 577 198 577 182 553 c 128,-1,16
 166 529 166 529 158 505 c 1,17,-1
 82 505 l 1,18,19
 91 538 91 538 110.5 574 c 128,-1,20
 130 610 130 610 163 639.5 c 128,-1,21
 196 669 196 669 243.5 688 c 128,-1,22
 291 707 291 707 355 707 c 0,23,24
 418 707 418 707 471.5 685 c 128,-1,25
 525 663 525 663 563.5 621.5 c 128,-1,26
 602 580 602 580 623.5 519.5 c 128,-1,27
 645 459 645 459 645 382 c 2,28,-1
 645 318 l 2,29,30
 645 242 645 242 623.5 181.5 c 128,-1,31
 602 121 602 121 563 79 c 128,-1,32
 524 37 524 37 471 15 c 128,-1,33
 418 -7 418 -7 355 -7 c 256,0,1
355 59 m 0,34,35
 403 59 403 59 443.5 76 c 128,-1,36
 484 93 484 93 513 125.5 c 128,-1,37
 542 158 542 158 558.5 205 c 128,-1,38
 575 252 575 252 575 313 c 1,39,-1
 135 313 l 1,40,41
 136 252 136 252 153 205 c 128,-1,42
 170 158 170 158 199.5 125.5 c 128,-1,43
 229 93 229 93 269 76 c 128,-1,44
 309 59 309 59 355 59 c 0,34,35
EndSplineSet
Validated: 1
Position2: "'cpsp' Capital Spacing lookup 0 subtable" dx=5 dy=0 dh=10 dv=0
EndChar

StartChar: florin
Encoding: 402 402 324
Width: 480
GlyphClass: 1
Flags: W
LayerCount: 2
Fore
SplineSet
6 -90 m 1,0,-1
 43 -90 l 2,1,2
 80 -90 80 -90 102.5 -69 c 128,-1,3
 125 -48 125 -48 133 0 c 2,4,-1
 210 444 l 1,5,-1
 99 444 l 1,6,-1
 109 500 l 1,7,-1
 219 500 l 1,8,-1
 228 550 l 2,9,10
 242 628 242 628 281 664 c 128,-1,11
 320 700 320 700 403 700 c 2,12,-1
 455 700 l 1,13,-1
 444 640 l 1,14,-1
 392 640 l 2,15,16
 351 640 351 640 328.5 619 c 128,-1,17
 306 598 306 598 298 550 c 2,18,-1
 289 500 l 1,19,-1
 420 500 l 1,20,-1
 410 444 l 1,21,-1
 280 444 l 1,22,-1
 203 0 l 2,23,24
 189 -78 189 -78 150.5 -114 c 128,-1,25
 112 -150 112 -150 32 -150 c 2,26,-1
 -5 -150 l 1,27,-1
 6 -90 l 1,0,-1
EndSplineSet
Validated: 1
Substitution2: "'tnum' Tabular Numbers lookup 14 subtable" florin.fitted
Substitution2: "'aalt' Access All Alternates lookup 0 subtable" florin.fitted
EndChar

StartChar: Aringacute
Encoding: 506 506 332
Width: 660
GlyphClass: 1
Flags: W
LayerCount: 2
Fore
SplineSet
392 990 m 1,0,-1
 492 990 l 1,1,-1
 368 890 l 1,2,-1
 292 890 l 1,3,-1
 392 990 l 1,0,-1
276 663 m 1,4,5
 253 676 253 676 239 699.5 c 128,-1,6
 225 723 225 723 225 752 c 0,7,8
 225 796 225 796 254.5 825 c 128,-1,9
 284 854 284 854 330 854 c 256,10,11
 376 854 376 854 405.5 825 c 128,-1,12
 435 796 435 796 435 752 c 0,13,14
 435 723 435 723 421 699.5 c 128,-1,15
 407 676 407 676 384 663 c 1,16,-1
 630 0 l 1,17,-1
 554 0 l 1,18,-1
 481 203 l 1,19,-1
 175 203 l 1,20,-1
 102 0 l 1,21,-1
 30 0 l 1,22,-1
 276 663 l 1,4,5
330 700 m 256,23,24
 353 700 353 700 368 714.5 c 128,-1,25
 383 729 383 729 383 752 c 256,26,27
 383 775 383 775 368 789.5 c 128,-1,28
 353 804 353 804 330 804 c 256,29,30
 307 804 307 804 292 789.5 c 128,-1,31
 277 775 277 775 277 752 c 256,32,33
 277 729 277 729 292 714.5 c 128,-1,34
 307 700 307 700 330 700 c 256,23,24
458 267 m 1,35,-1
 330 625 l 1,36,-1
 328 625 l 1,37,-1
 198 267 l 1,38,-1
 458 267 l 1,35,-1
EndSplineSet
Validated: 1
Position2: "'cpsp' Capital Spacing lookup 0 subtable" dx=5 dy=0 dh=10 dv=0
EndChar

StartChar: aringacute
Encoding: 507 507 333
Width: 530
GlyphClass: 1
Flags: W
LayerCount: 2
Fore
SplineSet
329 900 m 1,0,-1
 415 900 l 1,1,-1
 285 765 l 1,2,-1
 215 765 l 1,3,-1
 329 900 l 1,0,-1
215 -7 m 0,4,5
 132 -7 132 -7 91 31.5 c 128,-1,6
 50 70 50 70 50 138 c 0,7,8
 50 209 50 209 99 251 c 128,-1,9
 148 293 148 293 255 293 c 2,10,-1
 384 293 l 1,11,-1
 384 330 l 2,12,13
 384 390 384 390 355 417.5 c 128,-1,14
 326 445 326 445 260 445 c 0,15,16
 199 445 199 445 170.5 424 c 128,-1,17
 142 403 142 403 138 370 c 1,18,-1
 70 370 l 1,19,20
 72 397 72 397 85 422 c 128,-1,21
 98 447 98 447 121.5 466 c 128,-1,22
 145 485 145 485 180 496 c 128,-1,23
 215 507 215 507 260 507 c 0,24,25
 357 507 357 507 403.5 462.5 c 128,-1,26
 450 418 450 418 450 330 c 2,27,-1
 450 0 l 1,28,-1
 398 0 l 1,29,-1
 390 85 l 1,30,-1
 388 85 l 1,31,32
 358 40 358 40 313.5 16.5 c 128,-1,33
 269 -7 269 -7 215 -7 c 0,4,5
220 55 m 0,34,35
 256 55 256 55 286 66.5 c 128,-1,36
 316 78 316 78 338 98.5 c 128,-1,37
 360 119 360 119 372 147.5 c 128,-1,38
 384 176 384 176 384 210 c 2,39,-1
 384 237 l 1,40,-1
 260 237 l 2,41,42
 183 237 183 237 150.5 210 c 128,-1,43
 118 183 118 183 118 138 c 0,44,45
 118 100 118 100 142.5 77.5 c 128,-1,46
 167 55 167 55 220 55 c 0,34,35
260 533 m 256,47,48
 214 533 214 533 184.5 562 c 128,-1,49
 155 591 155 591 155 635 c 256,50,51
 155 679 155 679 184.5 708 c 128,-1,52
 214 737 214 737 260 737 c 256,53,54
 306 737 306 737 335.5 708 c 128,-1,55
 365 679 365 679 365 635 c 256,56,57
 365 591 365 591 335.5 562 c 128,-1,58
 306 533 306 533 260 533 c 256,47,48
260 581 m 256,59,60
 285 581 285 581 300 596 c 128,-1,61
 315 611 315 611 315 635 c 256,62,63
 315 659 315 659 300 674 c 128,-1,64
 285 689 285 689 260 689 c 256,65,66
 235 689 235 689 220 674 c 128,-1,67
 205 659 205 659 205 635 c 256,68,69
 205 611 205 611 220 596 c 128,-1,70
 235 581 235 581 260 581 c 256,59,60
EndSplineSet
Validated: 1
Substitution2: "'ss01' Style Set 1 lookup 32 subtable" aringacute.ss01
Substitution2: "'aalt' Access All Alternates lookup 0 subtable" aringacute.ss01
EndChar

StartChar: uni0237
Encoding: 567 567 342
Width: 256
GlyphClass: 1
Flags: W
LayerCount: 2
Fore
SplineSet
-9 -140 m 1,0,-1
 15 -140 l 2,1,2
 45 -140 45 -140 61 -129 c 128,-1,3
 77 -118 77 -118 84.5 -102.5 c 128,-1,4
 92 -87 92 -87 93.5 -68.5 c 128,-1,5
 95 -50 95 -50 95 -35 c 2,6,-1
 95 500 l 1,7,-1
 161 500 l 1,8,-1
 161 -40 l 2,9,10
 161 -61 161 -61 158.5 -88.5 c 128,-1,11
 156 -116 156 -116 142.5 -140.5 c 128,-1,12
 129 -165 129 -165 99 -182.5 c 128,-1,13
 69 -200 69 -200 15 -200 c 2,14,-1
 -9 -200 l 1,15,-1
 -9 -140 l 1,0,-1
EndSplineSet
Validated: 1
EndChar

StartChar: uni0259
Encoding: 601 601 343
Width: 540
GlyphClass: 1
Flags: W
LayerCount: 2
Fore
SplineSet
270 -7 m 256,0,1
 172 -7 172 -7 113.5 54 c 128,-1,2
 55 115 55 115 55 228 c 2,3,-1
 55 269 l 1,4,-1
 417 269 l 1,5,6
 417 359 417 359 377 402 c 128,-1,7
 337 445 337 445 265 445 c 0,8,9
 204 445 204 445 173.5 421.5 c 128,-1,10
 143 398 143 398 128 365 c 1,11,-1
 60 365 l 1,12,13
 67 393 67 393 83.5 419 c 128,-1,14
 100 445 100 445 125.5 464.5 c 128,-1,15
 151 484 151 484 186 495.5 c 128,-1,16
 221 507 221 507 265 507 c 0,17,18
 367 507 367 507 426 446 c 128,-1,19
 485 385 485 385 485 272 c 2,20,-1
 485 228 l 2,21,22
 485 115 485 115 426.5 54 c 128,-1,23
 368 -7 368 -7 270 -7 c 256,0,1
270 55 m 0,24,25
 334 55 334 55 373 95.5 c 128,-1,26
 412 136 412 136 417 211 c 1,27,-1
 123 211 l 1,28,29
 128 133 128 133 167.5 94 c 128,-1,30
 207 55 207 55 270 55 c 0,24,25
EndSplineSet
Validated: 1
Substitution2: "'subs' Subscript lookup 12 subtable" uni2094
Substitution2: "'aalt' Access All Alternates lookup 0 subtable" uni2094
EndChar

StartChar: uni027C
Encoding: 636 636 344
Width: 375
GlyphClass: 1
Flags: W
LayerCount: 2
Fore
SplineSet
85 500 m 1,0,-1
 137 500 l 1,1,-1
 145 425 l 1,2,-1
 147 425 l 1,3,4
 202 507 202 507 306 507 c 2,5,-1
 355 507 l 1,6,-1
 355 447 l 1,7,-1
 305 447 l 2,8,9
 232 447 232 447 191.5 407.5 c 128,-1,10
 151 368 151 368 151 300 c 2,11,-1
 151 -200 l 1,12,-1
 85 -200 l 1,13,-1
 85 500 l 1,0,-1
EndSplineSet
Validated: 1
EndChar

StartChar: afii57929
Encoding: 700 700 345
Width: 190
GlyphClass: 1
Flags: W
LayerCount: 2
Fore
SplineSet
95 700 m 1,0,-1
 165 700 l 1,1,-1
 87 460 l 1,2,-1
 25 460 l 1,3,-1
 95 700 l 1,0,-1
EndSplineSet
Validated: 1
EndChar

StartChar: circumflex
Encoding: 710 710 346
Width: 360
GlyphClass: 1
Flags: W
LayerCount: 2
Fore
SplineSet
139 715 m 1,0,-1
 221 715 l 1,1,-1
 335 565 l 1,2,-1
 265 565 l 1,3,-1
 180 660 l 1,4,-1
 95 565 l 1,5,-1
 25 565 l 1,6,-1
 139 715 l 1,0,-1
EndSplineSet
Validated: 1
EndChar

StartChar: caron
Encoding: 711 711 347
Width: 360
GlyphClass: 1
Flags: W
LayerCount: 2
Fore
SplineSet
25 715 m 1,0,-1
 95 715 l 1,1,-1
 180 620 l 1,2,-1
 265 715 l 1,3,-1
 335 715 l 1,4,-1
 221 565 l 1,5,-1
 139 565 l 1,6,-1
 25 715 l 1,0,-1
EndSplineSet
Validated: 1
Substitution2: "'aalt' Access All Alternates lookup 0 subtable" caron.alt
EndChar

StartChar: breve
Encoding: 728 728 348
Width: 300
GlyphClass: 1
Flags: W
LayerCount: 2
Fore
SplineSet
150 563 m 256,0,1
 90 563 90 563 52.5 600.5 c 128,-1,2
 15 638 15 638 15 700 c 1,3,-1
 73 700 l 1,4,5
 75 661 75 661 95 640 c 128,-1,6
 115 619 115 619 150 619 c 256,7,8
 185 619 185 619 205 640 c 128,-1,9
 225 661 225 661 227 700 c 1,10,-1
 285 700 l 1,11,12
 285 638 285 638 247.5 600.5 c 128,-1,13
 210 563 210 563 150 563 c 256,0,1
EndSplineSet
Validated: 1
EndChar

StartChar: dotaccent
Encoding: 729 729 349
Width: 160
GlyphClass: 1
Flags: W
LayerCount: 2
Fore
SplineSet
80 588 m 256,0,1
 60 588 60 588 46.5 601.5 c 128,-1,2
 33 615 33 615 33 635 c 256,3,4
 33 655 33 655 46.5 668.5 c 128,-1,5
 60 682 60 682 80 682 c 256,6,7
 100 682 100 682 113.5 668.5 c 128,-1,8
 127 655 127 655 127 635 c 256,9,10
 127 615 127 615 113.5 601.5 c 128,-1,11
 100 588 100 588 80 588 c 256,0,1
EndSplineSet
Validated: 1
EndChar

StartChar: ring
Encoding: 730 730 350
Width: 240
GlyphClass: 1
Flags: W
LayerCount: 2
Fore
SplineSet
120 533 m 256,0,1
 74 533 74 533 44.5 562 c 128,-1,2
 15 591 15 591 15 635 c 256,3,4
 15 679 15 679 44.5 708 c 128,-1,5
 74 737 74 737 120 737 c 256,6,7
 166 737 166 737 195.5 708 c 128,-1,8
 225 679 225 679 225 635 c 256,9,10
 225 591 225 591 195.5 562 c 128,-1,11
 166 533 166 533 120 533 c 256,0,1
120 581 m 256,12,13
 145 581 145 581 160 596 c 128,-1,14
 175 611 175 611 175 635 c 256,15,16
 175 659 175 659 160 674 c 128,-1,17
 145 689 145 689 120 689 c 256,18,19
 95 689 95 689 80 674 c 128,-1,20
 65 659 65 659 65 635 c 256,21,22
 65 611 65 611 80 596 c 128,-1,23
 95 581 95 581 120 581 c 256,12,13
EndSplineSet
Validated: 1
EndChar

StartChar: ogonek
Encoding: 731 731 351
Width: 180
GlyphClass: 1
Flags: W
LayerCount: 2
Fore
SplineSet
105 -200 m 2,0,1
 60 -200 60 -200 37.5 -179 c 128,-1,2
 15 -158 15 -158 15 -123 c 0,3,4
 15 -105 15 -105 20.5 -88.5 c 128,-1,5
 26 -72 26 -72 39.5 -53.5 c 128,-1,6
 53 -35 53 -35 75 -13 c 128,-1,7
 97 9 97 9 129 36 c 1,8,-1
 165 0 l 1,9,10
 138 -26 138 -26 121 -43.5 c 128,-1,11
 104 -61 104 -61 94 -74 c 128,-1,12
 84 -87 84 -87 80.5 -96.5 c 128,-1,13
 77 -106 77 -106 77 -116 c 0,14,15
 77 -130 77 -130 86 -138 c 128,-1,16
 95 -146 95 -146 115 -146 c 2,17,-1
 165 -146 l 1,18,-1
 165 -200 l 1,19,-1
 105 -200 l 2,0,1
EndSplineSet
Validated: 1
EndChar

StartChar: tilde
Encoding: 732 732 352
Width: 340
GlyphClass: 1
Flags: W
LayerCount: 2
Fore
SplineSet
235 570 m 0,0,1
 210 570 210 570 192 581 c 128,-1,2
 174 592 174 592 160 605.5 c 128,-1,3
 146 619 146 619 133 630.5 c 128,-1,4
 120 642 120 642 105 642 c 0,5,6
 88 642 88 642 76.5 628.5 c 128,-1,7
 65 615 65 615 65 585 c 1,8,-1
 15 585 l 1,9,10
 15 644 15 644 40 672 c 128,-1,11
 65 700 65 700 105 700 c 0,12,13
 130 700 130 700 148 688.5 c 128,-1,14
 166 677 166 677 180 663.5 c 128,-1,15
 194 650 194 650 207 639 c 128,-1,16
 220 628 220 628 235 628 c 0,17,18
 252 628 252 628 263.5 641.5 c 128,-1,19
 275 655 275 655 275 685 c 1,20,-1
 325 685 l 1,21,22
 325 626 325 626 300 598 c 128,-1,23
 275 570 275 570 235 570 c 0,0,1
EndSplineSet
Validated: 1
EndChar

StartChar: hungarumlaut
Encoding: 733 733 353
Width: 390
GlyphClass: 1
Flags: W
LayerCount: 2
Fore
SplineSet
123 715 m 1,0,-1
 205 715 l 1,1,-1
 91 565 l 1,2,-1
 25 565 l 1,3,-1
 123 715 l 1,0,-1
279 715 m 1,4,-1
 365 715 l 1,5,-1
 235 565 l 1,6,-1
 165 565 l 1,7,-1
 279 715 l 1,4,-1
EndSplineSet
Validated: 1
EndChar

StartChar: uni0326
Encoding: 806 806 355
Width: 200
GlyphClass: 1
Flags: W
LayerCount: 2
Fore
SplineSet
99 -50 m 1,0,-1
 175 -50 l 1,1,-1
 85 -200 l 1,2,-1
 25 -200 l 1,3,-1
 99 -50 l 1,0,-1
EndSplineSet
Validated: 1
EndChar

StartChar: uni0394
Encoding: 916 916 356
AltUni2: 002206.ffffffff.0
Width: 650
GlyphClass: 1
Flags: W
LayerCount: 2
Fore
SplineSet
285 700 m 1,0,-1
 365 700 l 1,1,-1
 625 0 l 1,2,-1
 25 0 l 1,3,-1
 285 700 l 1,0,-1
528 64 m 1,4,-1
 324 621 l 1,5,-1
 120 64 l 1,6,-1
 528 64 l 1,4,-1
EndSplineSet
Validated: 1
EndChar

StartChar: uni039E
Encoding: 926 926 357
Width: 510
GlyphClass: 1
Flags: W
LayerCount: 2
Fore
SplineSet
45 700 m 1,0,-1
 465 700 l 1,1,-1
 465 636 l 1,2,-1
 45 636 l 1,3,-1
 45 700 l 1,0,-1
125 392 m 1,4,-1
 385 392 l 1,5,-1
 385 328 l 1,6,-1
 125 328 l 1,7,-1
 125 392 l 1,4,-1
45 64 m 1,8,-1
 465 64 l 1,9,-1
 465 0 l 1,10,-1
 45 0 l 1,11,-1
 45 64 l 1,8,-1
EndSplineSet
Validated: 1
EndChar

StartChar: uni03A9
Encoding: 937 937 358
AltUni2: 002126.ffffffff.0
Width: 710
GlyphClass: 1
Flags: W
LayerCount: 2
Fore
SplineSet
65 62 m 1,0,-1
 174 62 l 1,1,2
 122 101 122 101 93.5 165.5 c 128,-1,3
 65 230 65 230 65 318 c 2,4,-1
 65 382 l 2,5,6
 65 458 65 458 87 518 c 128,-1,7
 109 578 109 578 147.5 620 c 128,-1,8
 186 662 186 662 239 684.5 c 128,-1,9
 292 707 292 707 355 707 c 256,10,11
 418 707 418 707 471 685 c 128,-1,12
 524 663 524 663 563 621 c 128,-1,13
 602 579 602 579 623.5 518.5 c 128,-1,14
 645 458 645 458 645 382 c 2,15,-1
 645 318 l 2,16,17
 645 230 645 230 616 165.5 c 128,-1,18
 587 101 587 101 535 62 c 1,19,-1
 645 62 l 1,20,-1
 645 0 l 1,21,-1
 405 0 l 1,22,-1
 405 62 l 1,23,24
 483 78 483 78 528 145 c 128,-1,25
 573 212 573 212 573 318 c 2,26,-1
 573 382 l 2,27,28
 573 443 573 443 556 491.5 c 128,-1,29
 539 540 539 540 510 573 c 128,-1,30
 481 606 481 606 441 623.5 c 128,-1,31
 401 641 401 641 355 641 c 0,32,33
 308 641 308 641 268 624 c 128,-1,34
 228 607 228 607 199 574 c 128,-1,35
 170 541 170 541 153.5 492.5 c 128,-1,36
 137 444 137 444 137 382 c 2,37,-1
 137 318 l 2,38,39
 137 212 137 212 182.5 145 c 128,-1,40
 228 78 228 78 305 62 c 1,41,-1
 305 0 l 1,42,-1
 65 0 l 1,43,-1
 65 62 l 1,0,-1
EndSplineSet
Validated: 1
EndChar

StartChar: pi
Encoding: 960 960 359
Width: 620
GlyphClass: 1
Flags: W
LayerCount: 2
Fore
SplineSet
120 440 m 1,0,-1
 30 440 l 1,1,-1
 30 500 l 1,2,-1
 590 500 l 1,3,-1
 590 440 l 1,4,-1
 500 440 l 1,5,-1
 500 140 l 2,6,7
 500 60 500 60 572 60 c 2,8,-1
 600 60 l 1,9,-1
 600 0 l 1,10,-1
 564 0 l 2,11,12
 501 0 501 0 467.5 33.5 c 128,-1,13
 434 67 434 67 434 132 c 2,14,-1
 434 440 l 1,15,-1
 186 440 l 1,16,-1
 186 0 l 1,17,-1
 120 0 l 1,18,-1
 120 440 l 1,0,-1
EndSplineSet
Validated: 1
EndChar

StartChar: afii10051
Encoding: 1026 1026 362
Width: 735
GlyphClass: 1
Flags: W
LayerCount: 2
Fore
SplineSet
190 636 m 1,0,-1
 25 636 l 1,1,-1
 25 700 l 1,2,-1
 555 700 l 1,3,-1
 555 636 l 1,4,-1
 260 636 l 1,5,-1
 260 422 l 1,6,7
 302 433 302 433 340 437.5 c 128,-1,8
 378 442 378 442 415 442 c 0,9,10
 545 442 545 442 607.5 377 c 128,-1,11
 670 312 670 312 670 168 c 2,12,-1
 670 124 l 2,13,14
 670 -19 670 -19 609.5 -84.5 c 128,-1,15
 549 -150 549 -150 435 -150 c 2,16,-1
 395 -150 l 1,17,-1
 395 -86 l 1,18,-1
 435 -86 l 2,19,20
 515 -86 515 -86 557.5 -38 c 128,-1,21
 600 10 600 10 600 124 c 2,22,-1
 600 168 l 2,23,24
 600 226 600 226 589 266 c 128,-1,25
 578 306 578 306 554.5 331 c 128,-1,26
 531 356 531 356 494 367 c 128,-1,27
 457 378 457 378 405 378 c 0,28,29
 372 378 372 378 338.5 373.5 c 128,-1,30
 305 369 305 369 260 357 c 1,31,-1
 260 0 l 1,32,-1
 190 0 l 1,33,-1
 190 636 l 1,0,-1
EndSplineSet
Validated: 1
Position2: "'cpsp' Capital Spacing lookup 0 subtable" dx=5 dy=0 dh=10 dv=0
EndChar

StartChar: afii10053
Encoding: 1028 1028 364
Width: 670
GlyphClass: 1
Flags: W
LayerCount: 2
Fore
SplineSet
350 -7 m 0,0,1
 287 -7 287 -7 235 15 c 128,-1,2
 183 37 183 37 145 79.5 c 128,-1,3
 107 122 107 122 86 184.5 c 128,-1,4
 65 247 65 247 65 328 c 2,5,-1
 65 382 l 2,6,7
 65 459 65 459 86 519.5 c 128,-1,8
 107 580 107 580 145 621.5 c 128,-1,9
 183 663 183 663 235.5 685 c 128,-1,10
 288 707 288 707 350 707 c 0,11,12
 407 707 407 707 452.5 690.5 c 128,-1,13
 498 674 498 674 532 646 c 128,-1,14
 566 618 566 618 586.5 580.5 c 128,-1,15
 607 543 607 543 615 500 c 1,16,-1
 541 500 l 1,17,18
 533 530 533 530 517.5 556 c 128,-1,19
 502 582 502 582 478 601.5 c 128,-1,20
 454 621 454 621 422 632 c 128,-1,21
 390 643 390 643 350 643 c 0,22,23
 304 643 304 643 265 626 c 128,-1,24
 226 609 226 609 197.5 576 c 128,-1,25
 169 543 169 543 153 495.5 c 128,-1,26
 137 448 137 448 137 387 c 1,27,-1
 435 387 l 1,28,-1
 435 323 l 1,29,-1
 137 323 l 1,30,31
 137 258 137 258 153.5 208 c 128,-1,32
 170 158 170 158 198.5 124.5 c 128,-1,33
 227 91 227 91 266 74 c 128,-1,34
 305 57 305 57 350 57 c 0,35,36
 431 57 431 57 478.5 100 c 128,-1,37
 526 143 526 143 541 210 c 1,38,-1
 615 210 l 1,39,40
 607 163 607 163 586.5 123.5 c 128,-1,41
 566 84 566 84 532 55 c 128,-1,42
 498 26 498 26 452.5 9.5 c 128,-1,43
 407 -7 407 -7 350 -7 c 0,0,1
EndSplineSet
Validated: 1
Position2: "'cpsp' Capital Spacing lookup 0 subtable" dx=5 dy=0 dh=10 dv=0
EndChar

StartChar: afii10058
Encoding: 1033 1033 369
Width: 995
GlyphClass: 1
Flags: W
LayerCount: 2
Fore
SplineSet
25 57 m 1,0,-1
 35 57 l 2,1,2
 79 57 79 57 103.5 84 c 128,-1,3
 128 111 128 111 139.5 158.5 c 128,-1,4
 151 206 151 206 153 270.5 c 128,-1,5
 155 335 155 335 155 410 c 2,6,-1
 155 700 l 1,7,-1
 575 700 l 1,8,-1
 575 414 l 1,9,-1
 725 414 l 2,10,11
 838 414 838 414 896.5 358.5 c 128,-1,12
 955 303 955 303 955 207 c 0,13,14
 955 113 955 113 896 56.5 c 128,-1,15
 837 0 837 0 725 0 c 2,16,-1
 505 0 l 1,17,-1
 505 636 l 1,18,-1
 225 636 l 1,19,-1
 225 410 l 2,20,21
 225 327 225 327 221.5 252 c 128,-1,22
 218 177 218 177 200 119 c 128,-1,23
 182 61 182 61 143.5 27 c 128,-1,24
 105 -7 105 -7 35 -7 c 2,25,-1
 25 -7 l 1,26,-1
 25 57 l 1,0,-1
720 64 m 2,27,28
 804 64 804 64 843.5 101 c 128,-1,29
 883 138 883 138 883 207 c 256,30,31
 883 276 883 276 843.5 313 c 128,-1,32
 804 350 804 350 720 350 c 2,33,-1
 575 350 l 1,34,-1
 575 64 l 1,35,-1
 720 64 l 2,27,28
EndSplineSet
Validated: 1
Position2: "'cpsp' Capital Spacing lookup 0 subtable" dx=5 dy=0 dh=10 dv=0
EndChar

StartChar: afii10059
Encoding: 1034 1034 370
Width: 1010
GlyphClass: 1
Flags: W
LayerCount: 2
Fore
SplineSet
90 700 m 1,0,-1
 160 700 l 1,1,-1
 160 412 l 1,2,-1
 515 412 l 1,3,-1
 515 700 l 1,4,-1
 585 700 l 1,5,-1
 585 414 l 1,6,-1
 740 414 l 2,7,8
 853 414 853 414 911.5 358.5 c 128,-1,9
 970 303 970 303 970 207 c 0,10,11
 970 113 970 113 911 56.5 c 128,-1,12
 852 0 852 0 740 0 c 2,13,-1
 515 0 l 1,14,-1
 515 348 l 1,15,-1
 160 348 l 1,16,-1
 160 0 l 1,17,-1
 90 0 l 1,18,-1
 90 700 l 1,0,-1
735 64 m 2,19,20
 819 64 819 64 858.5 101 c 128,-1,21
 898 138 898 138 898 207 c 256,22,23
 898 276 898 276 858.5 313 c 128,-1,24
 819 350 819 350 735 350 c 2,25,-1
 585 350 l 1,26,-1
 585 64 l 1,27,-1
 735 64 l 2,19,20
EndSplineSet
Validated: 1
Position2: "'cpsp' Capital Spacing lookup 0 subtable" dx=5 dy=0 dh=10 dv=0
EndChar

StartChar: afii10060
Encoding: 1035 1035 371
Width: 740
GlyphClass: 1
Flags: W
LayerCount: 2
Fore
SplineSet
195 636 m 1,0,-1
 25 636 l 1,1,-1
 25 700 l 1,2,-1
 555 700 l 1,3,-1
 555 636 l 1,4,-1
 265 636 l 1,5,-1
 265 418 l 1,6,7
 308 430 308 430 351.5 436 c 128,-1,8
 395 442 395 442 435 442 c 0,9,10
 495 442 495 442 536 430 c 128,-1,11
 577 418 577 418 603.5 399 c 128,-1,12
 630 380 630 380 644.5 355 c 128,-1,13
 659 330 659 330 666 303.5 c 128,-1,14
 673 277 673 277 674 251.5 c 128,-1,15
 675 226 675 226 675 205 c 2,16,-1
 675 0 l 1,17,-1
 605 0 l 1,18,-1
 605 200 l 2,19,20
 605 228 605 228 602 259 c 128,-1,21
 599 290 599 290 583 316.5 c 128,-1,22
 567 343 567 343 532.5 360.5 c 128,-1,23
 498 378 498 378 435 378 c 0,24,25
 346 378 346 378 265 352 c 1,26,-1
 265 0 l 1,27,-1
 195 0 l 1,28,-1
 195 636 l 1,0,-1
EndSplineSet
Validated: 1
Position2: "'cpsp' Capital Spacing lookup 0 subtable" dx=5 dy=0 dh=10 dv=0
EndChar

StartChar: afii10145
Encoding: 1039 1039 375
Width: 700
GlyphClass: 1
Flags: W
LayerCount: 2
Fore
SplineSet
90 700 m 1,0,-1
 160 700 l 1,1,-1
 160 64 l 1,2,-1
 540 64 l 1,3,-1
 540 700 l 1,4,-1
 610 700 l 1,5,-1
 610 0 l 1,6,-1
 384 0 l 1,7,-1
 384 -150 l 1,8,-1
 316 -150 l 1,9,-1
 316 0 l 1,10,-1
 90 0 l 1,11,-1
 90 700 l 1,0,-1
EndSplineSet
Validated: 1
Position2: "'cpsp' Capital Spacing lookup 0 subtable" dx=5 dy=0 dh=10 dv=0
EndChar

StartChar: afii10018
Encoding: 1041 1041 377
Width: 610
GlyphClass: 1
Flags: W
LayerCount: 2
Fore
SplineSet
90 700 m 1,0,-1
 510 700 l 1,1,-1
 510 636 l 1,2,-1
 160 636 l 1,3,-1
 160 414 l 1,4,-1
 325 414 l 2,5,6
 442 414 442 414 501 358.5 c 128,-1,7
 560 303 560 303 560 207 c 0,8,9
 560 113 560 113 500 56.5 c 128,-1,10
 440 0 440 0 325 0 c 2,11,-1
 90 0 l 1,12,-1
 90 700 l 1,0,-1
160 350 m 1,13,-1
 160 64 l 1,14,-1
 320 64 l 2,15,16
 408 64 408 64 448 101 c 128,-1,17
 488 138 488 138 488 207 c 256,18,19
 488 276 488 276 448 313 c 128,-1,20
 408 350 408 350 320 350 c 2,21,-1
 160 350 l 1,13,-1
EndSplineSet
Validated: 1
Position2: "'cpsp' Capital Spacing lookup 0 subtable" dx=5 dy=0 dh=10 dv=0
EndChar

StartChar: afii10020
Encoding: 1043 1043 379
Width: 515
GlyphClass: 1
Flags: W
LayerCount: 2
Fore
SplineSet
90 700 m 1,0,-1
 490 700 l 1,1,-1
 490 636 l 1,2,-1
 160 636 l 1,3,-1
 160 0 l 1,4,-1
 90 0 l 1,5,-1
 90 700 l 1,0,-1
EndSplineSet
Validated: 1
Position2: "'cpsp' Capital Spacing lookup 0 subtable" dx=5 dy=0 dh=10 dv=0
EndChar

StartChar: afii10021
Encoding: 1044 1044 380
Width: 700
GlyphClass: 1
Flags: W
LayerCount: 2
Fore
SplineSet
25 64 m 1,0,-1
 87 64 l 1,1,2
 109 96 109 96 123 129.5 c 128,-1,3
 137 163 137 163 145.5 208.5 c 128,-1,4
 154 254 154 254 157 317 c 128,-1,5
 160 380 160 380 160 470 c 2,6,-1
 160 700 l 1,7,-1
 595 700 l 1,8,-1
 595 64 l 1,9,-1
 670 64 l 1,10,-1
 670 -150 l 1,11,-1
 602 -150 l 1,12,-1
 602 0 l 1,13,-1
 93 0 l 1,14,-1
 93 -150 l 1,15,-1
 25 -150 l 1,16,-1
 25 64 l 1,0,-1
525 64 m 1,17,-1
 525 636 l 1,18,-1
 230 636 l 1,19,-1
 230 470 l 2,20,21
 230 383 230 383 227 320.5 c 128,-1,22
 224 258 224 258 217 211 c 128,-1,23
 210 164 210 164 198.5 129.5 c 128,-1,24
 187 95 187 95 169 64 c 1,25,-1
 525 64 l 1,17,-1
EndSplineSet
Validated: 1
Substitution2: "'locl' Localized Forms in Cyrillic lookup 22 subtable" afii10021.BGR
Substitution2: "'aalt' Access All Alternates lookup 0 subtable" afii10021.BGR
Position2: "'cpsp' Capital Spacing lookup 0 subtable" dx=5 dy=0 dh=10 dv=0
EndChar

StartChar: afii10024
Encoding: 1046 1046 382
Width: 920
GlyphClass: 1
Flags: W
LayerCount: 2
Fore
SplineSet
258 362 m 1,0,-1
 50 700 l 1,1,-1
 128 700 l 1,2,-1
 315 392 l 1,3,-1
 425 392 l 1,4,-1
 425 700 l 1,5,-1
 495 700 l 1,6,-1
 495 392 l 1,7,-1
 605 392 l 1,8,-1
 792 700 l 1,9,-1
 870 700 l 1,10,-1
 661 362 l 1,11,-1
 885 0 l 1,12,-1
 803 0 l 1,13,-1
 605 328 l 1,14,-1
 495 328 l 1,15,-1
 495 0 l 1,16,-1
 425 0 l 1,17,-1
 425 328 l 1,18,-1
 315 328 l 1,19,-1
 117 0 l 1,20,-1
 35 0 l 1,21,-1
 258 362 l 1,0,-1
EndSplineSet
Validated: 1
Position2: "'cpsp' Capital Spacing lookup 0 subtable" dx=5 dy=0 dh=10 dv=0
EndChar

StartChar: afii10025
Encoding: 1047 1047 383
Width: 595
GlyphClass: 1
Flags: W
LayerCount: 2
Fore
SplineSet
300 -7 m 0,0,1
 185 -7 185 -7 124 51 c 128,-1,2
 63 109 63 109 55 210 c 1,3,-1
 127 210 l 1,4,5
 135 136 135 136 177 96.5 c 128,-1,6
 219 57 219 57 300 57 c 256,7,8
 381 57 381 57 422 94.5 c 128,-1,9
 463 132 463 132 463 195 c 0,10,11
 463 254 463 254 422 291 c 128,-1,12
 381 328 381 328 300 328 c 2,13,-1
 215 328 l 1,14,-1
 215 392 l 1,15,-1
 300 392 l 2,16,17
 374 392 374 392 411 426 c 128,-1,18
 448 460 448 460 448 516 c 0,19,20
 448 574 448 574 411 608.5 c 128,-1,21
 374 643 374 643 300 643 c 256,22,23
 226 643 226 643 188 606.5 c 128,-1,24
 150 570 150 570 142 500 c 1,25,-1
 70 500 l 1,26,27
 78 597 78 597 135.5 652 c 128,-1,28
 193 707 193 707 300 707 c 256,29,30
 407 707 407 707 463.5 654 c 128,-1,31
 520 601 520 601 520 516 c 0,32,33
 520 465 520 465 494.5 425 c 128,-1,34
 469 385 469 385 423 363 c 1,35,-1
 423 361 l 1,36,37
 478 339 478 339 506.5 297 c 128,-1,38
 535 255 535 255 535 195 c 0,39,40
 535 150 535 150 519.5 113 c 128,-1,41
 504 76 504 76 474.5 49.5 c 128,-1,42
 445 23 445 23 401 8 c 128,-1,43
 357 -7 357 -7 300 -7 c 0,0,1
EndSplineSet
Validated: 1
Position2: "'cpsp' Capital Spacing lookup 0 subtable" dx=5 dy=0 dh=10 dv=0
EndChar

StartChar: afii10026
Encoding: 1048 1048 384
Width: 710
GlyphClass: 1
Flags: W
LayerCount: 2
Fore
SplineSet
90 700 m 1,0,-1
 160 700 l 1,1,-1
 160 80 l 1,2,-1
 162 80 l 1,3,-1
 520 700 l 1,4,-1
 620 700 l 1,5,-1
 620 0 l 1,6,-1
 550 0 l 1,7,-1
 550 620 l 1,8,-1
 548 620 l 1,9,-1
 190 0 l 1,10,-1
 90 0 l 1,11,-1
 90 700 l 1,0,-1
EndSplineSet
Validated: 1
Substitution2: "'aalt' Access All Alternates lookup 0 subtable" afii10026.var.accented
Position2: "'cpsp' Capital Spacing lookup 0 subtable" dx=5 dy=0 dh=10 dv=0
EndChar

StartChar: afii10028
Encoding: 1050 1050 386
Width: 635
GlyphClass: 1
Flags: W
LayerCount: 2
Fore
SplineSet
90 700 m 1,0,-1
 160 700 l 1,1,-1
 160 392 l 1,2,-1
 270 392 l 1,3,-1
 498 700 l 1,4,-1
 580 700 l 1,5,-1
 328 362 l 1,6,-1
 600 0 l 1,7,-1
 514 0 l 1,8,-1
 270 328 l 1,9,-1
 160 328 l 1,10,-1
 160 0 l 1,11,-1
 90 0 l 1,12,-1
 90 700 l 1,0,-1
EndSplineSet
Validated: 1
Position2: "'cpsp' Capital Spacing lookup 0 subtable" dx=5 dy=0 dh=10 dv=0
EndChar

StartChar: afii10029
Encoding: 1051 1051 387
Width: 685
GlyphClass: 1
Flags: W
LayerCount: 2
Fore
SplineSet
25 57 m 1,0,-1
 35 57 l 2,1,2
 79 57 79 57 103.5 84 c 128,-1,3
 128 111 128 111 139.5 158.5 c 128,-1,4
 151 206 151 206 153 270.5 c 128,-1,5
 155 335 155 335 155 410 c 2,6,-1
 155 700 l 1,7,-1
 595 700 l 1,8,-1
 595 0 l 1,9,-1
 525 0 l 1,10,-1
 525 636 l 1,11,-1
 225 636 l 1,12,-1
 225 410 l 2,13,14
 225 327 225 327 221.5 252 c 128,-1,15
 218 177 218 177 200 119 c 128,-1,16
 182 61 182 61 143.5 27 c 128,-1,17
 105 -7 105 -7 35 -7 c 2,18,-1
 25 -7 l 1,19,-1
 25 57 l 1,0,-1
EndSplineSet
Validated: 1
Substitution2: "'locl' Localized Forms in Cyrillic lookup 22 subtable" afii10029.BGR
Substitution2: "'aalt' Access All Alternates lookup 0 subtable" afii10029.BGR
Position2: "'cpsp' Capital Spacing lookup 0 subtable" dx=5 dy=0 dh=10 dv=0
EndChar

StartChar: afii10033
Encoding: 1055 1055 391
Width: 700
GlyphClass: 1
Flags: W
LayerCount: 2
Fore
SplineSet
90 700 m 1,0,-1
 610 700 l 1,1,-1
 610 0 l 1,2,-1
 540 0 l 1,3,-1
 540 636 l 1,4,-1
 160 636 l 1,5,-1
 160 0 l 1,6,-1
 90 0 l 1,7,-1
 90 700 l 1,0,-1
EndSplineSet
Validated: 1
Position2: "'cpsp' Capital Spacing lookup 0 subtable" dx=5 dy=0 dh=10 dv=0
EndChar

StartChar: afii10037
Encoding: 1059 1059 395
Width: 610
GlyphClass: 1
Flags: W
LayerCount: 2
Fore
SplineSet
286 200 m 1,0,-1
 30 700 l 1,1,-1
 110 700 l 1,2,-1
 322 280 l 1,3,-1
 324 280 l 1,4,-1
 504 700 l 1,5,-1
 580 700 l 1,6,-1
 275 0 l 1,7,-1
 199 0 l 1,8,-1
 286 200 l 1,0,-1
EndSplineSet
Validated: 1
Substitution2: "'ss05' Style Set 5 lookup 36 subtable" afii10037.ss05
AlternateSubs2: "'aalt' Access All Alternates lookup 1 subtable" afii10037.var.accented afii10037.ss05 afii10037.var.accented.ss05
Position2: "'cpsp' Capital Spacing lookup 0 subtable" dx=5 dy=0 dh=10 dv=0
EndChar

StartChar: afii10038
Encoding: 1060 1060 396
Width: 840
GlyphClass: 1
Flags: W
LayerCount: 2
Fore
SplineSet
385 48 m 1,0,1
 303 48 303 48 241.5 68 c 128,-1,2
 180 88 180 88 138.5 125.5 c 128,-1,3
 97 163 97 163 76 215.5 c 128,-1,4
 55 268 55 268 55 333 c 2,5,-1
 55 367 l 2,6,7
 55 431 55 431 76 483.5 c 128,-1,8
 97 536 97 536 139 573.5 c 128,-1,9
 181 611 181 611 242.5 631.5 c 128,-1,10
 304 652 304 652 385 652 c 1,11,-1
 385 707 l 1,12,-1
 455 707 l 1,13,-1
 455 652 l 1,14,15
 537 652 537 652 598.5 632 c 128,-1,16
 660 612 660 612 701.5 574.5 c 128,-1,17
 743 537 743 537 764 484.5 c 128,-1,18
 785 432 785 432 785 367 c 2,19,-1
 785 333 l 2,20,21
 785 269 785 269 764 216.5 c 128,-1,22
 743 164 743 164 701 126.5 c 128,-1,23
 659 89 659 89 597.5 68.5 c 128,-1,24
 536 48 536 48 455 48 c 1,25,-1
 455 -7 l 1,26,-1
 385 -7 l 1,27,-1
 385 48 l 1,0,1
713 367 m 2,28,29
 713 468 713 468 648.5 528 c 128,-1,30
 584 588 584 588 455 588 c 1,31,-1
 455 112 l 1,32,33
 589 112 589 112 651 169.5 c 128,-1,34
 713 227 713 227 713 333 c 2,35,-1
 713 367 l 2,28,29
127 333 m 2,36,37
 127 232 127 232 191.5 172 c 128,-1,38
 256 112 256 112 385 112 c 1,39,-1
 385 588 l 1,40,41
 254 588 254 588 190.5 529 c 128,-1,42
 127 470 127 470 127 367 c 2,43,-1
 127 333 l 2,36,37
EndSplineSet
Validated: 1
Substitution2: "'locl' Localized Forms in Cyrillic lookup 22 subtable" afii10038.BGR
Substitution2: "'aalt' Access All Alternates lookup 0 subtable" afii10038.BGR
Position2: "'cpsp' Capital Spacing lookup 0 subtable" dx=5 dy=0 dh=10 dv=0
EndChar

StartChar: afii10040
Encoding: 1062 1062 398
Width: 725
GlyphClass: 1
Flags: W
LayerCount: 2
Fore
SplineSet
90 700 m 1,0,-1
 160 700 l 1,1,-1
 160 64 l 1,2,-1
 540 64 l 1,3,-1
 540 700 l 1,4,-1
 610 700 l 1,5,-1
 610 64 l 1,6,-1
 695 64 l 1,7,-1
 695 -150 l 1,8,-1
 627 -150 l 1,9,-1
 627 0 l 1,10,-1
 90 0 l 1,11,-1
 90 700 l 1,0,-1
EndSplineSet
Validated: 1
Position2: "'cpsp' Capital Spacing lookup 0 subtable" dx=5 dy=0 dh=10 dv=0
EndChar

StartChar: afii10041
Encoding: 1063 1063 399
Width: 630
GlyphClass: 1
Flags: W
LayerCount: 2
Fore
SplineSet
300 258 m 0,0,1
 240 258 240 258 199 270 c 128,-1,2
 158 282 158 282 131.5 301 c 128,-1,3
 105 320 105 320 90.5 345 c 128,-1,4
 76 370 76 370 69 396.5 c 128,-1,5
 62 423 62 423 61 448.5 c 128,-1,6
 60 474 60 474 60 495 c 2,7,-1
 60 700 l 1,8,-1
 130 700 l 1,9,-1
 130 500 l 2,10,11
 130 472 130 472 133 441 c 128,-1,12
 136 410 136 410 152 383.5 c 128,-1,13
 168 357 168 357 202.5 339.5 c 128,-1,14
 237 322 237 322 300 322 c 0,15,16
 389 322 389 322 470 348 c 1,17,-1
 470 700 l 1,18,-1
 540 700 l 1,19,-1
 540 0 l 1,20,-1
 470 0 l 1,21,-1
 470 282 l 1,22,23
 427 270 427 270 383.5 264 c 128,-1,24
 340 258 340 258 300 258 c 0,0,1
EndSplineSet
Validated: 1
Position2: "'cpsp' Capital Spacing lookup 0 subtable" dx=5 dy=0 dh=10 dv=0
EndChar

StartChar: afii10042
Encoding: 1064 1064 400
Width: 940
GlyphClass: 1
Flags: W
LayerCount: 2
Fore
SplineSet
90 700 m 1,0,-1
 160 700 l 1,1,-1
 160 64 l 1,2,-1
 435 64 l 1,3,-1
 435 700 l 1,4,-1
 505 700 l 1,5,-1
 505 64 l 1,6,-1
 780 64 l 1,7,-1
 780 700 l 1,8,-1
 850 700 l 1,9,-1
 850 0 l 1,10,-1
 90 0 l 1,11,-1
 90 700 l 1,0,-1
EndSplineSet
Validated: 1
Position2: "'cpsp' Capital Spacing lookup 0 subtable" dx=5 dy=0 dh=10 dv=0
EndChar

StartChar: afii10043
Encoding: 1065 1065 401
Width: 965
GlyphClass: 1
Flags: W
LayerCount: 2
Fore
SplineSet
90 700 m 1,0,-1
 160 700 l 1,1,-1
 160 64 l 1,2,-1
 435 64 l 1,3,-1
 435 700 l 1,4,-1
 505 700 l 1,5,-1
 505 64 l 1,6,-1
 780 64 l 1,7,-1
 780 700 l 1,8,-1
 850 700 l 1,9,-1
 850 64 l 1,10,-1
 935 64 l 1,11,-1
 935 -150 l 1,12,-1
 867 -150 l 1,13,-1
 867 0 l 1,14,-1
 90 0 l 1,15,-1
 90 700 l 1,0,-1
EndSplineSet
Validated: 1
Position2: "'cpsp' Capital Spacing lookup 0 subtable" dx=5 dy=0 dh=10 dv=0
EndChar

StartChar: afii10044
Encoding: 1066 1066 402
Width: 715
GlyphClass: 1
Flags: W
LayerCount: 2
Fore
SplineSet
205 636 m 1,0,-1
 25 636 l 1,1,-1
 25 700 l 1,2,-1
 275 700 l 1,3,-1
 275 434 l 1,4,-1
 430 434 l 2,5,6
 555 434 555 434 615 377 c 128,-1,7
 675 320 675 320 675 217 c 0,8,9
 675 115 675 115 614 57.5 c 128,-1,10
 553 0 553 0 430 0 c 2,11,-1
 205 0 l 1,12,-1
 205 636 l 1,0,-1
425 64 m 2,13,14
 520 64 520 64 561.5 102.5 c 128,-1,15
 603 141 603 141 603 217 c 256,16,17
 603 293 603 293 561.5 331.5 c 128,-1,18
 520 370 520 370 425 370 c 2,19,-1
 275 370 l 1,20,-1
 275 64 l 1,21,-1
 425 64 l 2,13,14
EndSplineSet
Validated: 1
Position2: "'cpsp' Capital Spacing lookup 0 subtable" dx=5 dy=0 dh=10 dv=0
EndChar

StartChar: afii10045
Encoding: 1067 1067 403
Width: 830
GlyphClass: 1
Flags: W
LayerCount: 2
Fore
SplineSet
670 700 m 1,0,-1
 740 700 l 1,1,-1
 740 0 l 1,2,-1
 670 0 l 1,3,-1
 670 700 l 1,0,-1
90 700 m 1,4,-1
 160 700 l 1,5,-1
 160 434 l 1,6,-1
 309 434 l 2,7,8
 432 434 432 434 493 376.5 c 128,-1,9
 554 319 554 319 554 217 c 0,10,11
 554 114 554 114 494 57 c 128,-1,12
 434 0 434 0 309 0 c 2,13,-1
 90 0 l 1,14,-1
 90 700 l 1,4,-1
304 64 m 2,15,16
 398 64 398 64 440 103 c 128,-1,17
 482 142 482 142 482 217 c 0,18,19
 482 293 482 293 440.5 331.5 c 128,-1,20
 399 370 399 370 304 370 c 2,21,-1
 160 370 l 1,22,-1
 160 64 l 1,23,-1
 304 64 l 2,15,16
EndSplineSet
Validated: 1
Substitution2: "'aalt' Access All Alternates lookup 0 subtable" afii10045.var.accented
Position2: "'cpsp' Capital Spacing lookup 0 subtable" dx=5 dy=0 dh=10 dv=0
EndChar

StartChar: afii10046
Encoding: 1068 1068 404
Width: 600
GlyphClass: 1
Flags: W
LayerCount: 2
Fore
SplineSet
90 700 m 1,0,-1
 160 700 l 1,1,-1
 160 434 l 1,2,-1
 315 434 l 2,3,4
 440 434 440 434 500 377 c 128,-1,5
 560 320 560 320 560 217 c 0,6,7
 560 115 560 115 499 57.5 c 128,-1,8
 438 0 438 0 315 0 c 2,9,-1
 90 0 l 1,10,-1
 90 700 l 1,0,-1
310 64 m 2,11,12
 405 64 405 64 446.5 102.5 c 128,-1,13
 488 141 488 141 488 217 c 256,14,15
 488 293 488 293 446.5 331.5 c 128,-1,16
 405 370 405 370 310 370 c 2,17,-1
 160 370 l 1,18,-1
 160 64 l 1,19,-1
 310 64 l 2,11,12
EndSplineSet
Validated: 1
Position2: "'cpsp' Capital Spacing lookup 0 subtable" dx=5 dy=0 dh=10 dv=0
EndChar

StartChar: afii10047
Encoding: 1069 1069 405
Width: 670
GlyphClass: 1
Flags: W
LayerCount: 2
Fore
SplineSet
320 -7 m 0,0,1
 263 -7 263 -7 217.5 9.5 c 128,-1,2
 172 26 172 26 138 55 c 128,-1,3
 104 84 104 84 83 123.5 c 128,-1,4
 62 163 62 163 55 210 c 1,5,-1
 129 210 l 1,6,7
 144 143 144 143 191.5 100 c 128,-1,8
 239 57 239 57 320 57 c 0,9,10
 365 57 365 57 404 74 c 128,-1,11
 443 91 443 91 471.5 124.5 c 128,-1,12
 500 158 500 158 516.5 208 c 128,-1,13
 533 258 533 258 533 323 c 1,14,-1
 235 323 l 1,15,-1
 235 387 l 1,16,-1
 533 387 l 1,17,18
 533 448 533 448 517 495.5 c 128,-1,19
 501 543 501 543 472.5 576 c 128,-1,20
 444 609 444 609 405 626 c 128,-1,21
 366 643 366 643 320 643 c 0,22,23
 280 643 280 643 248 632 c 128,-1,24
 216 621 216 621 192 601.5 c 128,-1,25
 168 582 168 582 152 556 c 128,-1,26
 136 530 136 530 129 500 c 1,27,-1
 55 500 l 1,28,29
 62 543 62 543 83 580.5 c 128,-1,30
 104 618 104 618 138 646 c 128,-1,31
 172 674 172 674 217.5 690.5 c 128,-1,32
 263 707 263 707 320 707 c 0,33,34
 382 707 382 707 434.5 685 c 128,-1,35
 487 663 487 663 525 621.5 c 128,-1,36
 563 580 563 580 584 519.5 c 128,-1,37
 605 459 605 459 605 382 c 2,38,-1
 605 328 l 2,39,40
 605 247 605 247 584 184.5 c 128,-1,41
 563 122 563 122 525 79.5 c 128,-1,42
 487 37 487 37 435 15 c 128,-1,43
 383 -7 383 -7 320 -7 c 0,0,1
EndSplineSet
Validated: 1
Substitution2: "'aalt' Access All Alternates lookup 0 subtable" afii10047.var.accented
Position2: "'cpsp' Capital Spacing lookup 0 subtable" dx=5 dy=0 dh=10 dv=0
EndChar

StartChar: afii10048
Encoding: 1070 1070 406
Width: 915
GlyphClass: 1
Flags: W
LayerCount: 2
Fore
SplineSet
90 700 m 1,0,-1
 160 700 l 1,1,-1
 160 392 l 1,2,-1
 300 392 l 1,3,4
 300 468 300 468 320 527 c 128,-1,5
 340 586 340 586 376.5 626 c 128,-1,6
 413 666 413 666 463.5 686.5 c 128,-1,7
 514 707 514 707 575 707 c 256,8,9
 636 707 636 707 686.5 686 c 128,-1,10
 737 665 737 665 773.5 624.5 c 128,-1,11
 810 584 810 584 830 524.5 c 128,-1,12
 850 465 850 465 850 387 c 2,13,-1
 850 333 l 2,14,15
 850 248 850 248 830 184 c 128,-1,16
 810 120 810 120 773.5 77.5 c 128,-1,17
 737 35 737 35 686.5 14 c 128,-1,18
 636 -7 636 -7 575 -7 c 0,19,20
 513 -7 513 -7 462.5 14 c 128,-1,21
 412 35 412 35 376 76.5 c 128,-1,22
 340 118 340 118 320 181 c 128,-1,23
 300 244 300 244 300 328 c 1,24,-1
 160 328 l 1,25,-1
 160 0 l 1,26,-1
 90 0 l 1,27,-1
 90 700 l 1,0,-1
575 57 m 256,28,29
 619 57 619 57 656 73.5 c 128,-1,30
 693 90 693 90 720 124 c 128,-1,31
 747 158 747 158 762.5 210 c 128,-1,32
 778 262 778 262 778 333 c 2,33,-1
 778 387 l 2,34,35
 778 451 778 451 762.5 499 c 128,-1,36
 747 547 747 547 720 579 c 128,-1,37
 693 611 693 611 656 627 c 128,-1,38
 619 643 619 643 575 643 c 256,39,40
 531 643 531 643 494 627 c 128,-1,41
 457 611 457 611 430 579 c 128,-1,42
 403 547 403 547 387.5 499 c 128,-1,43
 372 451 372 451 372 387 c 2,44,-1
 372 333 l 2,45,46
 372 262 372 262 387.5 210 c 128,-1,47
 403 158 403 158 430 124 c 128,-1,48
 457 90 457 90 494 73.5 c 128,-1,49
 531 57 531 57 575 57 c 256,28,29
EndSplineSet
Validated: 1
Substitution2: "'aalt' Access All Alternates lookup 0 subtable" afii10048.var.accented
Position2: "'cpsp' Capital Spacing lookup 0 subtable" dx=5 dy=0 dh=10 dv=0
EndChar

StartChar: afii10049
Encoding: 1071 1071 407
Width: 620
GlyphClass: 1
Flags: W
LayerCount: 2
Fore
SplineSet
460 0 m 1,0,-1
 460 286 l 1,1,-1
 305 286 l 2,2,3
 298 286 298 286 291.5 286.5 c 128,-1,4
 285 287 285 287 279 287 c 1,5,-1
 120 0 l 1,6,-1
 40 0 l 1,7,-1
 208 298 l 1,8,9
 133 318 133 318 96.5 369 c 128,-1,10
 60 420 60 420 60 493 c 0,11,12
 60 588 60 588 120.5 644 c 128,-1,13
 181 700 181 700 305 700 c 2,14,-1
 530 700 l 1,15,-1
 530 0 l 1,16,-1
 460 0 l 1,0,-1
460 636 m 1,17,-1
 310 636 l 2,18,19
 216 636 216 636 174 598 c 128,-1,20
 132 560 132 560 132 493 c 0,21,22
 132 424 132 424 173.5 387 c 128,-1,23
 215 350 215 350 310 350 c 2,24,-1
 460 350 l 1,25,-1
 460 636 l 1,17,-1
EndSplineSet
Validated: 1
Substitution2: "'aalt' Access All Alternates lookup 0 subtable" afii10049.var.accented
Position2: "'cpsp' Capital Spacing lookup 0 subtable" dx=5 dy=0 dh=10 dv=0
EndChar

StartChar: afii10066
Encoding: 1073 1073 409
Width: 555
GlyphClass: 1
Flags: W
LayerCount: 2
Fore
SplineSet
281 -7 m 0,0,1
 179 -7 179 -7 119.5 58.5 c 128,-1,2
 60 124 60 124 60 263 c 2,3,-1
 60 317 l 2,4,5
 60 374 60 374 65 425 c 128,-1,6
 70 476 70 476 82.5 518 c 128,-1,7
 95 560 95 560 117 592.5 c 128,-1,8
 139 625 139 625 174 646 c 0,9,10
 205 664 205 664 235.5 670.5 c 128,-1,11
 266 677 266 677 300 680 c 128,-1,12
 334 683 334 683 373 687.5 c 128,-1,13
 412 692 412 692 460 707 c 1,14,-1
 460 646 l 1,15,16
 422 632 422 632 386.5 628 c 128,-1,17
 351 624 351 624 318.5 621 c 128,-1,18
 286 618 286 618 257 613 c 128,-1,19
 228 608 228 608 204 593 c 0,20,21
 167 569 167 569 148.5 525 c 128,-1,22
 130 481 130 481 124 410 c 1,23,-1
 126 410 l 1,24,25
 152 452 152 452 194.5 474.5 c 128,-1,26
 237 497 237 497 293 497 c 0,27,28
 338 497 338 497 376 481 c 128,-1,29
 414 465 414 465 441.5 435 c 128,-1,30
 469 405 469 405 484.5 361 c 128,-1,31
 500 317 500 317 500 262 c 2,32,-1
 500 228 l 2,33,34
 500 173 500 173 484 129.5 c 128,-1,35
 468 86 468 86 439.5 55.5 c 128,-1,36
 411 25 411 25 370.5 9 c 128,-1,37
 330 -7 330 -7 281 -7 c 0,0,1
281 53 m 0,38,39
 349 53 349 53 390.5 97.5 c 128,-1,40
 432 142 432 142 432 228 c 2,41,-1
 432 262 l 2,42,43
 432 348 432 348 390.5 392.5 c 128,-1,44
 349 437 349 437 281 437 c 0,45,46
 211 437 211 437 169.5 393 c 128,-1,47
 128 349 128 349 128 262 c 2,48,-1
 128 228 l 2,49,50
 128 143 128 143 170 98 c 128,-1,51
 212 53 212 53 281 53 c 0,38,39
EndSplineSet
Validated: 1
Substitution2: "'locl' Localized Forms in Cyrillic lookup 21 subtable" afii10066.SRB
Substitution2: "'aalt' Access All Alternates lookup 0 subtable" afii10066.SRB
EndChar

StartChar: afii10067
Encoding: 1074 1074 410
Width: 520
GlyphClass: 1
Flags: W
LayerCount: 2
Fore
SplineSet
85 500 m 1,0,-1
 275 500 l 2,1,2
 363 500 363 500 404 463 c 128,-1,3
 445 426 445 426 445 363 c 0,4,5
 445 330 445 330 428.5 303 c 128,-1,6
 412 276 412 276 382 261 c 1,7,-1
 382 259 l 1,8,9
 423 243 423 243 444 213 c 128,-1,10
 465 183 465 183 465 143 c 0,11,12
 465 76 465 76 424 38 c 128,-1,13
 383 0 383 0 295 0 c 2,14,-1
 85 0 l 1,15,-1
 85 500 l 1,0,-1
377 362 m 0,16,17
 377 399 377 399 353 419.5 c 128,-1,18
 329 440 329 440 270 440 c 2,19,-1
 151 440 l 1,20,-1
 151 283 l 1,21,-1
 270 283 l 2,22,23
 329 283 329 283 353 303.5 c 128,-1,24
 377 324 377 324 377 362 c 0,16,17
397 144 m 0,25,26
 397 185 397 185 373 206 c 128,-1,27
 349 227 349 227 290 227 c 2,28,-1
 151 227 l 1,29,-1
 151 60 l 1,30,-1
 290 60 l 2,31,32
 349 60 349 60 373 81 c 128,-1,33
 397 102 397 102 397 144 c 0,25,26
EndSplineSet
Validated: 1
Substitution2: "'locl' Localized Forms in Cyrillic lookup 22 subtable" afii10067.BGR
Substitution2: "'aalt' Access All Alternates lookup 0 subtable" afii10067.BGR
EndChar

StartChar: afii10068
Encoding: 1075 1075 411
Width: 425
GlyphClass: 1
Flags: W
LayerCount: 2
Fore
SplineSet
85 500 m 1,0,-1
 405 500 l 1,1,-1
 405 440 l 1,2,-1
 151 440 l 1,3,-1
 151 0 l 1,4,-1
 85 0 l 1,5,-1
 85 500 l 1,0,-1
EndSplineSet
Validated: 1
Substitution2: "'locl' Localized Forms in Cyrillic lookup 22 subtable" afii10068.BGR
Substitution2: "'aalt' Access All Alternates lookup 0 subtable" afii10068.BGR
EndChar

StartChar: afii10069
Encoding: 1076 1076 412
Width: 560
GlyphClass: 1
Flags: W
LayerCount: 2
Fore
SplineSet
20 60 m 1,0,-1
 75 60 l 1,1,2
 91 85 91 85 101.5 111 c 128,-1,3
 112 137 112 137 118.5 170 c 128,-1,4
 125 203 125 203 127.5 246.5 c 128,-1,5
 130 290 130 290 130 350 c 2,6,-1
 130 500 l 1,7,-1
 470 500 l 1,8,-1
 470 60 l 1,9,-1
 535 60 l 1,10,-1
 535 -130 l 1,11,-1
 471 -130 l 1,12,-1
 471 0 l 1,13,-1
 84 0 l 1,14,-1
 84 -130 l 1,15,-1
 20 -130 l 1,16,-1
 20 60 l 1,0,-1
404 60 m 1,17,-1
 404 440 l 1,18,-1
 194 440 l 1,19,-1
 194 350 l 2,20,21
 194 296 194 296 192 255 c 128,-1,22
 190 214 190 214 185 180.5 c 128,-1,23
 180 147 180 147 171 118.5 c 128,-1,24
 162 90 162 90 149 62 c 1,25,-1
 149 60 l 1,26,-1
 404 60 l 1,17,-1
EndSplineSet
Validated: 1
Substitution2: "'locl' Localized Forms in Cyrillic lookup 22 subtable" afii10069.BGR
Substitution2: "'aalt' Access All Alternates lookup 0 subtable" afii10069.BGR
EndChar

StartChar: afii10072
Encoding: 1078 1078 414
Width: 710
GlyphClass: 1
Flags: W
LayerCount: 2
Fore
SplineSet
179 263 m 1,0,-1
 35 500 l 1,1,-1
 109 500 l 1,2,-1
 232 290 l 1,3,-1
 322 290 l 1,4,-1
 322 500 l 1,5,-1
 388 500 l 1,6,-1
 388 290 l 1,7,-1
 478 290 l 1,8,-1
 601 500 l 1,9,-1
 675 500 l 1,10,-1
 531 263 l 1,11,-1
 685 0 l 1,12,-1
 609 0 l 1,13,-1
 478 230 l 1,14,-1
 388 230 l 1,15,-1
 388 0 l 1,16,-1
 322 0 l 1,17,-1
 322 230 l 1,18,-1
 232 230 l 1,19,-1
 101 0 l 1,20,-1
 25 0 l 1,21,-1
 179 263 l 1,0,-1
EndSplineSet
Validated: 1
Substitution2: "'locl' Localized Forms in Cyrillic lookup 22 subtable" afii10072.BGR
Substitution2: "'aalt' Access All Alternates lookup 0 subtable" afii10072.BGR
EndChar

StartChar: afii10073
Encoding: 1079 1079 415
Width: 485
GlyphClass: 1
Flags: W
LayerCount: 2
Fore
SplineSet
240 -7 m 256,0,1
 143 -7 143 -7 95.5 35.5 c 128,-1,2
 48 78 48 78 40 150 c 1,3,-1
 108 150 l 1,4,5
 116 102 116 102 145 77.5 c 128,-1,6
 174 53 174 53 240 53 c 256,7,8
 306 53 306 53 334 76.5 c 128,-1,9
 362 100 362 100 362 140 c 0,10,11
 362 178 362 178 334 201.5 c 128,-1,12
 306 225 306 225 240 225 c 2,13,-1
 185 225 l 1,14,-1
 185 285 l 1,15,-1
 240 285 l 2,16,17
 297 285 297 285 322 307 c 128,-1,18
 347 329 347 329 347 365 c 0,19,20
 347 403 347 403 322 425 c 128,-1,21
 297 447 297 447 240 447 c 256,22,23
 183 447 183 447 157 424.5 c 128,-1,24
 131 402 131 402 123 360 c 1,25,-1
 55 360 l 1,26,27
 63 426 63 426 107.5 466.5 c 128,-1,28
 152 507 152 507 240 507 c 0,29,30
 327 507 327 507 371 467 c 128,-1,31
 415 427 415 427 415 365 c 0,32,33
 415 297 415 297 350 259 c 1,34,-1
 350 257 l 1,35,36
 430 224 430 224 430 140 c 0,37,38
 430 75 430 75 383.5 34 c 128,-1,39
 337 -7 337 -7 240 -7 c 256,0,1
EndSplineSet
Validated: 1
Substitution2: "'locl' Localized Forms in Cyrillic lookup 22 subtable" afii10073.BGR
Substitution2: "'aalt' Access All Alternates lookup 0 subtable" afii10073.BGR
EndChar

StartChar: afii10074
Encoding: 1080 1080 416
Width: 580
GlyphClass: 1
Flags: W
LayerCount: 2
Fore
SplineSet
85 500 m 1,0,-1
 151 500 l 1,1,-1
 151 75 l 1,2,-1
 153 75 l 1,3,-1
 403 500 l 1,4,-1
 495 500 l 1,5,-1
 495 0 l 1,6,-1
 429 0 l 1,7,-1
 429 425 l 1,8,-1
 427 425 l 1,9,-1
 177 0 l 1,10,-1
 85 0 l 1,11,-1
 85 500 l 1,0,-1
EndSplineSet
Validated: 1
Substitution2: "'locl' Localized Forms in Cyrillic lookup 22 subtable" afii10074.BGR
AlternateSubs2: "'aalt' Access All Alternates lookup 1 subtable" afii10074.var.accented afii10074.BGR
EndChar

StartChar: afii10076
Encoding: 1082 1082 418
Width: 510
GlyphClass: 1
Flags: W
LayerCount: 2
Fore
SplineSet
85 500 m 1,0,-1
 151 500 l 1,1,-1
 151 290 l 1,2,-1
 241 290 l 1,3,-1
 387 500 l 1,4,-1
 465 500 l 1,5,-1
 294 262 l 1,6,-1
 485 0 l 1,7,-1
 405 0 l 1,8,-1
 241 230 l 1,9,-1
 151 230 l 1,10,-1
 151 0 l 1,11,-1
 85 0 l 1,12,-1
 85 500 l 1,0,-1
EndSplineSet
Validated: 1
Substitution2: "'locl' Localized Forms in Cyrillic lookup 22 subtable" afii10076.BGR
Substitution2: "'aalt' Access All Alternates lookup 0 subtable" afii10076.BGR
EndChar

StartChar: afii10077
Encoding: 1083 1083 419
Width: 545
GlyphClass: 1
Flags: W
LayerCount: 2
Fore
SplineSet
20 53 m 1,0,-1
 35 53 l 2,1,2
 66 53 66 53 83 74 c 128,-1,3
 100 95 100 95 108.5 135 c 128,-1,4
 117 175 117 175 118.5 232 c 128,-1,5
 120 289 120 289 120 360 c 2,6,-1
 120 500 l 1,7,-1
 460 500 l 1,8,-1
 460 0 l 1,9,-1
 394 0 l 1,10,-1
 394 440 l 1,11,-1
 186 440 l 1,12,-1
 186 360 l 2,13,14
 186 279 186 279 183.5 212 c 128,-1,15
 181 145 181 145 166.5 96 c 128,-1,16
 152 47 152 47 121.5 20 c 128,-1,17
 91 -7 91 -7 35 -7 c 2,18,-1
 20 -7 l 1,19,-1
 20 53 l 1,0,-1
EndSplineSet
Validated: 1
Substitution2: "'locl' Localized Forms in Cyrillic lookup 22 subtable" afii10077.BGR
Substitution2: "'aalt' Access All Alternates lookup 0 subtable" afii10077.BGR
EndChar

StartChar: afii10078
Encoding: 1084 1084 420
Width: 680
GlyphClass: 1
Flags: W
LayerCount: 2
Fore
SplineSet
85 500 m 1,0,-1
 181 500 l 1,1,-1
 341 192 l 1,2,-1
 343 192 l 1,3,-1
 503 500 l 1,4,-1
 595 500 l 1,5,-1
 595 0 l 1,6,-1
 529 0 l 1,7,-1
 529 415 l 1,8,-1
 527 415 l 1,9,-1
 373 120 l 1,10,-1
 307 120 l 1,11,-1
 153 415 l 1,12,-1
 151 415 l 1,13,-1
 151 0 l 1,14,-1
 85 0 l 1,15,-1
 85 500 l 1,0,-1
EndSplineSet
Validated: 1
EndChar

StartChar: afii10079
Encoding: 1085 1085 421
Width: 580
GlyphClass: 1
Flags: W
LayerCount: 2
Fore
SplineSet
85 500 m 1,0,-1
 151 500 l 1,1,-1
 151 285 l 1,2,-1
 429 285 l 1,3,-1
 429 500 l 1,4,-1
 495 500 l 1,5,-1
 495 0 l 1,6,-1
 429 0 l 1,7,-1
 429 225 l 1,8,-1
 151 225 l 1,9,-1
 151 0 l 1,10,-1
 85 0 l 1,11,-1
 85 500 l 1,0,-1
EndSplineSet
Validated: 1
EndChar

StartChar: afii10081
Encoding: 1087 1087 423
Width: 560
GlyphClass: 1
Flags: W
LayerCount: 2
Fore
SplineSet
85 500 m 1,0,-1
 475 500 l 1,1,-1
 475 0 l 1,2,-1
 409 0 l 1,3,-1
 409 440 l 1,4,-1
 151 440 l 1,5,-1
 151 0 l 1,6,-1
 85 0 l 1,7,-1
 85 500 l 1,0,-1
EndSplineSet
Validated: 1
Substitution2: "'locl' Localized Forms in Cyrillic lookup 22 subtable" afii10081.BGR
Substitution2: "'aalt' Access All Alternates lookup 0 subtable" afii10081.BGR
EndChar

StartChar: afii10084
Encoding: 1090 1090 426
Width: 440
GlyphClass: 1
Flags: W
LayerCount: 2
Fore
SplineSet
187 440 m 1,0,-1
 20 440 l 1,1,-1
 20 500 l 1,2,-1
 420 500 l 1,3,-1
 420 440 l 1,4,-1
 253 440 l 1,5,-1
 253 0 l 1,6,-1
 187 0 l 1,7,-1
 187 440 l 1,0,-1
EndSplineSet
Validated: 1
Substitution2: "'locl' Localized Forms in Cyrillic lookup 22 subtable" afii10084.BGR
Substitution2: "'aalt' Access All Alternates lookup 0 subtable" afii10084.BGR
EndChar

